<?xml version="1.0" encoding="utf-8"?>
<!-- Generator: Adobe Illustrator 19.2.0, SVG Export Plug-In . SVG Version: 6.00 Build 0)  -->
<svg version="1.1" id="Layer_1" xmlns="http://www.w3.org/2000/svg" xmlns:xlink="http://www.w3.org/1999/xlink" x="0px" y="0px"
	 viewBox="0 0 688.3 225.2" style="enable-background:new 0 0 688.3 225.2;" xml:space="preserve">
<style type="text/css">
	.st0{fill:#231F20;}
	.st1{fill:#FFFFFF;}
</style>
<g>
	<path class="st0" d="M688.3,194.7c0,16.8-13.6,30.4-30.4,30.4H30.4C13.6,225.2,0,211.5,0,194.7V30.4C0,13.6,13.6,0,30.4,0h627.5
		c16.8,0,30.4,13.6,30.4,30.4V194.7z"/>
	<path class="st1" d="M118.9,38.5H62.8c-6.7,0-12.2,5.4-12.2,12.2v124.2c0,6.7,5.4,12.2,12.2,12.2h56.1c6.7,0,12.2-5.4,12.2-12.2
		V50.7C131.1,44,125.6,38.5,118.9,38.5z M90.8,178.1c-4.5,0-8.1-3.6-8.1-8.1c0-4.5,3.6-8.1,8.1-8.1c4.5,0,8.1,3.6,8.1,8.1
		C99,174.5,95.3,178.1,90.8,178.1z M121.5,158H60.2V66.3h61.3V158z"/>
	<g>
		<path class="st1" d="M177,60.6L173.6,71h-4.4l11.1-32.8h5.1L196.6,71h-4.5l-3.5-10.3H177z M187.7,57.3l-3.3-9.4
			c-0.7-2.1-1.2-4.1-1.7-6h-0.1c-0.4,1.9-1,3.9-1.6,5.9l-3.2,9.5H187.7z"/>
		<path class="st1" d="M201,47.4l4.6,13.2c0.8,2.2,1.4,4.1,1.9,6.1h0.1c0.5-1.9,1.2-3.9,2-6.1l4.6-13.2h4.5L209.5,71h-4.1l-9-23.6
			H201z"/>
		<path class="st1" d="M238.5,65.3c0,2,0.1,4,0.3,5.6H235l-0.4-3h-0.1c-1.3,1.9-3.8,3.5-7.2,3.5c-4.8,0-7.2-3.4-7.2-6.8
			c0-5.7,5.1-8.8,14.2-8.8v-0.5c0-1.9-0.5-5.5-5.4-5.4c-2.2,0-4.5,0.6-6.2,1.7l-1-2.9c2-1.2,4.8-2,7.8-2c7.3,0,9,4.9,9,9.6V65.3z
			 M234.3,58.9c-4.7-0.1-10,0.7-10,5.3c0,2.8,1.8,4.1,4,4.1c3.1,0,5.1-2,5.8-3.9c0.1-0.4,0.2-0.9,0.2-1.4V58.9z"/>
		<path class="st1" d="M247.1,43.1c-1.6,0-2.7-1.3-2.7-2.8c0-1.5,1.1-2.7,2.8-2.7c1.7,0,2.7,1.2,2.7,2.7
			C250,41.8,248.9,43.1,247.1,43.1L247.1,43.1z M245.1,71V47.4h4.3V71H245.1z"/>
		<path class="st1" d="M256.2,36.4h4.3V71h-4.3V36.4z"/>
		<path class="st1" d="M284,65.3c0,2,0.1,4,0.3,5.6h-3.9l-0.4-3H280c-1.3,1.9-3.8,3.5-7.2,3.5c-4.8,0-7.2-3.4-7.2-6.8
			c0-5.7,5.1-8.8,14.2-8.8v-0.5c0-1.9-0.5-5.5-5.4-5.4c-2.2,0-4.5,0.6-6.2,1.7l-1-2.9c1.9-1.2,4.8-2,7.8-2c7.3,0,9,4.9,9,9.6V65.3z
			 M279.8,58.9c-4.7-0.1-10,0.7-10,5.3c0,2.8,1.9,4.1,4,4.1c3.1,0,5.1-2,5.8-3.9c0.1-0.4,0.2-0.9,0.2-1.4V58.9z"/>
		<path class="st1" d="M290.6,36.4h4.3v14.8h0.1c1.5-2.6,4.2-4.3,8-4.3c5.8,0,9.9,4.9,9.9,12c0,8.5-5.4,12.7-10.6,12.7
			c-3.4,0-6.1-1.3-7.9-4.4h-0.1l-0.2,3.9h-3.7c0.1-1.6,0.2-4,0.2-6.1V36.4z M294.9,61.5c0,0.5,0,1.1,0.2,1.6c0.8,3,3.4,5,6.4,5
			c4.5,0,7.2-3.7,7.2-9.1c0-4.8-2.4-8.8-7-8.8c-2.9,0-5.7,2-6.5,5.3c-0.1,0.5-0.2,1.1-0.2,1.8V61.5z"/>
		<path class="st1" d="M318.1,36.4h4.3V71h-4.3V36.4z"/>
		<path class="st1" d="M331.7,59.9c0.1,5.8,3.7,8.2,8,8.2c3.1,0,5-0.5,6.5-1.2l0.8,3c-1.5,0.7-4.1,1.5-7.9,1.5
			c-7.2,0-11.6-4.8-11.6-11.9c0-7.2,4.2-12.8,11.1-12.8c7.7,0,9.7,6.8,9.7,11.1c0,0.9,0,1.6-0.1,2L331.7,59.9z M344.2,56.9
			c0-2.7-1.1-7-5.9-7c-4.4,0-6.2,4-6.6,7H344.2z"/>
		<path class="st1" d="M373,71.5c-6.3,0-11.3-4.7-11.3-12.1c0-7.9,5.2-12.5,11.7-12.5c6.8,0,11.3,4.9,11.3,12.1
			C384.8,67.7,378.7,71.5,373,71.5L373,71.5z M373.2,68.3c4.1,0,7.2-3.8,7.2-9.2c0-4-2-9-7.1-9c-5,0-7.2,4.7-7.2,9.2
			C366.1,64.4,369,68.3,373.2,68.3L373.2,68.3z"/>
		<path class="st1" d="M389.9,53.8c0-2.5-0.1-4.4-0.2-6.4h3.8l0.2,3.8h0.1c1.2-2.2,3.9-4.4,7.8-4.4c3.3,0,8.3,1.9,8.3,10V71h-4.3
			V57.4c0-3.8-1.4-7-5.5-7c-2.8,0-5,2-5.7,4.4c-0.2,0.5-0.3,1.3-0.3,2V71h-4.3V53.8z"/>
		<path class="st1" d="M431.9,41.8v5.6h6.1v3.3h-6.1v12.7c0,2.9,0.8,4.6,3.2,4.6c1.2,0,1.9-0.1,2.5-0.3l0.2,3.3
			c-0.8,0.3-2.1,0.6-3.8,0.6c-2,0-3.6-0.7-4.6-1.8c-1.2-1.3-1.7-3.4-1.7-6.2V50.7h-3.6v-3.3h3.6v-4.3L431.9,41.8z"/>
		<path class="st1" d="M442.7,36.4h4.3v14.7h0.1c0.7-1.2,1.8-2.3,3.1-3c1.3-0.8,2.8-1.2,4.4-1.2c3.2,0,8.2,1.9,8.2,10.1v14h-4.3
			V57.4c0-3.8-1.4-7-5.5-7c-2.8,0-4.9,2-5.7,4.3c-0.2,0.6-0.3,1.2-0.3,2V71h-4.3V36.4z"/>
		<path class="st1" d="M471.9,59.9c0.1,5.8,3.7,8.2,8,8.2c3.1,0,5-0.5,6.5-1.2l0.8,3c-1.5,0.7-4.1,1.5-7.9,1.5
			c-7.2,0-11.6-4.8-11.6-11.9c0-7.2,4.2-12.8,11.1-12.8c7.7,0,9.7,6.8,9.7,11.1c0,0.9,0,1.6-0.1,2L471.9,59.9z M484.4,56.9
			c0-2.7-1.1-7-5.9-7c-4.4,0-6.2,4-6.6,7H484.4z"/>
		<path class="st1" d="M505.7,43.1c-1.6,0-2.7-1.3-2.7-2.8c0-1.5,1.1-2.7,2.8-2.7c1.7,0,2.7,1.2,2.7,2.7
			C508.5,41.8,507.5,43.1,505.7,43.1L505.7,43.1z M503.7,71V47.4h4.3V71H503.7z"/>
		<path class="st1" d="M514.9,38.6c2-0.4,4.7-0.7,8.1-0.7c4.2,0,7.3,1,9.2,2.7c1.8,1.6,2.9,3.9,2.9,6.9c0,3-0.9,5.3-2.6,7
			c-2.2,2.4-5.9,3.6-10,3.6c-1.3,0-2.4,0-3.4-0.3V71h-4.2V38.6z M519.2,54.4c0.9,0.2,2.1,0.3,3.5,0.3c5.2,0,8.2-2.5,8.2-7
			c0-4.4-3.1-6.5-7.7-6.5c-1.8,0-3.3,0.2-4,0.3V54.4z"/>
		<path class="st1" d="M540.2,36.4h4.3v14.7h0.1c0.7-1.2,1.8-2.3,3.1-3c1.3-0.8,2.8-1.2,4.4-1.2c3.2,0,8.2,1.9,8.2,10.1v14H556V57.4
			c0-3.8-1.4-7-5.5-7c-2.8,0-4.9,2-5.7,4.3c-0.2,0.6-0.3,1.2-0.3,2V71h-4.3V36.4z"/>
		<path class="st1" d="M576.6,71.5c-6.3,0-11.3-4.7-11.3-12.1c0-7.9,5.2-12.5,11.7-12.5c6.8,0,11.3,4.9,11.3,12.1
			C588.3,67.7,582.2,71.5,576.6,71.5L576.6,71.5z M576.7,68.3c4.1,0,7.2-3.8,7.2-9.2c0-4-2-9-7.1-9c-5,0-7.2,4.7-7.2,9.2
			C569.6,64.4,572.5,68.3,576.7,68.3L576.7,68.3z"/>
		<path class="st1" d="M593.5,53.8c0-2.5,0-4.4-0.2-6.4h3.8l0.2,3.8h0.1c1.2-2.2,3.9-4.4,7.8-4.4c3.3,0,8.3,1.9,8.3,10V71h-4.3V57.4
			c0-3.8-1.4-7-5.5-7c-2.8,0-5,2-5.7,4.4c-0.2,0.5-0.3,1.3-0.3,2V71h-4.3V53.8z"/>
		<path class="st1" d="M622.7,59.9c0.1,5.8,3.8,8.2,8,8.2c3.1,0,5-0.5,6.5-1.2l0.8,3c-1.5,0.7-4.1,1.5-7.9,1.5
			c-7.2,0-11.6-4.8-11.6-11.9c0-7.2,4.2-12.8,11.1-12.8c7.7,0,9.7,6.8,9.7,11.1c0,0.9,0,1.6-0.1,2L622.7,59.9z M635.2,56.9
			c0-2.7-1.1-7-5.9-7c-4.4,0-6.2,4-6.6,7H635.2z"/>
	</g>
	<g>
		<path class="st1" d="M197.2,93.2l-28.9,85h13.2l8.6-26.1h28l8.9,26.1h13.6l-29-85H197.2z M204,107.2c1,3.8,2,7.7,3.4,12l7.8,22.5
			H193l7.7-22.7C201.9,115.3,203,111.4,204,107.2z"/>
		<path class="st1" d="M277.9,115.2c-8.8,0-15.8,3.4-20.4,9.8l-0.5-8.5h-11.8l0.1,1.1c0.3,5.3,0.5,11.1,0.5,19.4v65.5h12.9V172
			c4,4.8,10.4,7.6,17.6,7.6c7.5,0,14.4-2.9,19.5-8.3c5.6-6,8.6-14.5,8.6-24.7c0-9-2.6-16.8-7.5-22.6
			C292,118.3,285.3,115.2,277.9,115.2z M274.7,125.9c11.5,0,16.6,10.6,16.6,21.1c0,13.6-6.5,22-17.1,22c-7.2,0-13.4-4.9-15.1-11.9
			c-0.3-1.1-0.5-2.5-0.5-4.2v-10.3c0-0.9,0.2-2.1,0.4-3.2c0.1-0.4,0.1-0.7,0.2-1C261.1,131,267.5,125.9,274.7,125.9z"/>
		<path class="st1" d="M344.1,115.2c-8.8,0-15.8,3.4-20.4,9.8l-0.5-8.5h-11.8l0.1,1.1c0.3,5.3,0.5,11.1,0.5,19.4v65.5h12.9V172
			c4,4.8,10.4,7.6,17.6,7.6c7.5,0,14.4-2.9,19.5-8.3c5.6-6,8.6-14.5,8.6-24.7c0-9-2.6-16.8-7.5-22.6
			C358.2,118.3,351.5,115.2,344.1,115.2z M340.9,125.9c11.5,0,16.6,10.6,16.6,21.1c0,13.6-6.5,22-17.1,22c-7.2,0-13.4-4.9-15.1-11.9
			c-0.3-1.1-0.5-2.5-0.5-4.2v-10.3c0-0.9,0.2-2.1,0.4-3.2c0.1-0.3,0.1-0.7,0.2-1C327.3,131,333.7,125.9,340.9,125.9z"/>
		<path class="st1" d="M427,129.2c-12-4.6-15.8-8.3-15.8-15.1c0-5.7,4.5-11.4,14.6-11.4c8.3,0,13.7,2.9,15.1,3.8l1.1,0.7l3.6-10.7
			l-0.7-0.4c-2.2-1.3-8.3-4.2-18.7-4.2c-16.4,0-27.8,9.7-27.8,23.5c0,11.2,7.2,19,22.6,24.6c10.9,4.1,15,8.3,15,15.4
			c0,8.1-6.3,13.1-16.3,13.1c-6.6,0-13.3-1.9-18.5-5.3l-1.1-0.7l-3.5,11l0.6,0.4c4.9,3.2,14,5.6,21.7,5.6c22.1,0,29.9-13.5,29.9-25
			C448.7,142.6,442.4,135.3,427,129.2z"/>
		<path class="st1" d="M471.9,101.9l-12.6,4v10.7H450v10.3h9.2v31.5c0,7.6,1.5,12.9,4.5,16.3c2.9,3.1,7.3,4.9,12.4,4.9
			c4.9,0,8.3-1,9.9-1.5l0.7-0.3l-0.6-10.3l-1.2,0.4c-1.6,0.5-3.3,0.7-6,0.7c-5,0-7.1-3.2-7.1-10.6v-31.1h15.5v-10.3h-15.5V101.9z"/>
		<path class="st1" d="M519.2,115.2c-18,0-30.6,13.4-30.6,32.6c0,18.6,12.2,31.7,29.6,31.7h0.1c14.7,0,30.6-10.3,30.6-32.8
			c0-9.2-2.8-17-8.2-22.7C535.3,118.3,527.9,115.2,519.2,115.2z M518.9,125.4c11.6,0,16.8,11.3,16.8,21.8c0,12.9-7.2,22.2-17.1,22.2
			h-0.1c-9.8,0-16.8-9.2-16.8-21.9C501.7,136.5,507,125.4,518.9,125.4z"/>
		<path class="st1" d="M588.3,115.8l-0.8-0.2c-1.1-0.3-2.1-0.4-3.2-0.4c-6.7,0-12.8,4-16.1,10.3l-0.4-9h-11.5l0.1,1.1
			c0.3,5.1,0.5,10.8,0.5,18.5l-0.1,42h12.9v-32.8c0-1.8,0.1-3.5,0.4-5c1.5-7.9,6.8-13,13.5-13c1.3,0,2.4,0.1,3.5,0.2l1.4,0.1V115.8z
			"/>
		<path class="st1" d="M617.2,115.1c-17.1,0-29.1,13.7-29.1,33.3c0,18.9,11.9,31,30.3,31c9.7,0,16.4-2.1,20.4-3.9l0.8-0.3l-2.5-9.6
			L636,166c-3.5,1.4-8.2,2.9-16.1,2.9c-5.6,0-18.5-1.8-19.3-18.6l41.5,0.1l0.2-0.8c0.3-1.3,0.4-3.1,0.4-5.4
			C642.7,130.8,636,115.1,617.2,115.1z M616.3,124.9c3.9,0,7.1,1.2,9.4,3.6c3.7,3.8,4.3,9.3,4.4,12h-29.3
			C602.1,133,606.7,124.9,616.3,124.9z"/>
	</g>
</g>
</svg>
