<?xml version="1.0" encoding="UTF-8" standalone="no"?>
<!-- Created with Inkscape (http://www.inkscape.org/) -->

<svg
   xmlns:dc="http://purl.org/dc/elements/1.1/"
   xmlns:cc="http://creativecommons.org/ns#"
   xmlns:rdf="http://www.w3.org/1999/02/22-rdf-syntax-ns#"
   xmlns:svg="http://www.w3.org/2000/svg"
   xmlns="http://www.w3.org/2000/svg"
   xmlns:sodipodi="http://sodipodi.sourceforge.net/DTD/sodipodi-0.dtd"
   xmlns:inkscape="http://www.inkscape.org/namespaces/inkscape"
   width="120.74574mm"
   height="120.22885mm"
   viewBox="0 0 427.83922 426.00774"
   id="svg2"
   version="1.1"
   inkscape:version="0.91 r13725"
   sodipodi:docname="architect-w.svg">
  <defs
     id="defs4" />
  <sodipodi:namedview
     id="base"
     pagecolor="#ffffff"
     bordercolor="#666666"
     borderopacity="1.0"
     inkscape:pageopacity="0.0"
     inkscape:pageshadow="2"
     inkscape:zoom="0.35"
     inkscape:cx="611.41066"
     inkscape:cy="368.8649"
     inkscape:document-units="px"
     inkscape:current-layer="layer1"
     showgrid="false"
     fit-margin-top="0"
     fit-margin-left="0"
     fit-margin-right="0"
     fit-margin-bottom="0"
     inkscape:window-width="1366"
     inkscape:window-height="705"
     inkscape:window-x="-8"
     inkscape:window-y="-8"
     inkscape:window-maximized="1" />
  <metadata
     id="metadata7">
    <rdf:RDF>
      <cc:Work
         rdf:about="">
        <dc:format>image/svg+xml</dc:format>
        <dc:type
           rdf:resource="http://purl.org/dc/dcmitype/StillImage" />
        <dc:title></dc:title>
      </cc:Work>
    </rdf:RDF>
  </metadata>
  <g
     inkscape:label="Layer 1"
     inkscape:groupmode="layer"
     id="layer1"
     transform="translate(699.26785,-475.21936)">
    <g
       id="g3487"
       transform="translate(-791.74485,292.13311)">
      <rect
         id="rect3427"
         height="548"
         width="486"
         display="none"
         y="135.5"
         x="66.5"
         style="display:none;fill:#9b3e3e" />
      <g
         id="g3429">
        <g
           id="g3431">
          <g
             id="g3433">
            <path
               id="path3435"
               d="m 126.938,561.421 c 66.915,0 132.394,0 198.448,0 0,15.221 0,29.868 0,45.95 -5.744,0 -11.2,0 -16.657,0 -58.012,0 -116.312,0 -174.324,0 -5.744,0 -8.041,-1.436 -7.754,-7.754 0.574,-12.636 0.287,-25.273 0.287,-38.196 z"
               inkscape:connector-curvature="0"
               style="fill:none" />
            <path
               id="path3437"
               d="m 134.404,609.094 c -2.872,0 -5.457,-0.287 -7.467,-2.297 -1.436,-1.436 -2.01,-3.734 -2.01,-7.467 0.287,-8.616 0.287,-17.519 0.287,-26.421 0,-3.733 0,-7.754 0,-11.488 0,-0.862 0.862,-1.723 1.723,-1.723 l 198.448,0 c 0.862,0 1.723,0.862 1.723,1.723 l 0,45.95 c 0,0.862 -0.862,1.723 -1.723,1.723 l -5.744,0 -50.545,0 c -44.227,0 -89.89,-0.287 -134.692,0 l 0,0 z m -5.743,-45.95 c 0,3.159 0,6.605 0,9.764 0,9.19 0,17.806 -0.287,26.709 0,2.585 0.287,4.308 0.862,4.882 0.862,0.862 2.298,1.149 4.882,1.149 44.802,-0.287 90.465,0 134.692,0 l 50.545,0 4.021,0 0,-42.504 -194.715,0 0,0 z"
               inkscape:connector-curvature="0"
               style="fill:#ffffff" />
          </g>
          <g
             id="g3439">
            <path
               id="path3441"
               d="m 257.034,250.97 c 61.171,0 139.287,0 200.171,0 0,-0.574 0.287,-0.862 0.287,-1.436 -66.341,-19.529 -132.969,-38.771 -200.458,-58.587 0,123.491 0,246.408 0,369.612 -21.826,0 -43.078,0 -64.905,0 0,-2.585 0,-5.169 0,-7.467 0,-82.136 0,-164.272 0,-246.408 0,-7.18 0,-7.18 -7.18,-7.18 -26.134,0 -52.268,0 -78.403,0 -4.021,0 -8.041,0 -12.349,0 -0.287,-1.723 -0.574,-2.872 -0.574,-4.021 0,-13.498 -0.287,-26.709 0,-40.206 0,-2.298 1.436,-5.169 3.159,-6.318 31.304,-20.678 62.033,-41.355 93.049,-61.458 6.318,-4.021 14.359,-3.159 21.252,-0.287 7.18,2.872 14.359,6.893 21.252,10.626 2.585,1.149 4.882,2.298 8.328,4.021 0,-5.744 0,-10.339 0,-16.657 6.893,0.574 13.785,0 19.529,1.723 59.735,16.657 119.184,33.888 178.919,50.832 14.072,4.021 28.145,7.754 42.217,12.062 2.585,0.862 5.457,2.585 6.893,4.882 9.19,13.211 18.093,26.996 26.996,40.494 0.862,1.149 1.436,2.298 2.585,4.308 -13.785,0 -26.996,0 -40.781,0 0,25.847 0,51.12 0,76.392 -5.457,0 -10.339,0 -15.795,0 0,-2.01 -0.287,-4.021 -0.287,-6.031 0,-21.539 0,-43.078 0,-64.618 0,-4.595 -1.149,-6.318 -6.031,-6.031 -4.021,0.287 -8.041,0 -12.923,0 0,25.847 0,51.12 0,76.679 -5.744,0 -10.626,0 -16.083,0 0,-25.273 0,-50.545 0,-76.679 -51.12,0 -117.748,0 -168.293,0 M 191.842,191.809 c -29.58,19.816 -58.299,38.771 -88.167,58.587 30.442,0 59.161,0 88.167,0 0,-19.53 0,-38.197 0,-58.587 z m 16.083,221.997 c 0,5.744 0,10.339 0,14.934 0,0.862 0.574,2.298 1.436,2.585 10.339,5.169 20.39,10.339 31.591,16.083 0,-5.457 0,-10.052 0,-14.647 0,-1.149 -1.149,-2.585 -2.01,-3.159 -9.765,-5.17 -19.817,-10.052 -31.017,-15.796 z M 240.09,299.504 c 3.159,-13.498 2.01,-15.795 -9.19,-21.539 -2.298,-1.149 -4.595,-2.298 -7.18,-3.446 -4.882,-2.298 -10.052,-4.882 -15.795,-7.754 0,5.457 0,10.052 0,14.647 0,0.862 0.862,2.297 1.723,2.872 10.339,5.169 20.39,10.338 30.442,15.22 z m 0.574,-48.534 c 0.287,-2.298 0.287,-3.159 0.287,-4.308 0.287,-12.349 0.287,-12.349 -10.626,-17.806 -7.18,-3.446 -14.359,-7.18 -22.401,-11.2 0,5.744 0,10.052 0,14.647 0,1.149 0.862,2.298 1.723,2.872 10.053,5.169 20.104,10.338 31.017,15.795 z m 0.288,245.259 c 0,-4.882 -0.287,-8.616 0,-12.349 0.287,-3.159 -0.862,-5.169 -4.021,-6.318 -7.754,-3.733 -15.508,-7.754 -22.975,-11.488 -1.723,-0.862 -3.733,-1.723 -6.031,-2.585 0,5.169 -0.287,9.477 0,13.785 0,1.436 0.862,3.159 2.01,3.733 10.052,4.883 20.103,9.765 31.017,15.222 z M 207.925,364.984 c 0,5.744 0,10.052 0,14.647 0,0.862 0.574,2.298 1.149,2.585 10.339,5.169 20.678,10.339 31.591,16.083 0,-5.457 0.287,-10.052 0,-14.647 0,-1.149 -1.436,-2.872 -2.585,-3.446 -9.477,-5.171 -19.242,-9.766 -30.155,-15.222 z m 33.027,-15.796 c 0,-4.021 -0.287,-6.893 0,-9.764 0.862,-5.744 -1.723,-8.616 -6.605,-10.626 -6.605,-2.585 -12.636,-6.031 -18.954,-9.19 -2.298,-1.149 -4.595,-2.01 -7.467,-3.446 0,5.457 0,9.764 0,14.072 0,1.149 0.862,2.872 2.01,3.446 10.051,4.882 20.102,10.052 31.016,15.508 z m -0.575,195.863 c 0.287,-1.149 0.574,-1.436 0.574,-1.723 1.149,-14.072 1.149,-14.072 -11.488,-20.678 -6.893,-3.446 -13.785,-6.605 -21.252,-10.626 0,5.457 -0.287,10.052 0,14.647 0,1.149 1.149,2.585 2.298,3.159 9.478,5.17 19.529,10.052 29.868,15.221 z"
               inkscape:connector-curvature="0"
               style="fill:none" />
            <path
               id="path3443"
               d="m 257.034,562.57 -64.904,0 c -0.862,0 -1.723,-0.862 -1.723,-1.723 l 0,-253.876 c 0,-2.298 0,-4.595 -0.287,-5.169 -0.287,-0.287 -2.872,-0.287 -4.882,-0.287 -17.806,0 -35.899,0 -53.704,0 l -36.76,0 c -0.862,0 -1.723,-0.574 -1.723,-1.436 0,-0.574 -0.287,-1.149 -0.287,-1.723 -0.287,-0.862 -0.287,-1.723 -0.287,-2.872 l 0,-8.041 c 0,-10.626 0,-21.539 0.287,-32.165 0,-2.872 1.723,-6.318 4.021,-7.754 32.452,-22.114 62.033,-41.93 92.188,-61.458 7.754,-4.882 16.657,-2.872 22.975,-0.287 5.169,2.01 10.052,4.595 14.934,7.18 2.298,1.149 4.308,2.298 6.605,3.446 1.723,0.862 3.446,1.723 5.169,2.585 l 0.574,0.287 0,-14.072 c 0,-0.574 0.287,-0.862 0.574,-1.149 0.287,-0.287 0.862,-0.574 1.436,-0.574 2.298,0.287 4.308,0.287 6.605,0.287 4.595,0 9.19,0.287 13.498,1.436 46.237,12.924 93.049,26.421 138.425,39.345 l 40.494,11.488 c 4.021,1.149 7.754,2.298 11.775,3.446 10.052,2.872 20.39,5.744 30.442,8.903 3.159,0.862 6.031,3.159 7.754,5.744 7.18,10.339 14.359,21.252 21.252,31.591 l 6.031,8.903 c 0.574,0.862 0.862,1.436 1.436,2.585 0.287,0.574 0.574,1.149 1.149,2.01 0.287,0.574 0.287,1.149 0,1.723 -0.287,0.574 -0.862,0.862 -1.436,0.862 l -39.058,0 0,74.669 c 0,0.862 -0.862,1.723 -1.723,1.723 l -15.795,0 c -0.862,0 -1.723,-0.862 -1.723,-1.723 0,-0.574 0,-1.149 0,-1.723 0,-1.436 -0.287,-2.872 -0.287,-4.308 l 0,-12.923 c 0,-16.944 0,-34.463 0,-51.694 0,-2.01 -0.287,-3.159 -0.862,-3.733 -0.574,-0.574 -1.723,-0.574 -3.159,-0.574 -2.872,0.287 -5.744,0.287 -8.616,0 -0.862,0 -1.723,0 -2.585,0 l 0,74.956 c 0,0.862 -0.862,1.723 -1.723,1.723 l -16.084,0 c -0.862,0 -1.723,-0.862 -1.723,-1.723 l 0,-75.244 -166.57,0 0,259.332 c 0,1.145 -0.574,2.007 -1.723,2.007 z m -63.181,-3.734 61.458,0 0,-307.58 0,-0.287 0,-0.287 0,-59.735 c 0,-0.574 0.287,-1.149 0.574,-1.436 0.574,-0.287 1.149,-0.574 1.436,-0.287 l 200.458,58.587 c 0.862,0.287 1.436,1.149 1.149,2.01 l -0.287,1.436 c -0.287,0.862 -0.862,1.436 -1.723,1.436 l -198.16,0 0,45.089 167.718,0 c 0.862,0 1.723,0.862 1.723,1.723 l 0,74.956 12.636,0 0,-74.956 c 0,-0.862 0.862,-1.723 1.723,-1.723 1.436,0 2.872,0 4.308,0 2.872,0 5.744,0 8.328,0 1.723,-0.287 4.308,-0.287 6.031,1.436 1.723,1.723 2.01,4.308 2.01,6.318 -0.287,17.231 -0.287,34.75 0,51.694 l 0,12.923 c 0,1.436 0,2.872 0.287,4.021 l 0,0.287 12.349,0 0,-74.669 c 0,-0.862 0.862,-1.723 1.723,-1.723 l 37.622,0 c -0.287,-0.574 -0.574,-1.149 -1.149,-1.723 l -6.031,-8.903 c -6.893,-10.339 -14.072,-20.965 -21.252,-31.304 -1.149,-1.723 -3.733,-3.446 -6.031,-4.308 -10.052,-3.159 -20.39,-6.031 -30.442,-8.903 -4.021,-1.149 -7.754,-2.298 -11.775,-3.446 l -40.494,-11.488 c -44.802,-13.211 -91.901,-26.421 -138.138,-39.345 -3.733,-1.149 -8.041,-1.149 -12.636,-1.436 -1.723,0 -3.159,0 -4.882,-0.287 l 0,14.647 c 0,0.574 -0.287,1.149 -0.862,1.436 -0.574,0.287 -1.149,0.287 -1.723,0 l -2.872,-1.436 c -2.01,-0.862 -3.733,-1.723 -5.457,-2.585 -2.298,-1.149 -4.595,-2.298 -6.605,-3.446 -4.595,-2.585 -9.477,-4.882 -14.647,-7.18 -5.457,-2.298 -13.211,-4.021 -19.816,0 -29.58,20.103 -59.161,39.919 -92.188,62.033 -1.149,0.862 -2.298,3.159 -2.585,4.882 -0.287,10.626 -0.287,21.539 -0.287,32.165 l 0,8.041 c 0,0.574 0,1.436 0.287,2.298 0,0 0,0 0,0.287 l 35.324,0 c 17.806,0 35.899,0 53.704,0 8.041,0 8.903,0.862 8.903,8.903 l 0.291,251.865 z m 64.904,-309.59 191.268,0 -191.268,-55.715 0,55.715 z m -18.38,297.528 c -0.287,0 -0.574,0 -0.862,-0.287 l -6.605,-3.159 c -8.041,-4.021 -15.795,-7.754 -23.262,-11.775 -1.723,-0.862 -3.159,-2.872 -3.159,-4.595 -0.287,-3.159 -0.287,-6.605 0,-10.339 0,-1.436 0,-2.872 0,-4.595 0,-0.574 0.287,-1.149 0.862,-1.436 0.574,-0.287 1.149,-0.287 1.723,0 l 6.605,3.159 c 5.169,2.585 10.052,4.882 14.647,7.18 13.211,6.605 13.785,7.18 12.636,22.114 0,0.574 -0.287,0.862 -0.287,1.436 0,0.287 -0.287,0.574 -0.287,0.862 -0.287,0.574 -0.574,0.862 -0.862,0.862 -0.862,0.573 -1.149,0.573 -1.149,0.573 z m -30.729,-31.878 c 0,0.574 0,1.149 0,1.723 0,3.733 0,6.893 0,10.052 0,0.574 0.574,1.436 1.149,1.723 7.754,4.021 15.221,7.754 23.262,11.775 l 4.882,2.297 c 0.862,-12.349 0.862,-12.636 -10.626,-18.38 -4.882,-2.298 -9.477,-4.882 -14.647,-7.18 l -4.02,-2.01 z m 31.304,-16.944 c -0.287,0 -0.574,0 -0.862,-0.287 l -7.754,-3.733 c -8.041,-4.021 -15.795,-7.754 -23.262,-11.775 -1.723,-0.862 -2.872,-3.446 -2.872,-5.169 -0.287,-3.159 -0.287,-6.031 0,-9.477 0,-1.436 0,-2.872 0,-4.308 0,-0.574 0.287,-1.149 0.862,-1.436 0.574,-0.287 1.149,-0.287 1.723,0 0.862,0.287 1.723,0.574 2.298,0.862 1.436,0.574 2.585,1.149 4.021,1.723 2.585,1.436 5.169,2.585 7.754,4.021 4.882,2.585 10.052,5.169 15.221,7.467 3.733,1.723 5.169,4.308 4.882,8.041 -0.287,2.585 -0.287,4.882 0,8.041 0,1.436 0,2.872 0,4.308 0,0.574 -0.287,1.149 -0.862,1.436 -0.288,0.286 -0.575,0.286 -1.149,0.286 z m -31.304,-32.165 c 0,0.574 0,1.149 0,1.723 0,3.446 0,6.318 0,9.19 0,0.862 0.862,2.01 1.149,2.298 7.467,4.021 15.221,7.754 23.262,11.775 l 5.169,2.585 c 0,-0.574 0,-0.862 0,-1.436 0,-2.872 0,-5.457 0,-8.328 0.287,-2.585 -0.574,-3.733 -2.872,-4.882 -5.169,-2.298 -10.339,-5.169 -15.221,-7.467 -2.585,-1.436 -5.169,-2.585 -7.754,-4.021 -1.148,-0.288 -2.297,-0.863 -3.733,-1.437 z m 31.304,-16.944 c -0.287,0 -0.574,0 -0.862,-0.287 l -6.605,-3.446 c -8.616,-4.308 -16.944,-8.328 -24.985,-12.636 -1.436,-0.574 -2.298,-2.585 -2.298,-4.021 0,-3.446 0,-6.605 0,-10.339 l 0,-4.595 c 0,-0.574 0.287,-1.149 0.862,-1.436 0.574,-0.287 1.149,-0.287 1.723,0 l 7.467,3.733 c 8.041,4.021 15.795,8.041 23.549,11.775 1.436,0.862 2.872,2.872 2.872,4.595 0.287,3.159 0.287,6.605 0,10.339 0,1.436 0,2.872 0,4.308 0,0.574 -0.287,1.149 -0.862,1.436 -0.287,0.574 -0.574,0.574 -0.861,0.574 z m -31.304,-32.165 0,1.723 c 0,3.733 0,7.18 0,10.339 0,0.287 0.287,0.862 0.574,1.149 8.041,4.021 16.37,8.328 24.985,12.636 l 4.021,2.01 c 0,-0.574 0,-1.149 0,-1.723 0,-3.733 0,-6.893 0,-10.052 0,-0.574 -0.574,-1.436 -1.149,-1.723 -7.467,-4.021 -15.221,-7.754 -23.549,-11.775 l -4.882,-2.584 z m 31.304,-16.657 c -0.287,0 -0.574,0 -0.862,-0.287 l -6.031,-2.872 c -8.903,-4.595 -17.231,-8.616 -25.847,-13.211 -1.436,-0.862 -2.298,-2.872 -2.298,-4.021 0,-3.446 0,-6.605 0,-10.339 l 0,-4.308 c 0,-0.574 0.287,-1.149 0.862,-1.436 0.574,-0.287 1.149,-0.287 1.723,0 l 7.467,3.733 c 8.041,4.021 15.508,7.754 22.975,11.488 1.436,0.862 3.446,2.872 3.446,4.882 0.287,3.159 0.287,6.605 0.287,10.339 0,1.436 0,2.872 0,4.595 0,0.574 -0.287,1.149 -0.862,1.436 -0.286,-0.287 -0.573,0.001 -0.86,0.001 z m -31.304,-32.453 0,1.436 c 0,3.733 0,6.893 0,10.339 0,0.287 0.287,1.149 0.574,1.149 8.328,4.308 16.657,8.616 25.56,12.923 l 3.446,1.723 c 0,-0.574 0,-1.149 0,-1.723 0,-3.733 0,-6.893 -0.287,-10.052 0,-0.574 -0.862,-1.723 -1.436,-2.01 -7.467,-3.733 -14.934,-7.754 -22.975,-11.488 l -4.882,-2.297 z m 31.304,-16.657 c -0.287,0 -0.574,0 -0.862,-0.287 l -6.893,-3.446 c -8.328,-4.308 -16.37,-8.041 -24.124,-12.062 -1.723,-0.862 -2.872,-3.159 -2.872,-4.882 -0.287,-3.159 0,-6.318 0,-9.764 0,-1.436 0,-2.872 0,-4.308 0,-0.574 0.287,-1.149 0.862,-1.436 0.574,-0.287 1.149,-0.287 1.723,0 l 2.872,1.149 c 1.723,0.862 3.159,1.436 4.882,2.297 2.01,1.149 4.021,2.01 6.031,3.159 4.021,2.01 8.328,4.308 12.636,6.031 4.308,1.723 8.903,4.882 7.754,12.349 -0.287,1.723 -0.287,3.446 0,5.457 0,1.149 0,2.298 0,3.733 0,0.574 -0.287,1.149 -0.862,1.436 -0.286,0.574 -0.86,0.574 -1.147,0.574 z m -31.304,-32.165 c 0,0.574 0,1.149 0,1.723 0,3.446 0,6.605 0,9.764 0,0.574 0.574,1.723 1.149,1.723 7.754,4.021 15.795,8.041 24.124,12.062 l 4.308,2.01 c 0,-0.287 0,-0.574 0,-0.862 0,-2.298 0,-4.308 0.287,-6.318 0.574,-4.308 -0.862,-6.605 -5.744,-8.616 -4.308,-1.723 -8.616,-4.021 -12.924,-6.318 -2.01,-1.149 -4.021,-2.01 -6.031,-3.159 -1.723,-0.286 -3.159,-1.147 -5.169,-2.009 l 0,0 z m 30.442,-17.231 c -0.287,0 -0.574,0 -0.862,-0.287 l -6.318,-3.159 c -8.041,-4.021 -16.083,-8.041 -23.837,-12.062 -1.436,-0.862 -2.585,-2.585 -2.872,-4.308 0,-3.446 0,-6.605 0,-10.339 0,-1.436 0,-2.872 0,-4.308 0,-0.574 0.287,-1.149 0.862,-1.436 0.574,-0.287 1.149,-0.287 1.723,0 l 4.595,2.297 c 4.021,2.01 7.467,3.733 11.2,5.457 1.436,0.574 2.585,1.436 4.021,2.01 l 3.159,1.436 c 12.062,6.031 13.498,9.19 10.339,23.55 0,0.574 -0.574,0.862 -0.862,1.149 -0.574,-0.287 -0.861,0 -1.148,0 z m -30.155,-31.878 c 0,0.574 0,1.149 0,1.723 0,3.733 0,6.893 0,10.052 0,0.287 0.574,1.149 0.862,1.436 8.041,4.021 15.795,8.041 23.837,12.062 l 4.308,2.01 c 2.298,-10.626 1.149,-12.349 -8.903,-17.231 l -3.159,-1.436 c -1.436,-0.574 -2.585,-1.436 -4.021,-2.01 -3.733,-1.723 -7.18,-3.446 -11.2,-5.457 l -1.724,-1.149 z m 30.729,-16.944 c -0.287,0 -0.574,0 -0.862,-0.287 l -6.031,-3.159 c -8.616,-4.308 -16.657,-8.328 -24.698,-12.636 -1.436,-0.862 -2.585,-2.585 -2.585,-4.308 0,-3.159 0,-6.605 0,-10.339 0,-1.436 0,-2.872 0,-4.595 0,-0.574 0.287,-1.149 0.862,-1.436 0.574,-0.287 1.149,-0.287 1.723,0 l 8.328,4.021 c 4.882,2.585 9.764,4.882 14.359,7.18 11.488,5.744 12.062,6.605 11.488,19.242 0,0.574 0,1.436 -0.287,2.298 l -0.287,2.01 c 0,0.574 -0.287,1.149 -0.862,1.436 -0.573,0.285 -0.86,0.573 -1.148,0.573 z m -31.016,-32.166 c 0,0.574 0,1.149 0,1.723 0,3.733 0,6.893 0,10.052 0,0.287 0.574,1.149 0.862,1.436 8.041,4.021 16.083,8.328 24.698,12.349 l 3.733,2.01 c 0,-0.574 0,-1.149 0,-1.436 0.287,-11.2 0.287,-11.2 -9.477,-16.083 -4.595,-2.298 -9.477,-4.595 -14.359,-7.18 l -5.457,-2.871 z m -17.806,31.591 -88.167,0 c -0.862,0 -1.436,-0.574 -1.723,-1.149 -0.287,-0.862 0,-1.436 0.574,-2.01 l 88.454,-58.587 c 0.574,-0.287 1.149,-0.287 1.723,0 0.574,0.287 0.862,0.862 0.862,1.436 l 0,58.587 c 0,1.149 -0.861,1.723 -1.723,1.723 z m -82.423,-3.446 80.7,0 0,-53.417 -80.7,53.417 z"
               inkscape:connector-curvature="0"
               style="fill:#ffffff" />
          </g>
          <g
             id="g3445">
            <path
               id="path3447"
               d="m 454.333,372.163 c 9.477,0 18.667,0 28.145,0 12.062,0.287 15.508,6.893 9.477,16.944 -9.19,14.934 -18.667,29.293 -27.283,44.514 -2.298,3.733 -1.723,9.477 -1.723,14.072 0,1.149 2.872,2.585 4.595,3.733 14.359,8.041 18.954,25.56 10.626,39.058 -8.328,13.785 -26.421,17.519 -39.632,8.328 -7.467,-5.169 -11.2,-12.349 -12.062,-21.252 -0.287,-5.457 2.585,-8.903 7.18,-9.477 4.595,-0.287 7.754,2.585 8.616,8.041 1.149,7.18 5.169,11.488 11.2,12.062 5.744,0.574 10.913,-3.446 12.349,-9.477 1.436,-6.031 -1.436,-10.913 -8.041,-14.072 -7.467,-3.446 -11.488,-9.477 -11.2,-17.519 0.287,-7.18 -1.723,-13.211 -5.744,-19.242 -7.754,-11.775 -14.934,-23.837 -22.401,-35.611 -0.862,-1.436 -2.01,-2.872 -2.585,-4.595 -4.308,-8.328 -1.149,-14.359 8.328,-14.934 7.18,-0.574 14.359,-0.287 21.539,-0.287 2.585,-0.286 5.457,-0.286 8.616,-0.286 l 0,0 z"
               inkscape:connector-curvature="0"
               style="fill:none" />
            <path
               id="path3449"
               d="m 454.046,505.706 c -6.031,0 -11.775,-1.723 -16.944,-5.169 -7.754,-5.457 -12.062,-12.923 -12.636,-22.688 -0.574,-6.031 3.159,-10.913 8.616,-11.2 5.457,-0.574 9.764,3.159 10.626,9.477 0.862,6.318 4.308,10.052 9.764,10.339 4.882,0.287 9.19,-2.872 10.626,-8.041 1.149,-5.169 -1.149,-9.19 -7.18,-12.062 -8.328,-4.021 -12.636,-10.913 -12.062,-19.242 0.287,-6.318 -1.436,-11.775 -5.457,-18.093 -5.744,-8.328 -10.913,-17.231 -16.37,-25.56 -2.01,-3.446 -4.308,-6.605 -6.318,-10.052 l -0.287,-0.862 c -0.862,-1.436 -1.723,-2.872 -2.585,-4.308 -2.298,-4.595 -2.872,-8.903 -0.862,-12.062 1.149,-2.298 4.021,-5.169 10.626,-5.457 5.169,-0.287 10.339,-0.287 15.221,-0.287 2.298,0 4.308,0 6.605,0 2.01,0 4.021,0 6.318,0 l 2.872,0 0.287,0 c 2.872,0 5.457,0 8.328,0 6.318,0 12.924,0 19.529,0 8.328,0 11.775,3.159 12.924,5.744 1.436,2.585 2.01,6.893 -2.01,13.785 -3.159,5.457 -6.605,10.626 -10.052,16.083 -5.744,9.19 -11.775,18.954 -17.519,28.432 -1.723,2.872 -1.723,7.18 -1.723,11.488 l 0,1.723 c 0.574,0.574 2.298,1.436 3.159,2.01 l 0.574,0.287 c 7.467,4.021 12.636,10.913 14.647,18.667 2.01,7.754 0.862,15.795 -3.446,22.975 -4.308,6.893 -10.913,11.775 -18.954,13.498 -2.009,0.288 -4.307,0.575 -6.317,0.575 z m -20.103,-35.898 c -0.287,0 -0.287,0 -0.574,0 -3.733,0.287 -5.744,3.159 -5.457,7.467 0.574,8.616 4.308,15.221 11.2,20.103 6.031,4.308 13.211,5.744 20.39,4.021 7.18,-1.436 12.924,-5.744 16.657,-12.062 3.733,-6.031 4.882,-13.211 2.872,-20.103 -1.723,-7.18 -6.605,-12.923 -12.923,-16.657 l -0.574,-0.287 c -2.298,-1.436 -4.882,-2.585 -4.882,-4.882 l 0,-1.723 c 0,-4.308 0,-9.477 2.01,-13.211 5.457,-9.764 11.488,-19.242 17.519,-28.719 3.446,-5.169 6.605,-10.626 10.052,-16.083 2.585,-4.308 3.446,-8.041 2.01,-10.339 -1.436,-2.298 -4.882,-3.733 -10.052,-3.733 -6.605,0 -13.211,0 -19.529,0 -2.872,0 -5.744,0 -8.616,0 l -0.287,0 -2.585,0 c -2.01,0 -4.021,0 -6.031,0 -2.298,0 -4.308,0 -6.605,0 -4.882,0 -10.052,0 -14.934,0.287 -4.021,0.287 -6.605,1.436 -7.754,3.733 -1.149,2.298 -0.862,5.169 0.862,8.903 0.862,1.436 1.723,2.872 2.298,4.021 l 0.287,0.287 c 2.01,3.446 4.308,6.605 6.318,10.052 5.169,8.328 10.626,17.231 16.083,25.56 4.595,6.893 6.318,12.924 6.031,20.103 -0.287,7.18 3.159,12.636 10.052,16.083 7.467,3.733 10.626,9.477 9.19,16.083 -1.723,6.893 -7.467,11.2 -14.072,10.626 -6.893,-0.574 -11.775,-5.457 -12.924,-13.498 -0.288,-3.448 -2.586,-6.032 -6.032,-6.032 z m 30.155,-22.114 0,0 0,0 z"
               inkscape:connector-curvature="0"
               style="fill:#ffffff" />
          </g>
        </g>
        <g
           id="g3451">
          <path
             id="path3453"
             d="m 412.116,263.606 -19.242,0 c -0.574,0 -1.149,-0.574 -1.149,-1.149 0,-0.575 0.574,-1.149 1.149,-1.149 l 19.242,0 c 0.574,0 1.149,0.574 1.149,1.149 0,0.575 -0.574,1.149 -1.149,1.149 z"
             inkscape:connector-curvature="0"
             style="fill:#ffffff" />
        </g>
        <g
           id="g3455">
          <path
             id="path3457"
             d="m 374.782,263.606 -88.742,0 c -0.574,0 -1.149,-0.574 -1.149,-1.149 0,-0.575 0.574,-1.149 1.149,-1.149 l 88.741,0 c 0.574,0 1.149,0.574 1.149,1.149 0,0.575 -0.287,1.149 -1.148,1.149 z"
             inkscape:connector-curvature="0"
             style="fill:#ffffff" />
        </g>
        <g
           id="g3459">
          <path
             id="path3461"
             d="m 182.652,259.872 -62.607,0 c -0.574,0 -1.149,-0.574 -1.149,-1.149 0,-0.575 0.574,-1.149 1.149,-1.149 l 62.607,0 c 0.574,0 1.149,0.574 1.149,1.149 0,0.575 -0.287,1.149 -1.149,1.149 z"
             inkscape:connector-curvature="0"
             style="fill:#ffffff" />
        </g>
        <g
           id="g3463">
          <path
             id="path3465"
             d="m 253.875,599.904 -118.035,0 c -0.574,0 -1.149,-0.574 -1.149,-1.149 l 0,-16.083 c 0,-0.574 0.574,-1.149 1.149,-1.149 0.574,0 1.149,0.574 1.149,1.149 l 0,14.934 116.886,0 c 0.574,0 1.149,0.574 1.149,1.149 0,0.575 -0.287,1.149 -1.149,1.149 z"
             inkscape:connector-curvature="0"
             style="fill:#ffffff" />
        </g>
        <g
           id="g3467">
          <line
             id="line3469"
             y2="272.22198"
             x2="191.842"
             y1="303.81201"
             x1="191.842"
             style="fill:none" />
          <path
             id="path3471"
             d="m 191.842,305.535 c -0.862,0 -1.723,-0.862 -1.723,-1.723 l 0,-31.591 c 0,-0.862 0.862,-1.723 1.723,-1.723 0.861,0 1.723,0.862 1.723,1.723 l 0,31.591 c 0.288,0.862 -0.574,1.723 -1.723,1.723 z"
             inkscape:connector-curvature="0"
             style="fill:#ffffff" />
        </g>
        <g
           id="g3473">
          <path
             id="path3475"
             d="m 445.43,424.145 c -0.287,0 -0.862,-0.287 -0.862,-0.574 l -5.744,-8.903 c -0.287,-0.574 -0.287,-1.149 0.287,-1.723 0.574,-0.287 1.149,-0.287 1.723,0.287 l 5.744,8.903 c 0.287,0.574 0.287,1.149 -0.287,1.723 -0.574,0.287 -0.861,0.287 -0.861,0.287 z"
             inkscape:connector-curvature="0"
             style="fill:#ffffff" />
        </g>
        <g
           id="g3477">
          <path
             id="path3479"
             d="m 436.527,410.359 c -0.287,0 -0.862,-0.287 -0.862,-0.574 l -12.349,-19.242 c -2.298,-3.446 -3.159,-6.605 -2.298,-9.19 1.436,-3.159 5.169,-4.021 5.169,-4.021 l 0.287,0 16.657,0 c 0.574,0 1.149,0.574 1.149,1.149 0,0.574 -0.574,1.149 -1.149,1.149 l -16.37,0 c -0.574,0 -2.872,0.862 -3.446,2.585 -0.574,1.723 0,4.021 2.01,6.893 l 12.349,19.242 c 0.287,0.574 0.287,1.149 -0.287,1.723 -0.572,0.286 -0.572,0.286 -0.86,0.286 z"
             inkscape:connector-curvature="0"
             style="fill:#ffffff" />
        </g>
      </g>
    </g>
  </g>
</svg>
