<?xml version="1.0" encoding="utf-8"?>
<!-- Generator: Adobe Illustrator 19.2.0, SVG Export Plug-In . SVG Version: 6.00 Build 0)  -->
<svg version="1.1" id="Layer_1" xmlns="http://www.w3.org/2000/svg" xmlns:xlink="http://www.w3.org/1999/xlink" x="0px" y="0px"
	 viewBox="0 0 213.1 148.4" style="enable-background:new 0 0 213.1 148.4;" xml:space="preserve">
<style type="text/css">
	.st0{fill-rule:evenodd;clip-rule:evenodd;fill:#FFFFFF;}
	.st1{fill:#0C0C0C;}
</style>
<g>
	<g>
		<g>
			<path class="st0" d="M44.2,131.8c23.3,0,46.1,0,69.1,0c0,5.3,0,10.4,0,16c-2,0-3.9,0-5.8,0c-20.2,0-40.5,0-60.7,0
				c-2,0-2.8-0.5-2.7-2.7C44.3,140.7,44.2,136.3,44.2,131.8z"/>
			<path class="st1" d="M46.8,148.4c-1,0-1.9-0.1-2.6-0.8c-0.5-0.5-0.7-1.3-0.7-2.6c0.1-3,0.1-6.1,0.1-9.2c0-1.3,0-2.7,0-4
				c0-0.3,0.3-0.6,0.6-0.6h69.1c0.3,0,0.6,0.3,0.6,0.6v16c0,0.3-0.3,0.6-0.6,0.6l-2,0l-17.6,0C78.3,148.4,62.4,148.3,46.8,148.4
				C46.8,148.4,46.8,148.4,46.8,148.4z M44.8,132.4c0,1.1,0,2.3,0,3.4c0,3.2,0,6.2-0.1,9.3c0,0.9,0.1,1.5,0.3,1.7
				c0.3,0.3,0.8,0.4,1.7,0.4c15.6-0.1,31.5,0,46.9,0l17.6,0l1.4,0v-14.8H44.8z"/>
		</g>
		<g>
			<path class="st0" d="M89.5,23.7c21.3,0,48.5,0,69.7,0c0-0.2,0.1-0.3,0.1-0.5c-23.1-6.8-46.3-13.5-69.8-20.4c0,43,0,85.8,0,128.7
				c-7.6,0-15,0-22.6,0c0-0.9,0-1.8,0-2.6c0-28.6,0-57.2,0-85.8c0-2.5,0-2.5-2.5-2.5c-9.1,0-18.2,0-27.3,0c-1.4,0-2.8,0-4.3,0
				c-0.1-0.6-0.2-1-0.2-1.4c0-4.7-0.1-9.3,0-14c0-0.8,0.5-1.8,1.1-2.2C44.6,15.8,55.3,8.6,66.1,1.6c2.2-1.4,5-1.1,7.4-0.1
				c2.5,1,5,2.4,7.4,3.7c0.9,0.4,1.7,0.8,2.9,1.4c0-2,0-3.6,0-5.8c2.4,0.2,4.8,0,6.8,0.6c20.8,5.8,41.5,11.8,62.3,17.7
				c4.9,1.4,9.8,2.7,14.7,4.2c0.9,0.3,1.9,0.9,2.4,1.7c3.2,4.6,6.3,9.4,9.4,14.1c0.3,0.4,0.5,0.8,0.9,1.5c-4.8,0-9.4,0-14.2,0
				c0,9,0,17.8,0,26.6c-1.9,0-3.6,0-5.5,0c0-0.7-0.1-1.4-0.1-2.1c0-7.5,0-15,0-22.5c0-1.6-0.4-2.2-2.1-2.1c-1.4,0.1-2.8,0-4.5,0
				c0,9,0,17.8,0,26.7c-2,0-3.7,0-5.6,0c0-8.8,0-17.6,0-26.7c-17.8,0-41,0-58.6,0 M66.8,3.1C56.5,10,46.5,16.6,36.1,23.5
				c10.6,0,20.6,0,30.7,0C66.8,16.7,66.8,10.2,66.8,3.1z M72.4,80.4c0,2,0,3.6,0,5.2c0,0.3,0.2,0.8,0.5,0.9c3.6,1.8,7.1,3.6,11,5.6
				c0-1.9,0-3.5,0-5.1c0-0.4-0.4-0.9-0.7-1.1C79.8,84.1,76.3,82.4,72.4,80.4z M83.6,40.6c1.1-4.7,0.7-5.5-3.2-7.5
				c-0.8-0.4-1.6-0.8-2.5-1.2c-1.7-0.8-3.5-1.7-5.5-2.7c0,1.9,0,3.5,0,5.1c0,0.3,0.3,0.8,0.6,1C76.6,37.1,80.1,38.9,83.6,40.6z
				 M83.8,23.7c0.1-0.8,0.1-1.1,0.1-1.5c0.1-4.3,0.1-4.3-3.7-6.2c-2.5-1.2-5-2.5-7.8-3.9c0,2,0,3.5,0,5.1c0,0.4,0.3,0.8,0.6,1
				C76.5,20,80,21.8,83.8,23.7z M83.9,109.1c0-1.7-0.1-3,0-4.3c0.1-1.1-0.3-1.8-1.4-2.2c-2.7-1.3-5.4-2.7-8-4
				c-0.6-0.3-1.3-0.6-2.1-0.9c0,1.8-0.1,3.3,0,4.8c0,0.5,0.3,1.1,0.7,1.3C76.6,105.5,80.1,107.2,83.9,109.1z M72.4,63.4
				c0,2,0,3.5,0,5.1c0,0.3,0.2,0.8,0.4,0.9c3.6,1.8,7.2,3.6,11,5.6c0-1.9,0.1-3.5,0-5.1c0-0.4-0.5-1-0.9-1.2
				C79.6,66.9,76.2,65.3,72.4,63.4z M83.9,57.9c0-1.4-0.1-2.4,0-3.4c0.3-2-0.6-3-2.3-3.7c-2.3-0.9-4.4-2.1-6.6-3.2
				c-0.8-0.4-1.6-0.7-2.6-1.2c0,1.9,0,3.4,0,4.9c0,0.4,0.3,1,0.7,1.2C76.6,54.2,80.1,56,83.9,57.9z M83.7,126.1
				c0.1-0.4,0.2-0.5,0.2-0.6c0.4-4.9,0.4-4.9-4-7.2c-2.4-1.2-4.8-2.3-7.4-3.7c0,1.9-0.1,3.5,0,5.1c0,0.4,0.4,0.9,0.8,1.1
				C76.6,122.6,80.1,124.3,83.7,126.1z"/>
			<path class="st1" d="M89.5,132.2H66.9c-0.3,0-0.6-0.3-0.6-0.6l0-88.4c0-0.8,0-1.6-0.1-1.8c-0.1-0.1-1-0.1-1.7-0.1
				c-6.2,0-12.5,0-18.7,0l-12.8,0c-0.3,0-0.6-0.2-0.6-0.5c0-0.2-0.1-0.4-0.1-0.6c-0.1-0.3-0.1-0.6-0.1-1l0-2.8c0-3.7,0-7.5,0.1-11.2
				c0-1,0.6-2.2,1.4-2.7C45,14.8,55.3,7.9,65.8,1.1c2.7-1.7,5.8-1,8-0.1c1.8,0.7,3.5,1.6,5.2,2.5c0.8,0.4,1.5,0.8,2.3,1.2
				c0.6,0.3,1.2,0.6,1.8,0.9l0.2,0.1V0.8c0-0.2,0.1-0.3,0.2-0.4c0.1-0.1,0.3-0.2,0.5-0.2c0.8,0.1,1.5,0.1,2.3,0.1
				c1.6,0,3.2,0.1,4.7,0.5c16.1,4.5,32.4,9.2,48.2,13.7l14.1,4c1.4,0.4,2.7,0.8,4.1,1.2c3.5,1,7.1,2,10.6,3.1c1.1,0.3,2.1,1.1,2.7,2
				c2.5,3.6,5,7.4,7.4,11l2.1,3.1c0.2,0.3,0.3,0.5,0.5,0.9c0.1,0.2,0.2,0.4,0.4,0.7c0.1,0.2,0.1,0.4,0,0.6c-0.1,0.2-0.3,0.3-0.5,0.3
				h-13.6v26c0,0.3-0.3,0.6-0.6,0.6h-5.5c-0.3,0-0.6-0.3-0.6-0.6c0-0.2,0-0.4,0-0.6c0-0.5-0.1-1-0.1-1.5l0-4.5c0-5.9,0-12,0-18
				c0-0.7-0.1-1.1-0.3-1.3c-0.2-0.2-0.6-0.2-1.1-0.2c-1,0.1-2,0.1-3,0c-0.3,0-0.6,0-0.9,0v26.1c0,0.3-0.3,0.6-0.6,0.6h-5.6
				c-0.3,0-0.6-0.3-0.6-0.6V41.2H90.1v90.3C90.1,131.9,89.9,132.2,89.5,132.2z M67.5,130.9h21.4V23.8c0,0,0-0.1,0-0.1
				c0,0,0-0.1,0-0.1V2.8c0-0.2,0.1-0.4,0.2-0.5c0.2-0.1,0.4-0.2,0.5-0.1l69.8,20.4c0.3,0.1,0.5,0.4,0.4,0.7l-0.1,0.5
				c-0.1,0.3-0.3,0.5-0.6,0.5H90.1V40h58.4c0.3,0,0.6,0.3,0.6,0.6v26.1h4.4V40.6c0-0.3,0.3-0.6,0.6-0.6c0.5,0,1,0,1.5,0
				c1,0,2,0,2.9,0c0.6-0.1,1.5-0.1,2.1,0.5c0.6,0.6,0.7,1.5,0.7,2.2c-0.1,6-0.1,12.1,0,18l0,4.5c0,0.5,0,1,0.1,1.4c0,0,0,0.1,0,0.1
				h4.3v-26c0-0.3,0.3-0.6,0.6-0.6h13.1c-0.1-0.2-0.2-0.4-0.4-0.6l-2.1-3.1c-2.4-3.6-4.9-7.3-7.4-10.9c-0.4-0.6-1.3-1.2-2.1-1.5
				c-3.5-1.1-7.1-2.1-10.6-3.1c-1.4-0.4-2.7-0.8-4.1-1.2l-14.1-4C123,11.1,106.6,6.5,90.5,2c-1.3-0.4-2.8-0.4-4.4-0.5
				c-0.6,0-1.1,0-1.7-0.1v5.1c0,0.2-0.1,0.4-0.3,0.5c-0.2,0.1-0.4,0.1-0.6,0l-1-0.5c-0.7-0.3-1.3-0.6-1.9-0.9
				c-0.8-0.4-1.6-0.8-2.3-1.2c-1.6-0.9-3.3-1.7-5.1-2.5c-1.9-0.8-4.6-1.4-6.9,0C56,8.9,45.7,15.8,34.2,23.5
				c-0.4,0.3-0.8,1.1-0.9,1.7c-0.1,3.7-0.1,7.5-0.1,11.2l0,2.8c0,0.2,0,0.5,0.1,0.8c0,0,0,0,0,0.1l12.3,0c6.2,0,12.5,0,18.7,0
				c2.8,0,3.1,0.3,3.1,3.1L67.5,130.9z M90.1,23.1h66.6L90.1,3.7V23.1z M83.7,126.7c-0.1,0-0.2,0-0.3-0.1l-2.3-1.1
				c-2.8-1.4-5.5-2.7-8.1-4.1c-0.6-0.3-1.1-1-1.1-1.6c-0.1-1.1-0.1-2.3,0-3.6c0-0.5,0-1,0-1.6c0-0.2,0.1-0.4,0.3-0.5
				c0.2-0.1,0.4-0.1,0.6,0l2.3,1.1c1.8,0.9,3.5,1.7,5.1,2.5c4.6,2.3,4.8,2.5,4.4,7.7c0,0.2-0.1,0.3-0.1,0.5c0,0.1-0.1,0.2-0.1,0.3
				c-0.1,0.2-0.2,0.3-0.3,0.3C83.8,126.7,83.7,126.7,83.7,126.7z M73,115.6c0,0.2,0,0.4,0,0.6c0,1.3,0,2.4,0,3.5
				c0,0.2,0.2,0.5,0.4,0.6c2.7,1.4,5.3,2.7,8.1,4.1l1.7,0.8c0.3-4.3,0.3-4.4-3.7-6.4c-1.7-0.8-3.3-1.7-5.1-2.5L73,115.6z
				 M83.9,109.7c-0.1,0-0.2,0-0.3-0.1l-2.7-1.3c-2.8-1.4-5.5-2.7-8.1-4.1c-0.6-0.3-1-1.2-1-1.8c-0.1-1.1-0.1-2.1,0-3.3
				c0-0.5,0-1,0-1.5c0-0.2,0.1-0.4,0.3-0.5s0.4-0.1,0.6,0c0.3,0.1,0.6,0.2,0.8,0.3c0.5,0.2,0.9,0.4,1.4,0.6c0.9,0.5,1.8,0.9,2.7,1.4
				c1.7,0.9,3.5,1.8,5.3,2.6c1.3,0.6,1.8,1.5,1.7,2.8c-0.1,0.9-0.1,1.7,0,2.8c0,0.5,0,1,0,1.5c0,0.2-0.1,0.4-0.3,0.5
				C84.2,109.7,84.1,109.7,83.9,109.7z M73,98.5c0,0.2,0,0.4,0,0.6c0,1.2,0,2.2,0,3.2c0,0.3,0.3,0.7,0.4,0.8
				c2.6,1.4,5.3,2.7,8.1,4.1l1.8,0.9c0-0.2,0-0.3,0-0.5c0-1,0-1.9,0-2.9c0.1-0.9-0.2-1.3-1-1.7c-1.8-0.8-3.6-1.8-5.3-2.6
				c-0.9-0.5-1.8-0.9-2.7-1.4C73.9,98.9,73.5,98.7,73,98.5z M83.9,92.6c-0.1,0-0.2,0-0.3-0.1l-2.3-1.2c-3-1.5-5.9-2.9-8.7-4.4
				c-0.5-0.2-0.8-0.9-0.8-1.4c0-1.2,0-2.3,0-3.6l0-1.6c0-0.2,0.1-0.4,0.3-0.5c0.2-0.1,0.4-0.1,0.6,0l2.6,1.3
				c2.8,1.4,5.5,2.8,8.2,4.1c0.5,0.3,1,1,1,1.6c0.1,1.1,0.1,2.3,0,3.6c0,0.5,0,1,0,1.5c0,0.2-0.1,0.4-0.3,0.5
				C84.1,92.6,84,92.6,83.9,92.6z M73,81.4l0,0.6c0,1.3,0,2.5,0,3.6c0,0.1,0.1,0.3,0.2,0.4c2.8,1.4,5.7,2.9,8.7,4.4l1.4,0.7
				c0-0.2,0-0.4,0-0.6c0-1.3,0-2.4,0-3.5c0-0.2-0.2-0.5-0.4-0.6c-2.6-1.4-5.3-2.7-8.2-4.1L73,81.4z M83.9,75.6c-0.1,0-0.2,0-0.3-0.1
				l-2.1-1c-3.1-1.6-6-3-9-4.6c-0.5-0.3-0.8-1-0.8-1.4c0-1.2,0-2.3,0-3.6l0-1.5c0-0.2,0.1-0.4,0.3-0.5c0.2-0.1,0.4-0.1,0.6,0
				l2.6,1.3c2.8,1.4,5.4,2.7,8,4c0.5,0.3,1.2,1,1.2,1.7c0.1,1.1,0.1,2.3,0.1,3.6c0,0.5,0,1,0,1.6c0,0.2-0.1,0.4-0.3,0.5
				C84.1,75.5,84,75.6,83.9,75.6z M73,64.3l0,0.5c0,1.3,0,2.4,0,3.6c0,0.1,0.1,0.4,0.2,0.4c2.9,1.5,5.8,3,8.9,4.5l1.2,0.6
				c0-0.2,0-0.4,0-0.6c0-1.3,0-2.4-0.1-3.5c0-0.2-0.3-0.6-0.5-0.7c-2.6-1.3-5.2-2.7-8-4L73,64.3z M83.9,58.5c-0.1,0-0.2,0-0.3-0.1
				l-2.4-1.2c-2.9-1.5-5.7-2.8-8.4-4.2c-0.6-0.3-1-1.1-1-1.7c-0.1-1.1,0-2.2,0-3.4c0-0.5,0-1,0-1.5c0-0.2,0.1-0.4,0.3-0.5
				c0.2-0.1,0.4-0.1,0.6,0l1,0.4c0.6,0.3,1.1,0.5,1.7,0.8c0.7,0.4,1.4,0.7,2.1,1.1c1.4,0.7,2.9,1.5,4.4,2.1c1.5,0.6,3.1,1.7,2.7,4.3
				c-0.1,0.6-0.1,1.2,0,1.9c0,0.4,0,0.8,0,1.3c0,0.2-0.1,0.4-0.3,0.5C84.2,58.5,84,58.5,83.9,58.5z M73,47.3c0,0.2,0,0.4,0,0.6
				c0,1.2,0,2.3,0,3.4c0,0.2,0.2,0.6,0.4,0.6c2.7,1.4,5.5,2.8,8.4,4.2l1.5,0.7c0-0.1,0-0.2,0-0.3c0-0.8,0-1.5,0.1-2.2
				c0.2-1.5-0.3-2.3-2-3c-1.5-0.6-3-1.4-4.5-2.2c-0.7-0.4-1.4-0.7-2.1-1.1C74.2,47.9,73.7,47.6,73,47.3L73,47.3z M83.6,41.3
				c-0.1,0-0.2,0-0.3-0.1l-2.2-1.1c-2.8-1.4-5.6-2.8-8.3-4.2c-0.5-0.3-0.9-0.9-1-1.5c0-1.2,0-2.3,0-3.6c0-0.5,0-1,0-1.5
				c0-0.2,0.1-0.4,0.3-0.5c0.2-0.1,0.4-0.1,0.6,0l1.6,0.8c1.4,0.7,2.6,1.3,3.9,1.9c0.5,0.2,0.9,0.5,1.4,0.7l1.1,0.5
				c4.2,2.1,4.7,3.2,3.6,8.2c0,0.2-0.2,0.3-0.3,0.4C83.8,41.2,83.7,41.3,83.6,41.3z M73.1,30.2c0,0.2,0,0.4,0,0.6c0,1.3,0,2.4,0,3.5
				c0,0.1,0.2,0.4,0.3,0.5c2.8,1.4,5.5,2.8,8.3,4.2l1.5,0.7c0.8-3.7,0.4-4.3-3.1-6l-1.1-0.5c-0.5-0.2-0.9-0.5-1.4-0.7
				c-1.3-0.6-2.5-1.2-3.9-1.9L73.1,30.2z M83.8,24.3c-0.1,0-0.2,0-0.3-0.1l-2.1-1.1c-3-1.5-5.8-2.9-8.6-4.4
				c-0.5-0.3-0.9-0.9-0.9-1.5c0-1.1,0-2.3,0-3.6c0-0.5,0-1,0-1.6c0-0.2,0.1-0.4,0.3-0.5c0.2-0.1,0.4-0.1,0.6,0l2.9,1.4
				c1.7,0.9,3.4,1.7,5,2.5c4,2,4.2,2.3,4,6.7c0,0.2,0,0.5-0.1,0.8l-0.1,0.7c0,0.2-0.1,0.4-0.3,0.5C84,24.2,83.9,24.3,83.8,24.3z
				 M73,13.1c0,0.2,0,0.4,0,0.6c0,1.3,0,2.4,0,3.5c0,0.1,0.2,0.4,0.3,0.5c2.8,1.4,5.6,2.9,8.6,4.3l1.3,0.7c0-0.2,0-0.4,0-0.5
				c0.1-3.9,0.1-3.9-3.3-5.6c-1.6-0.8-3.3-1.6-5-2.5L73,13.1z M66.8,24.1H36.1c-0.3,0-0.5-0.2-0.6-0.4c-0.1-0.3,0-0.5,0.2-0.7
				L66.5,2.6c0.2-0.1,0.4-0.1,0.6,0c0.2,0.1,0.3,0.3,0.3,0.5v20.4C67.4,23.9,67.1,24.1,66.8,24.1z M38.1,22.9h28.1V4.3L38.1,22.9z"
				/>
		</g>
		<g>
			<path class="st0" d="M158.2,65.9c3.3,0,6.5,0,9.8,0c4.2,0.1,5.4,2.4,3.3,5.9c-3.2,5.2-6.5,10.2-9.5,15.5
				c-0.8,1.3-0.6,3.3-0.6,4.9c0,0.4,1,0.9,1.6,1.3c5,2.8,6.6,8.9,3.7,13.6c-2.9,4.8-9.2,6.1-13.8,2.9c-2.6-1.8-3.9-4.3-4.2-7.4
				c-0.1-1.9,0.9-3.1,2.5-3.3c1.6-0.1,2.7,0.9,3,2.8c0.4,2.5,1.8,4,3.9,4.2c2,0.2,3.8-1.2,4.3-3.3c0.5-2.1-0.5-3.8-2.8-4.9
				c-2.6-1.2-4-3.3-3.9-6.1c0.1-2.5-0.6-4.6-2-6.7c-2.7-4.1-5.2-8.3-7.8-12.4c-0.3-0.5-0.7-1-0.9-1.6c-1.5-2.9-0.4-5,2.9-5.2
				c2.5-0.2,5-0.1,7.5-0.1C156.1,65.9,157.1,65.9,158.2,65.9C158.2,65.9,158.2,65.9,158.2,65.9z"/>
			<path class="st1" d="M158.1,112.4c-2.1,0-4.1-0.6-5.9-1.8c-2.7-1.9-4.2-4.5-4.4-7.9c-0.2-2.1,1.1-3.8,3-3.9
				c1.9-0.2,3.4,1.1,3.7,3.3c0.3,2.2,1.5,3.5,3.4,3.6c1.7,0.1,3.2-1,3.7-2.8c0.4-1.8-0.4-3.2-2.5-4.2c-2.9-1.4-4.4-3.8-4.2-6.7
				c0.1-2.2-0.5-4.1-1.9-6.3c-2-2.9-3.8-6-5.7-8.9c-0.7-1.2-1.5-2.3-2.2-3.5L145,73c-0.3-0.5-0.6-1-0.9-1.5c-0.8-1.6-1-3.1-0.3-4.2
				c0.4-0.8,1.4-1.8,3.7-1.9c1.8-0.1,3.6-0.1,5.3-0.1c0.8,0,1.5,0,2.3,0c0.7,0,1.4,0,2.2,0l1,0c0,0,0.1,0,0.1,0c1,0,1.9,0,2.9,0
				c2.2,0,4.5,0,6.8,0c2.9,0,4.1,1.1,4.5,2c0.5,0.9,0.7,2.4-0.7,4.8c-1.1,1.9-2.3,3.7-3.5,5.6c-2,3.2-4.1,6.6-6.1,9.9
				c-0.6,1-0.6,2.5-0.6,4l0,0.6c0.2,0.2,0.8,0.5,1.1,0.7l0.2,0.1c2.6,1.4,4.4,3.8,5.1,6.5c0.7,2.7,0.3,5.5-1.2,8
				c-1.5,2.4-3.8,4.1-6.6,4.7C159.6,112.3,158.8,112.4,158.1,112.4z M151.1,99.9c-0.1,0-0.1,0-0.2,0c-1.3,0.1-2,1.1-1.9,2.6
				c0.2,3,1.5,5.3,3.9,7c2.1,1.5,4.6,2,7.1,1.4c2.5-0.5,4.5-2,5.8-4.2c1.3-2.1,1.7-4.6,1-7c-0.6-2.5-2.3-4.5-4.5-5.8l-0.2-0.1
				c-0.8-0.5-1.7-0.9-1.7-1.7l0-0.6c0-1.5,0-3.3,0.7-4.6c1.9-3.4,4-6.7,6.1-10c1.2-1.8,2.3-3.7,3.5-5.6c0.9-1.5,1.2-2.8,0.7-3.6
				c-0.5-0.8-1.7-1.3-3.5-1.3c-2.3,0-4.6,0-6.8,0c-1,0-2,0-3,0c0,0-0.1,0-0.1,0l-0.9,0c-0.7,0-1.4,0-2.1,0c-0.8,0-1.5,0-2.3,0
				c-1.7,0-3.5,0-5.2,0.1c-1.4,0.1-2.3,0.5-2.7,1.3c-0.4,0.8-0.3,1.8,0.3,3.1c0.3,0.5,0.6,1,0.8,1.4l0.1,0.1
				c0.7,1.2,1.5,2.3,2.2,3.5c1.8,2.9,3.7,6,5.6,8.9c1.6,2.4,2.2,4.5,2.1,7c-0.1,2.5,1.1,4.4,3.5,5.6c2.6,1.3,3.7,3.3,3.2,5.6
				c-0.6,2.4-2.6,3.9-4.9,3.7c-2.4-0.2-4.1-1.9-4.5-4.7C153.1,100.8,152.3,99.9,151.1,99.9z M161.6,92.2L161.6,92.2
				C161.6,92.2,161.6,92.2,161.6,92.2z"/>
		</g>
	</g>
	<g>
		<path class="st1" d="M143.5,28.1h-6.7c-0.2,0-0.4-0.2-0.4-0.4s0.2-0.4,0.4-0.4h6.7c0.2,0,0.4,0.2,0.4,0.4S143.7,28.1,143.5,28.1z"
			/>
	</g>
	<g>
		<path class="st1" d="M130.5,28.1H99.6c-0.2,0-0.4-0.2-0.4-0.4s0.2-0.4,0.4-0.4h30.9c0.2,0,0.4,0.2,0.4,0.4S130.8,28.1,130.5,28.1z
			"/>
	</g>
	<g>
		<path class="st1" d="M63.6,26.8H41.8c-0.2,0-0.4-0.2-0.4-0.4s0.2-0.4,0.4-0.4h21.8c0.2,0,0.4,0.2,0.4,0.4S63.9,26.8,63.6,26.8z"/>
	</g>
	<g>
		<path class="st1" d="M88.4,145.2H47.3c-0.2,0-0.4-0.2-0.4-0.4v-5.6c0-0.2,0.2-0.4,0.4-0.4s0.4,0.2,0.4,0.4v5.2h40.7
			c0.2,0,0.4,0.2,0.4,0.4S88.7,145.2,88.4,145.2z"/>
	</g>
	<g>
		<line class="st0" x1="66.8" y1="42.1" x2="66.8" y2="31.1"/>
		<path class="st1" d="M66.8,42.7c-0.3,0-0.6-0.3-0.6-0.6v-11c0-0.3,0.3-0.6,0.6-0.6s0.6,0.3,0.6,0.6v11
			C67.5,42.4,67.2,42.7,66.8,42.7z"/>
	</g>
	<g>
		<path class="st1" d="M155.1,84c-0.1,0-0.3-0.1-0.3-0.2l-2-3.1c-0.1-0.2-0.1-0.4,0.1-0.6c0.2-0.1,0.4-0.1,0.6,0.1l2,3.1
			c0.1,0.2,0.1,0.4-0.1,0.6C155.2,84,155.1,84,155.1,84z"/>
	</g>
	<g>
		<path class="st1" d="M152,79.2c-0.1,0-0.3-0.1-0.3-0.2l-4.3-6.7c-0.8-1.2-1.1-2.3-0.8-3.2c0.5-1.1,1.8-1.4,1.8-1.4
			c0,0,0.1,0,0.1,0h5.8c0.2,0,0.4,0.2,0.4,0.4s-0.2,0.4-0.4,0.4h-5.7c-0.2,0-1,0.3-1.2,0.9c-0.2,0.6,0,1.4,0.7,2.4l4.3,6.7
			c0.1,0.2,0.1,0.4-0.1,0.6C152.1,79.2,152.1,79.2,152,79.2z"/>
	</g>
</g>
</svg>
