<?xml version="1.0" encoding="utf-8"?>
<!-- Generator: Adobe Illustrator 19.2.0, SVG Export Plug-In . SVG Version: 6.00 Build 0)  -->
<svg version="1.1" id="Layer_1" xmlns="http://www.w3.org/2000/svg" xmlns:xlink="http://www.w3.org/1999/xlink" x="0px" y="0px"
	 viewBox="0 0 213.1 148.4" style="enable-background:new 0 0 213.1 148.4;" xml:space="preserve">
<style type="text/css">
	.st0{fill:#FFFFFF;}
</style>
<path class="st0" d="M33.6,148.4c-0.1,0-0.3,0-0.4-0.1c-0.2-0.1-0.4-0.4-0.4-0.6c0-2.3,0-4.6,0-6.9c0-5.9,0-11.5,0.1-17.1
	c0-1.9-0.5-3-2.2-4.1C19.3,111.8,11.3,103,6.2,92.5C-2.7,74.1-2,56,8.3,38.4c9.3-15.9,23.8-26.9,44.1-33.6c15.4-5,31.7-6.1,48.6-3.2
	c0.6,0.1,1.2,0.2,1.9,0.4c0.4,0.1,0.7,0.2,1.2,0.3c0.3,0.1,0.5,0.3,0.6,0.6s-0.1,0.6-0.3,0.8c-1.2,0.8-2.3,1.6-3.5,2.3
	c-2.4,1.6-4.6,3-6.7,4.7C74.7,26.2,66.8,44.5,69.8,66.5c2,14.1,9.2,26.5,21.5,37.1c9.9,8.5,21.9,14.3,35.6,17.3
	c0.5,0.1,0.9,0.3,1.5,0.5c0.3,0.1,0.6,0.2,1,0.3c0.3,0.1,0.5,0.3,0.5,0.6c0,0.3-0.1,0.6-0.4,0.7c-7,4.1-14.7,7-24.2,9.2
	c-12.5,2.9-25.6,3.2-40.1,1c-1.7-0.3-3.9,0.1-5.6,1c-5.4,2.8-10.8,5.9-16,8.8c-2.2,1.2-4.3,2.4-6.5,3.6c-0.6,0.3-1.2,0.6-1.9,1
	c-0.4,0.2-0.8,0.4-1.3,0.6C33.9,148.4,33.8,148.4,33.6,148.4z M34.4,147.6L34.4,147.6L34.4,147.6z M82.9,1.5
	C72.6,1.5,62.6,3.1,53,6.3C33,12.9,18.8,23.7,9.7,39.2C-0.4,56.3-1.1,74,7.5,91.8c5,10.2,12.9,18.9,24.1,26.5
	c2.1,1.4,2.9,2.9,2.8,5.4c-0.1,5.6-0.1,11.2-0.1,17.1c0,1.9,0,3.7,0,5.7c0.1,0,0.1-0.1,0.2-0.1c0.7-0.3,1.3-0.6,1.8-0.9
	c2.2-1.2,4.3-2.4,6.5-3.6c5.2-2.9,10.7-6,16.1-8.8c2-1,4.5-1.5,6.6-1.2c14.3,2.2,27.2,1.9,39.5-0.9c8.7-2,15.8-4.6,22.3-8.2
	c-0.3-0.1-0.5-0.2-0.8-0.2c-13.9-3.1-26.1-9-36.2-17.7c-12.6-10.8-20-23.6-22-38c-3.1-22.3,5.3-41.6,24.9-57.3
	c2.1-1.7,4.4-3.2,6.8-4.8c0.7-0.4,1.3-0.9,2-1.3c-0.5-0.1-0.9-0.2-1.3-0.3C94.7,2,88.7,1.5,82.9,1.5z"/>
<path class="st0" d="M185.8,122.3c-0.1,0-0.3,0-0.4-0.1c-1.9-1.1-3.7-2.1-5.5-3.1c-4.5-2.5-8.8-4.9-13.1-7.3c-2-1.2-3.8-1.5-5.9-1.2
	c-18.3,3.1-35.4,0.5-50.8-7.7c-13.8-7.4-22.6-17-27-29.5c-6.3-18.4-2-35.2,13-49.7c11.1-10.8,25.3-17,42.2-18.6
	C161.2,2.9,180.9,9,196.7,23c10.3,9.1,16.1,21.3,16.4,34.3c0.2,13-5.1,25.4-15,34.8c-2.7,2.6-5.9,5.1-9.7,7.9
	c-1.4,1-1.9,1.9-1.9,3.7c0.1,4,0.1,8.1,0.1,12.4c0,1.8,0,3.6,0,5.4c0,0.3-0.1,0.5-0.4,0.6C186.1,122.2,185.9,122.3,185.8,122.3z
	 M162.5,109c1.7,0,3.3,0.5,5.1,1.5c4.2,2.5,8.5,4.8,13,7.3c1.5,0.8,2.9,1.6,4.4,2.5c0-1.4,0-2.8,0-4.2c0-4.3,0-8.3-0.1-12.4
	c0-2.3,0.7-3.6,2.5-4.9c3.8-2.7,6.9-5.2,9.5-7.7c9.6-9.2,14.8-21.1,14.6-33.7s-5.9-24.4-15.8-33.2c-15.6-13.8-34.8-19.6-57.3-17.5
	c-16.6,1.6-30.5,7.7-41.3,18.2c-14.5,14-18.7,30.2-12.5,48c4.2,12.1,12.8,21.5,26.3,28.7c15.1,8,31.8,10.6,49.8,7.5
	C161.3,109,161.9,109,162.5,109z"/>
<path class="st0" d="M126.2,66.6c-3.5,0-6.4-2.9-6.4-6.4s2.9-6.4,6.4-6.4s6.4,2.9,6.4,6.4S129.8,66.6,126.2,66.6z M126.2,55.3
	c-2.7,0-4.9,2.2-4.9,4.9s2.2,4.9,4.9,4.9c2.7,0,4.9-2.2,4.9-4.9S128.9,55.3,126.2,55.3z"/>
<path class="st0" d="M146,66.6c-3.5,0-6.4-2.9-6.4-6.4s2.9-6.4,6.4-6.4s6.4,2.9,6.4,6.4S149.5,66.6,146,66.6z M146,55.3
	c-2.7,0-4.9,2.2-4.9,4.9s2.2,4.9,4.9,4.9s4.9-2.2,4.9-4.9S148.7,55.3,146,55.3z"/>
<path class="st0" d="M165.7,66.6c-3.5,0-6.4-2.9-6.4-6.4s2.9-6.4,6.4-6.4s6.4,2.9,6.4,6.4S169.2,66.6,165.7,66.6z M165.7,55.3
	c-2.7,0-4.9,2.2-4.9,4.9s2.2,4.9,4.9,4.9s4.9-2.2,4.9-4.9S168.4,55.3,165.7,55.3z"/>
<path class="st0" d="M164.8,105.4"/>
<path class="st0" d="M181.2,114.6"/>
<path class="st0" d="M93.8,40.8c-0.1,0-0.3,0-0.4-0.1c-0.4-0.2-0.5-0.7-0.3-1c2.2-3.9,5.2-7.7,8.9-11.3c0.3-0.3,0.8-0.3,1.1,0
	s0.3,0.8,0,1.1c-3.6,3.5-6.5,7.2-8.6,10.9C94.3,40.6,94.1,40.8,93.8,40.8z"/>
<path class="st0" d="M91.4,72.8c-0.3,0-0.6-0.2-0.7-0.5c-3.4-9.7-3.3-18.9,0-27.5c0.2-0.4,0.6-0.6,1-0.4c0.4,0.2,0.6,0.6,0.4,1
	c-3.2,8.2-3.2,17.1,0,26.5c0.1,0.4-0.1,0.8-0.5,1C91.6,72.7,91.5,72.8,91.4,72.8z"/>
<path class="st0" d="M146.3,106.2c-11.3,0-21.9-2.6-31.8-7.9c-8.7-4.7-15.4-10.6-19.8-17.6c-0.2-0.4-0.1-0.8,0.2-1
	c0.4-0.2,0.8-0.1,1,0.2c4.2,6.8,10.7,12.5,19.2,17c13.3,7.1,28,9.3,43.8,6.6c0.4-0.1,0.8,0.2,0.9,0.6c0.1,0.4-0.2,0.8-0.6,0.9
	C154.8,105.8,150.5,106.2,146.3,106.2z"/>
<path class="st0" d="M11.7,86.9c-0.3,0-0.6-0.2-0.7-0.5c-6-14.9-4.7-29.7,3.7-44c0.2-0.4,0.7-0.5,1-0.3c0.4,0.2,0.5,0.7,0.3,1
	C7.9,57,6.7,71.3,12.4,85.7c0.2,0.4,0,0.8-0.4,1C11.9,86.9,11.8,86.9,11.7,86.9z"/>
<path class="st0" d="M35.1,114.6c-0.1,0-0.3,0-0.4-0.1c-2.9-2-5.6-4-8-6.2c-6-5.3-10.6-11.2-13.8-17.9c-0.2-0.4,0-0.8,0.3-1
	c0.4-0.2,0.8,0,1,0.3c3.2,6.5,7.6,12.2,13.5,17.4c2.4,2.1,5,4.1,7.8,6c0.3,0.2,0.4,0.7,0.2,1C35.5,114.5,35.3,114.6,35.1,114.6z"/>
</svg>
