<?xml version="1.0" encoding="utf-8"?>
<!-- Generator: Adobe Illustrator 19.2.0, SVG Export Plug-In . SVG Version: 6.00 Build 0)  -->
<svg version="1.1" id="Layer_1" xmlns="http://www.w3.org/2000/svg" xmlns:xlink="http://www.w3.org/1999/xlink" x="0px" y="0px"
	 viewBox="0 0 133 149.3" style="enable-background:new 0 0 133 149.3;" xml:space="preserve">
<style type="text/css">
	.st0{fill:#0C0C0C;}
	.st1{fill:#FFFFFF;}
</style>
<g>
	<g>
		<g>
			<path class="st0" d="M53.2,121.9H37.6c-0.2,0-0.4-0.1-0.6-0.3c-0.1-0.2-0.2-0.4-0.2-0.6c0.7-5,1-10,1-15.1V64.3h-10
				c-0.4,0-0.8-0.3-0.8-0.8v-8c0-0.4,0.3-0.8,0.8-0.8c7.3,0,12.6-3.5,16-10.6c0.1-0.3,0.4-0.4,0.7-0.4h8.7c0.2,0,0.4,0.1,0.6,0.3
				c0.1,0.2,0.2,0.4,0.2,0.6c-0.3,1.8-0.5,4.1-0.7,6.8c-0.2,2.7-0.2,5.2-0.2,7.5v52.4c0,1.3,0,2.4,0.1,3.2c0.1,0.4,0.1,1,0.2,1.6
				c0,0.5,0.1,1.1,0.3,1.8c0.1,1,0.2,2,0.4,3.2c0,0.2,0,0.4-0.2,0.6C53.7,121.8,53.5,121.9,53.2,121.9z M38.4,120.4h14
				c-0.1-0.8-0.2-1.6-0.2-2.3c-0.1-0.6-0.2-1.3-0.3-1.9c0-0.6-0.1-1.1-0.2-1.5c-0.1-0.9-0.1-2.1-0.1-3.4V58.9c0-2.3,0.1-4.9,0.2-7.6
				c0.1-2.3,0.3-4.3,0.6-6.1H45c-3.6,7-9.1,10.7-16.4,11v6.5h10c0.4,0,0.8,0.3,0.8,0.8v42.4C39.3,110.8,39,115.7,38.4,120.4z"/>
		</g>
		<g>
			<path class="st0" d="M105.2,121.9H60.6c-0.4,0-0.8-0.3-0.8-0.8v-11.3c0-0.2,0.1-0.4,0.2-0.5c2.2-2.5,4.7-5.8,7.5-9.7
				c2.8-3.9,5.9-8.3,9.1-13.1c3.7-5.7,6.7-10.6,8.8-14.6c2.6-4.9,3.1-7.1,3.1-8.1c0-2.2-0.8-3.9-2.3-5.1c-1.6-1.2-3.6-1.8-5.8-1.8
				c-2.6,0-5.2,0.6-8,1.7c-2.4,0.9-4.7,2.2-7,4c-0.2,0.2-0.5,0.2-0.8,0.1c-0.3-0.1-0.4-0.4-0.4-0.7V48.6c0-0.3,0.2-0.5,0.4-0.7
				c2.7-1.4,5.5-2.5,8.4-3.3c2.9-0.8,5.9-1.2,8.9-1.2c6.1,0,11.4,1.7,15.7,5.2c4.3,3.5,6.5,8.3,6.5,14.4c0,2.1-0.5,4.5-1.5,7.3
				c-1,2.8-2.4,5.8-4.2,9.1c-1.3,2.4-3,5.1-5,8.1c-1.9,2.9-4.1,6.2-6.5,9.7c-0.8,1.1-1.5,2.1-2.2,3.1c-0.7,1-1.4,2-2.2,3
				c-0.8,1.1-1.5,2.1-2.2,3c-0.4,0.6-0.9,1.1-1.3,1.7H90c2.7,0,5.3-0.1,7.8-0.2c2.5-0.1,5-0.3,7.3-0.6c0.2,0,0.4,0,0.6,0.2
				s0.3,0.3,0.3,0.6v12.9C105.9,121.6,105.6,121.9,105.2,121.9z M61.3,120.4h43.1v-11.3c-2.1,0.3-4.3,0.4-6.6,0.5
				c-2.5,0.1-5.2,0.2-7.9,0.2H77.6c-0.3,0-0.5-0.2-0.7-0.4s-0.1-0.5,0-0.8c0.7-1,1.4-1.9,2.1-2.9c0.7-0.9,1.5-2,2.2-3
				c0.8-1,1.5-2,2.2-3c0.7-1,1.4-2,2.2-3.1c2.4-3.5,4.6-6.7,6.5-9.6c2-3,3.6-5.7,4.9-8c1.7-3.2,3.1-6.2,4.1-8.9c1-2.7,1.4-5,1.4-6.8
				c0-5.6-2-10.1-5.9-13.3c-4-3.2-9-4.9-14.7-4.9c-2.9,0-5.8,0.4-8.6,1.1c-2.7,0.7-5.3,1.7-7.7,2.9v11.4c2-1.4,4.1-2.6,6.2-3.3
				c2.9-1.2,5.8-1.8,8.5-1.8c2.6,0,4.9,0.7,6.7,2.2c1.9,1.5,2.9,3.6,2.9,6.3c0,1.7-1.1,4.6-3.3,8.8c-2.1,4-5.1,9-8.8,14.7
				c-3.2,4.8-6.3,9.3-9.2,13.2c-2.8,3.8-5.3,7-7.4,9.6V120.4z"/>
		</g>
	</g>
	<g>
		<g>
			<path class="st0" d="M117,149.3H16c-8.8,0-16-7.2-16-16V32.3c0-8.8,7.2-16,16-16H117c8.8,0,16,7.2,16,16v100.9
				C133,142.1,125.8,149.3,117,149.3z M16,17.8c-8,0-14.5,6.5-14.5,14.5v100.9c0,8,6.5,14.5,14.5,14.5H117c8,0,14.5-6.5,14.5-14.5
				V32.3c0-8-6.5-14.5-14.5-14.5H16z"/>
		</g>
		<g>
			<path class="st0" d="M7.7,72.4c-0.4,0-0.8-0.3-0.8-0.8v-37c0-6.6,4.4-12.4,10.7-14.3c0.4-0.1,0.8,0.1,0.9,0.5
				c0.1,0.4-0.1,0.8-0.5,0.9c-5.7,1.6-9.6,6.9-9.6,12.8v37C8.5,72.1,8.2,72.4,7.7,72.4z"/>
		</g>
		<g>
			<path class="st0" d="M114.2,141.8H58.9c-0.4,0-0.8-0.3-0.8-0.8s0.3-0.8,0.8-0.8h55.3c7.4,0,13.3-6,13.3-13.3v-8.9
				c0-0.4,0.3-0.8,0.8-0.8s0.8,0.3,0.8,0.8v8.9C129,135.2,122.4,141.8,114.2,141.8z"/>
		</g>
		<g>
			<path class="st1" d="M31.7,0.8c3.3,0,6,2.7,6,6v16.4c0,3.3-2.7,6-6,6l0,0c-3.3,0-6-2.7-6-6V6.8C25.6,3.4,28.3,0.8,31.7,0.8
				L31.7,0.8z"/>
			<path class="st0" d="M31.7,29.9c-3.7,0-6.8-3-6.8-6.8V6.8c0-3.7,3-6.8,6.8-6.8c3.7,0,6.8,3,6.8,6.8v16.4
				C38.4,26.9,35.4,29.9,31.7,29.9z M31.7,1.5c-2.9,0-5.3,2.4-5.3,5.3v16.4c0,2.9,2.4,5.3,5.3,5.3c2.9,0,5.3-2.4,5.3-5.3V6.8
				C36.9,3.9,34.6,1.5,31.7,1.5z"/>
		</g>
		<g>
			<path class="st1" d="M50.1,0.8c3.3,0,6,2.7,6,6v16.4c0,3.3-2.7,6-6,6l0,0c-3.3,0-6-2.7-6-6V6.8C44,3.4,46.7,0.8,50.1,0.8
				L50.1,0.8z"/>
			<path class="st0" d="M50.1,29.9c-3.7,0-6.8-3-6.8-6.8V6.8c0-3.7,3-6.8,6.8-6.8s6.8,3,6.8,6.8v16.4C56.8,26.9,53.8,29.9,50.1,29.9
				z M50.1,1.5c-2.9,0-5.3,2.4-5.3,5.3v16.4c0,2.9,2.4,5.3,5.3,5.3s5.3-2.4,5.3-5.3V6.8C55.3,3.9,53,1.5,50.1,1.5z"/>
		</g>
		<g>
			<path class="st1" d="M67.6,0.8c3.3,0,6,2.7,6,6v16.4c0,3.3-2.7,6-6,6l0,0c-3.3,0-6-2.7-6-6V6.8C61.6,3.4,64.3,0.8,67.6,0.8
				L67.6,0.8z"/>
			<path class="st0" d="M67.6,29.9c-3.7,0-6.8-3-6.8-6.8V6.8c0-3.7,3-6.8,6.8-6.8s6.8,3,6.8,6.8v16.4C74.4,26.9,71.3,29.9,67.6,29.9
				z M67.6,1.5c-2.9,0-5.3,2.4-5.3,5.3v16.4c0,2.9,2.4,5.3,5.3,5.3s5.3-2.4,5.3-5.3V6.8C72.9,3.9,70.5,1.5,67.6,1.5z"/>
		</g>
		<g>
			<path class="st1" d="M85.1,0.8c3.3,0,6,2.7,6,6v16.4c0,3.3-2.7,6-6,6l0,0c-3.3,0-6-2.7-6-6V6.8C79.1,3.4,81.8,0.8,85.1,0.8
				L85.1,0.8z"/>
			<path class="st0" d="M85.1,29.9c-3.7,0-6.8-3-6.8-6.8V6.8c0-3.7,3-6.8,6.8-6.8c3.7,0,6.8,3,6.8,6.8v16.4
				C91.9,26.9,88.8,29.9,85.1,29.9z M85.1,1.5c-2.9,0-5.3,2.4-5.3,5.3v16.4c0,2.9,2.4,5.3,5.3,5.3c2.9,0,5.3-2.4,5.3-5.3V6.8
				C90.4,3.9,88,1.5,85.1,1.5z"/>
		</g>
		<g>
			<path class="st1" d="M101.8,0.8c3.3,0,6,2.7,6,6v16.4c0,3.3-2.7,6-6,6l0,0c-3.3,0-6-2.7-6-6V6.8C95.7,3.4,98.4,0.8,101.8,0.8
				L101.8,0.8z"/>
			<path class="st0" d="M101.8,29.9c-3.7,0-6.8-3-6.8-6.8V6.8C95,3,98,0,101.8,0c3.7,0,6.8,3,6.8,6.8v16.4
				C108.5,26.9,105.5,29.9,101.8,29.9z M101.8,1.5c-2.9,0-5.3,2.4-5.3,5.3v16.4c0,2.9,2.4,5.3,5.3,5.3c2.9,0,5.3-2.4,5.3-5.3V6.8
				C107,3.9,104.7,1.5,101.8,1.5z"/>
		</g>
	</g>
</g>
</svg>
