<?xml version="1.0" encoding="utf-8"?>
<!-- Generator: Adobe Illustrator 19.2.0, SVG Export Plug-In . SVG Version: 6.00 Build 0)  -->
<svg version="1.1" id="Layer_1" xmlns="http://www.w3.org/2000/svg" xmlns:xlink="http://www.w3.org/1999/xlink" x="0px" y="0px"
	 viewBox="0 0 133 149.3" style="enable-background:new 0 0 133 149.3;" xml:space="preserve">
<style type="text/css">
	.st0{fill-rule:evenodd;clip-rule:evenodd;fill:#FFFFFF;}
	.st1{fill:#0C0C0C;}
</style>
<g>
	<g>
		<g>
			<path class="st0" d="M129.6,2.4c-0.3,14.9-0.5,29.4-0.8,44.3c-4.8-2.9-9.5-5.7-14.2-8.5c-5.3,8.8-10.5,17.4-15.7,26.2
				c-3.6-0.9-7.2-1.8-10.8-2.7c-11.1-2.8-22.2-5.5-33.4-8.3c-0.9-0.2-1.6-0.1-2.3,0.6c-5.4,5.4-10.8,10.9-16.2,16.3
				c-6,6-11.9,11.9-17.9,17.9c-2.4,2.4-4.7,4.8-7.2,7.3c-2.6-2.7-5.1-5.3-7.8-8.2c1.7-1.6,3.6-3.4,5.4-5.2
				c6.1-6,12.1-12.1,18.2-18.2c6.5-6.5,13-13,19.5-19.5c0.5-0.5,1.2-1,1.6-1.6c1.2-1.8,2.7-1.8,4.7-1.3c9,2.4,18.1,4.6,27.1,6.9
				c4.2,1.1,8.4,2.1,12.7,3.2c0.4,0.1,1.2-0.1,1.4-0.4c3.7-6,7.3-12,10.9-18c0.1-0.1,0.1-0.3,0.1-0.5c-4.6-2.8-9.2-5.5-14.1-8.5
				C103.8,16.7,116.5,9.6,129.6,2.4z"/>
			<path class="st1" d="M11.2,96C11.2,96,11.2,96,11.2,96c-0.2,0-0.4-0.1-0.5-0.2l-7.8-8.2c-0.3-0.3-0.2-0.7,0-1
				c0.5-0.5,1.1-1,1.6-1.6c1.2-1.2,2.5-2.4,3.8-3.7c3.9-3.9,7.8-7.8,11.7-11.7l6.4-6.4c4.7-4.7,9.5-9.4,14.2-14.2l5.3-5.3
				c0.2-0.2,0.4-0.3,0.6-0.5c0.4-0.3,0.7-0.6,0.9-1c1.5-2.2,3.5-2.1,5.4-1.6c6.7,1.8,13.6,3.5,20.2,5.1l9.2,2.3
				c3.4,0.9,6.9,1.7,10.4,2.6c0.2,0,0.6-0.1,0.7-0.2c3.2-5.2,6.4-10.6,9.5-15.8l1.2-2.1l-13.7-8.2c-0.2-0.1-0.3-0.3-0.3-0.6
				s0.1-0.5,0.3-0.6l38.8-21.5c0.2-0.1,0.5-0.1,0.7,0c0.2,0.1,0.3,0.3,0.3,0.6l-0.8,44.3c0,0.2-0.1,0.5-0.3,0.6
				c-0.2,0.1-0.5,0.1-0.7,0l-13.6-8.2L99.5,64.7C99.3,65,99,65.1,98.7,65l-3.5-0.9c-2.4-0.6-4.9-1.2-7.3-1.8L82,60.9
				c-9.1-2.3-18.3-4.6-27.4-6.9c-0.7-0.2-1.1-0.1-1.6,0.4c-5.4,5.4-10.8,10.9-16.2,16.3c-2.9,2.9-5.7,5.7-8.6,8.6
				c-3.1,3.1-6.2,6.2-9.3,9.3c-1.6,1.6-3.2,3.2-4.9,4.9l-2.3,2.3C11.6,95.9,11.4,96,11.2,96z M4.3,87.2l6.9,7.2l1.8-1.9
				c1.6-1.7,3.2-3.3,4.9-4.9c3.1-3.1,6.2-6.2,9.3-9.3c2.9-2.9,5.7-5.7,8.6-8.6c5.4-5.4,10.8-10.9,16.2-16.3c0.8-0.8,1.7-1.1,2.9-0.7
				c9.1,2.3,18.3,4.6,27.4,6.9l5.9,1.5c2.4,0.6,4.8,1.2,7.3,1.8l3,0.7l15.5-25.7c0.2-0.3,0.6-0.4,0.9-0.2l13.2,7.9l0.7-42L92.2,23.9
				l13.1,7.9c0.3,0.2,0.4,0.5,0.3,0.7c0,0.1,0,0.2,0,0.2c0,0.2-0.1,0.3-0.2,0.5l-1.3,2.2c-3.1,5.2-6.3,10.6-9.5,15.8
				c-0.4,0.6-1.4,0.9-2.1,0.7c-3.5-0.8-7-1.7-10.4-2.6l-9.2-2.3c-6.6-1.7-13.5-3.4-20.3-5.1c-1.8-0.5-3-0.4-3.9,1
				c-0.3,0.5-0.8,0.9-1.2,1.3c-0.2,0.2-0.3,0.3-0.5,0.5L41.7,50c-4.7,4.7-9.5,9.4-14.2,14.2L21,70.6c-3.9,3.9-7.8,7.8-11.7,11.7
				c-1.3,1.3-2.6,2.5-3.8,3.7C5.1,86.4,4.7,86.8,4.3,87.2z"/>
		</g>
		<g>
			<path class="st0" d="M118.5,53.5c3.6,2.2,7,4.2,10.5,6.3c0.3,0.2,0.5,0.6,0.6,1c0.1,0.3,0,0.7,0,1c0,27.7,0,55.5,0,83.2
				c0,0.6,0,1.1,0,1.8c-7.4,0-14.6,0-22.1,0c0-0.5-0.1-1-0.1-1.5c0-24,0-48.1,0-72.1c0-0.9,0.3-2,0.8-2.8c3.2-5.4,6.4-10.7,9.6-16.1
				C118.1,54.1,118.3,53.9,118.5,53.5z"/>
			<path class="st1" d="M129.6,147.6h-22.1c-0.4,0-0.7-0.3-0.7-0.6l0-0.4c0-0.4,0-0.7,0-1.1l0-4.9c0-22,0-44.8,0-67.2
				c0-1,0.3-2.2,0.9-3.1c2.5-4.3,5.1-8.6,7.6-12.8l2-3.3c0.1-0.2,0.3-0.4,0.4-0.6c0.1-0.1,0.2-0.2,0.3-0.3c0.2-0.3,0.6-0.4,0.9-0.2
				l2.2,1.3c2.8,1.7,5.5,3.3,8.2,5c0.5,0.3,0.7,0.9,0.9,1.4c0.1,0.3,0.1,0.6,0.1,0.9c0,0.1,0,0.2,0,0.3l0,85
				C130.3,147.3,130,147.6,129.6,147.6z M108.2,146.2h20.7l0-84.4c0-0.1,0-0.2,0-0.3c0-0.2,0-0.3,0-0.4c-0.2-0.5-0.3-0.6-0.3-0.6
				c-2.7-1.7-5.4-3.3-8.2-5l-1.7-1c-0.1,0.1-0.2,0.2-0.3,0.4l-2,3.3c-2.5,4.2-5.1,8.5-7.6,12.8c-0.4,0.7-0.7,1.6-0.7,2.4
				c0,22.4,0,45.2,0,67.2l0,4.9C108.1,145.7,108.2,146,108.2,146.2z"/>
		</g>
		<g>
			<path class="st0" d="M62.8,66.9c0,26.8,0,53.4,0,80.1c-7.3,0-14.6,0-22.1,0c0-0.5-0.1-1-0.1-1.5c0-20.8,0-41.6,0-62.4
				c0-1.1,0.4-1.8,1.1-2.6c4.5-4.5,9.1-9,13.6-13.6c1-1,1.9-1.6,3.3-1C59.9,66.3,61.4,66.5,62.8,66.9z"/>
			<path class="st1" d="M62.8,147.6H40.7c-0.4,0-0.7-0.3-0.7-0.6l0-0.5c0-0.4,0-0.7,0-1.1l0-14.6c0-15.9,0-31.9,0-47.8
				c0-1.2,0.4-2.1,1.3-3.1c5.3-5.3,9.7-9.6,13.5-13.6c0.9-1,2.1-1.9,4-1.2c0.9,0.3,1.8,0.5,2.8,0.7c0.4,0.1,0.9,0.2,1.3,0.3
				c0.3,0.1,0.5,0.3,0.5,0.7v80.1C63.5,147.3,63.2,147.6,62.8,147.6z M41.4,146.3h20.7V67.4c-0.3-0.1-0.5-0.1-0.8-0.2
				c-1-0.2-2-0.4-3-0.8c-1.1-0.4-1.7-0.1-2.6,0.9c-3.9,4-8.2,8.3-13.6,13.6c-0.7,0.7-0.9,1.3-0.9,2.1c0,15.9,0,31.9,0,47.8l0,14.6
				C41.3,145.7,41.3,146,41.4,146.3z"/>
		</g>
		<g>
			<path class="st0" d="M74.1,69.7c7.4,1.9,14.7,3.7,22,5.5c0,23.9,0,47.8,0,71.7c-7.3,0-14.6,0-22,0
				C74.1,121.2,74.1,95.6,74.1,69.7z"/>
			<path class="st1" d="M96.1,147.6h-22c-0.4,0-0.7-0.3-0.7-0.7V69.7c0-0.2,0.1-0.4,0.3-0.5c0.2-0.1,0.4-0.2,0.6-0.1l22,5.5
				c0.3,0.1,0.5,0.3,0.5,0.7v71.7C96.8,147.3,96.4,147.6,96.1,147.6z M74.8,146.3h20.6V75.7l-20.6-5.2V146.3z"/>
		</g>
		<g>
			<path class="st0" d="M7.4,146.9c0-13,0-26.1,0-39.4c1.3,1.3,2.5,2.4,3.7,3.6c6-6,11.9-12,17.8-18c0.1,0.1,0.3,0.2,0.4,0.2
				c0,17.8,0,35.6,0,53.6C22,146.9,14.7,146.9,7.4,146.9z"/>
			<path class="st1" d="M29.2,147.5H7.4c-0.4,0-0.7-0.3-0.7-0.7v-39.4c0-0.3,0.2-0.5,0.4-0.6c0.2-0.1,0.5-0.1,0.7,0.1l3.2,3.1
				l17.3-17.5c0.2-0.2,0.6-0.3,0.8-0.1l0.4,0.2c0.2,0.1,0.3,0.3,0.3,0.6v53.6C29.9,147.2,29.6,147.5,29.2,147.5z M8,146.2h20.5V94.2
				l-17,17.2c-0.3,0.3-0.7,0.3-0.9,0L8,109V146.2z"/>
		</g>
	</g>
	<g>
		<line class="st0" x1="116.6" y1="14.4" x2="122.7" y2="10.9"/>
		<path class="st1" d="M116.6,15c-0.2,0-0.5-0.1-0.6-0.3c-0.2-0.3-0.1-0.7,0.3-0.9l6.1-3.5c0.3-0.2,0.7-0.1,0.9,0.3
			c0.2,0.3,0.1,0.7-0.3,0.9l-6.1,3.5C116.8,15,116.7,15,116.6,15z"/>
	</g>
	<g>
		<polyline class="st0" points="107.5,29.7 98.9,24.4 112.8,16.5 		"/>
		<path class="st1" d="M107.5,30.4c-0.1,0-0.2,0-0.4-0.1L98.6,25c-0.2-0.1-0.3-0.3-0.3-0.6c0-0.2,0.1-0.5,0.3-0.6l13.9-7.9
			c0.3-0.2,0.7-0.1,0.9,0.3c0.2,0.3,0.1,0.7-0.3,0.9l-12.9,7.4l7.6,4.7c0.3,0.2,0.4,0.6,0.2,0.9C107.9,30.3,107.7,30.4,107.5,30.4z"
			/>
	</g>
	<g>
		<polyline class="st0" points="44.1,123.7 44.1,143.4 54.9,143.4 		"/>
		<path class="st1" d="M54.9,144.1H44.1c-0.4,0-0.7-0.3-0.7-0.7v-19.7c0-0.4,0.3-0.7,0.7-0.7c0.4,0,0.7,0.3,0.7,0.7v19.1h10.2
			c0.4,0,0.7,0.3,0.7,0.7S55.3,144.1,54.9,144.1z"/>
	</g>
	<g>
		<polyline class="st0" points="10.7,123.7 10.7,143.4 21.6,143.4 		"/>
		<path class="st1" d="M21.6,144.1H10.7c-0.4,0-0.7-0.3-0.7-0.7v-19.7c0-0.4,0.3-0.7,0.7-0.7s0.7,0.3,0.7,0.7v19.1h10.2
			c0.4,0,0.7,0.3,0.7,0.7S21.9,144.1,21.6,144.1z"/>
	</g>
	<g>
		<line class="st0" x1="44.1" y1="94.8" x2="44.1" y2="118.7"/>
		<path class="st1" d="M44.1,119.4c-0.4,0-0.7-0.3-0.7-0.7V94.8c0-0.4,0.3-0.7,0.7-0.7c0.4,0,0.7,0.3,0.7,0.7v23.9
			C44.7,119,44.4,119.4,44.1,119.4z"/>
	</g>
	<g>
		<path class="st0" d="M77.1,142.6v-28.1V142.6z"/>
		<path class="st1" d="M77.1,143.3c-0.4,0-0.7-0.3-0.7-0.7v-28.1c0-0.4,0.3-0.7,0.7-0.7c0.4,0,0.7,0.3,0.7,0.7v28.1
			C77.8,142.9,77.5,143.3,77.1,143.3z"/>
	</g>
	<g>
		<path class="st0" d="M111.3,142.6V90.9V142.6z"/>
		<path class="st1" d="M111.3,143.3c-0.4,0-0.7-0.3-0.7-0.7V90.9c0-0.4,0.3-0.7,0.7-0.7c0.4,0,0.7,0.3,0.7,0.7v51.7
			C112,142.9,111.7,143.3,111.3,143.3z"/>
	</g>
	<g>
		<line class="st0" x1="85.5" y1="142" x2="81.3" y2="142"/>
		<path class="st1" d="M85.5,142.7h-4.2c-0.4,0-0.7-0.3-0.7-0.7s0.3-0.7,0.7-0.7h4.2c0.4,0,0.7,0.3,0.7,0.7S85.8,142.7,85.5,142.7z"
			/>
	</g>
</g>
</svg>
