<?xml version="1.0" encoding="UTF-8" standalone="no"?>
<!-- Created with Inkscape (http://www.inkscape.org/) -->

<svg
   xmlns:dc="http://purl.org/dc/elements/1.1/"
   xmlns:cc="http://creativecommons.org/ns#"
   xmlns:rdf="http://www.w3.org/1999/02/22-rdf-syntax-ns#"
   xmlns:svg="http://www.w3.org/2000/svg"
   xmlns="http://www.w3.org/2000/svg"
   xmlns:sodipodi="http://sodipodi.sourceforge.net/DTD/sodipodi-0.dtd"
   xmlns:inkscape="http://www.inkscape.org/namespaces/inkscape"
   width="158.79062mm"
   height="117.17612mm"
   viewBox="0 0 562.64393 415.19096"
   id="svg2"
   version="1.1"
   inkscape:version="0.91 r13725"
   sodipodi:docname="data-cloud-w.svg">
  <defs
     id="defs4" />
  <sodipodi:namedview
     id="base"
     pagecolor="#ffffff"
     bordercolor="#666666"
     borderopacity="1.0"
     inkscape:pageopacity="0.0"
     inkscape:pageshadow="2"
     inkscape:zoom="1.4"
     inkscape:cx="313.69936"
     inkscape:cy="111.00014"
     inkscape:document-units="px"
     inkscape:current-layer="g3687"
     showgrid="false"
     fit-margin-top="0"
     fit-margin-left="0"
     fit-margin-right="0"
     fit-margin-bottom="0"
     inkscape:window-width="1366"
     inkscape:window-height="705"
     inkscape:window-x="-8"
     inkscape:window-y="-8"
     inkscape:window-maximized="1"
     inkscape:snap-page="false" />
  <metadata
     id="metadata7">
    <rdf:RDF>
      <cc:Work
         rdf:about="">
        <dc:format>image/svg+xml</dc:format>
        <dc:type
           rdf:resource="http://purl.org/dc/dcmitype/StillImage" />
        <dc:title></dc:title>
      </cc:Work>
    </rdf:RDF>
  </metadata>
  <g
     inkscape:label="Layer 1"
     inkscape:groupmode="layer"
     id="layer1"
     transform="translate(613.34035,-291.2271)">
    <g
       id="g3519"
       transform="translate(-142.90908,384.17024)">
      <g
         id="g3769"
         transform="translate(-450.78216,-255.58451)">
        <rect
           id="rect3685"
           height="587"
           width="647"
           display="none"
           y="89.5"
           x="-24.5"
           style="display:none;fill:#8e3c3c" />
        <g
           id="g3687">
          <g
             id="g3811"
             transform="translate(-44.179104,-20.26168)">
            <g
               id="g3813">
              <g
                 id="g3815">
                <path
                   id="path3817"
                   d="m 131.82,334.542 c -7.18,-62.033 13.785,-111.142 72.084,-137.276 59.735,-26.709 111.142,-8.616 152.785,40.206 35.324,-23.837 72.372,-27.57 108.557,-3.446 37.047,24.698 47.386,61.171 37.909,104.25 2.872,0.862 5.457,2.01 8.041,2.872 50.832,17.231 81.275,68.638 72.659,121.768 -8.616,51.694 -54.279,91.039 -106.547,91.039 -113.727,0.287 -227.454,0.287 -341.181,0 -54.279,0 -100.229,-39.632 -107.983,-91.901 -8.041,-54.279 22.688,-105.111 74.095,-121.481 9.478,-2.585 19.816,-3.734 29.581,-6.031 z"
                   inkscape:connector-curvature="0"
                   style="fill:none" />
                <path
                   id="path3819"
                   d="m 305.856,556.539 c -43.589,0 -86.847,0 -129.523,-0.126 -13.559,-0.04 -27.06,-0.092 -40.493,-0.162 -54.853,0 -101.952,-40.206 -109.993,-93.624 -8.328,-55.14 23.55,-107.122 75.531,-123.779 6.893,-2.298 13.785,-3.446 20.678,-4.882 2.585,-0.574 5.169,-0.862 7.754,-1.436 -7.18,-64.905 18.093,-112.291 73.233,-136.989 57.438,-25.56 109.132,-12.349 153.933,39.632 37.622,-24.985 74.382,-25.56 109.132,-2.298 35.611,23.837 48.822,58.874 39.058,104.537 l 6.605,2.298 c 51.694,17.519 82.998,69.787 73.808,124.066 -8.616,52.843 -55.427,92.762 -108.557,92.762 -11.808,0 -23.604,0 -35.386,0 -45.527,10e-4 -90.834,10e-4 -135.78,10e-4 z m -47.96,-369.613 c -17.231,0 -34.75,4.021 -53.13,12.349 -54.566,24.411 -78.403,69.787 -70.936,135.266 0,0.862 -0.574,2.01 -1.436,2.01 -3.159,0.574 -6.318,1.149 -9.477,2.01 -6.605,1.149 -13.498,2.585 -20.103,4.595 -50.258,15.795 -80.987,66.053 -72.946,119.183 7.754,51.407 53.417,90.177 106.26,90.177 13.828,0.036 27.733,0.068 41.709,0.095 97.191,0.188 197.783,0.156 299.472,-0.095 51.407,0 96.208,-38.483 104.537,-89.603 8.616,-52.268 -21.539,-102.814 -71.223,-119.758 l -8.041,-2.872 c -0.862,-0.287 -1.436,-1.436 -1.149,-2.298 10.052,-44.802 -2.585,-79.264 -37.047,-102.239 -33.888,-22.688 -69.5,-21.539 -106.26,3.446 -0.862,0.574 -2.01,0.287 -2.585,-0.287 -29.869,-34.747 -62.608,-51.979 -97.645,-51.979 z"
                   inkscape:connector-curvature="0"
                   style="fill:#ffffff" />
              </g>
              <g
                 id="g3821">
                <path
                   id="path3823"
                   d="m 184.375,248.098 c -0.574,0 -0.862,-0.287 -1.436,-0.574 -0.862,-0.862 -0.862,-2.01 0,-2.872 8.616,-8.616 18.954,-15.795 31.304,-21.252 36.186,-16.083 72.946,-12.062 106.26,12.349 0.862,0.574 1.149,1.723 0.574,2.585 -0.574,0.862 -1.723,1.149 -2.585,0.574 -32.74,-23.549 -67.202,-27.57 -102.527,-11.775 -11.775,5.457 -22.114,12.062 -30.155,20.39 -0.573,0.575 -1.147,0.575 -1.435,0.575 z"
                   inkscape:connector-curvature="0"
                   style="fill:#ffffff" />
              </g>
              <g
                 id="g3825">
                <path
                   id="path3827"
                   d="m 315.908,258.149 c -0.287,0 -0.862,0 -1.149,-0.287 -7.754,-5.457 -15.508,-10.052 -23.549,-13.211 -0.862,-0.287 -1.436,-1.436 -1.149,-2.585 0.287,-0.862 1.436,-1.436 2.585,-1.149 8.328,3.446 16.37,8.041 24.411,13.785 0.862,0.574 1.149,1.723 0.574,2.585 -0.574,0.575 -1.149,0.862 -1.723,0.862 z"
                   inkscape:connector-curvature="0"
                   style="fill:#ffffff" />
              </g>
              <g
                 id="g3829">
                <path
                   id="path3831"
                   d="m 158.241,350.337 c -0.862,0 -1.723,-0.862 -2.01,-1.723 -4.308,-37.047 0.862,-67.202 15.221,-89.316 0.574,-0.862 1.723,-1.149 2.585,-0.574 0.862,0.575 1.149,1.723 0.574,2.585 -13.785,21.539 -18.667,50.545 -14.647,86.731 0.288,1.148 -0.574,2.01 -1.723,2.297 l 0,0 z"
                   inkscape:connector-curvature="0"
                   style="fill:#ffffff" />
              </g>
              <g
                 id="g3833">
                <path
                   id="path3835"
                   d="m 82.136,384.8 c -0.574,0 -1.149,-0.287 -1.436,-0.574 -0.862,-0.862 -0.574,-2.01 0,-2.872 12.349,-11.775 28.719,-20.965 47.099,-26.996 1.149,-0.287 2.01,0.287 2.585,1.149 0.287,1.149 -0.287,2.01 -1.149,2.585 -17.806,5.744 -33.601,14.647 -45.663,26.134 -0.574,0.574 -1.149,0.574 -1.436,0.574 z"
                   inkscape:connector-curvature="0"
                   style="fill:#ffffff" />
              </g>
              <g
                 id="g3837">
                <path
                   id="path3839"
                   d="m 156.518,533.851 c -52.843,0 -94.772,-32.74 -101.952,-79.839 -3.446,-22.401 2.298,-43.653 16.083,-61.746 0.574,-0.862 2.01,-1.149 2.872,-0.287 0.862,0.574 1.149,2.01 0.287,2.872 -13.211,16.944 -18.667,37.335 -15.508,58.587 6.893,45.663 47.673,77.254 99.367,76.679 1.149,0 2.01,0.862 2.01,2.01 0,1.148 -0.862,2.01 -2.01,2.01 -0.287,-0.286 -0.575,-0.286 -1.149,-0.286 z"
                   inkscape:connector-curvature="0"
                   style="fill:#ffffff" />
              </g>
            </g>
            <g
               id="g3841">
              <polygon
                 id="polygon3843"
                 points="178.344,463.403 366,463 488.509,395.913 488.509,513.661 367.315,596.084 178.344,593.499 "
                 style="fill:none" />
              <path
                 id="path3845"
                 d="m 367.315,598.094 0,0 -188.97,-2.585 c -1.149,0 -2.01,-0.862 -2.01,-2.01 l 0,-130.096 c 0,-0.862 0.574,-1.723 1.436,-2.01 l 188.73,-0.559 121.721,-66.93 c 0.574,0 1.149,0 1.436,0.574 0.287,0.287 0.574,0.862 0.574,1.436 l 0,117.747 c 0,0.574 -0.287,1.149 -0.862,1.723 l -121.194,82.71 c 0,0 -0.574,0 -0.861,0 z m -186.96,-6.605 186.386,2.585 119.758,-81.562 0,-114.301 -119.183,67.202 -186.96,-0.574 0,126.65 z"
                 inkscape:connector-curvature="0"
                 style="fill:#ffffff" />
            </g>
            <g
               id="g3847">
              <polygon
                 id="polygon3849"
                 points="488.509,395.913 367.315,463.403 178.344,463.403 327.396,395.913 "
                 style="fill:none" />
              <path
                 id="path3851"
                 d="m 367.315,465.413 -188.97,0 c -0.862,0 -1.723,-0.574 -2.01,-1.436 -0.287,-0.862 0.287,-1.723 1.149,-2.298 L 326.248,394.19 c 0.287,0 0.574,-0.287 0.862,-0.287 l 161.113,0 c 0.862,0 1.723,0.574 2.01,1.436 0.287,0.862 -0.287,1.723 -0.862,2.298 L 367.89,465.126 c -10e-4,0 -0.288,0.287 -0.575,0.287 z m -179.781,-4.021 179.206,0 114.301,-63.469 -153.358,0 -140.149,63.469 z"
                 inkscape:connector-curvature="0"
                 style="fill:#ffffff" />
            </g>
            <g
               id="g3853">
              <line
                 id="line3855"
                 y2="595.51001"
                 x2="367.315"
                 y1="463.40302"
                 x1="367.315"
                 style="fill:none" />
              <path
                 id="path3857"
                 d="m 367.315,597.52 c -1.149,0 -2.01,-0.862 -2.01,-2.01 l 0,-132.107 c 0,-1.149 0.862,-2.01 2.01,-2.01 1.148,0 2.01,0.862 2.01,2.01 l 0,132.107 c -0.287,1.148 -1.149,2.01 -2.01,2.01 z"
                 inkscape:connector-curvature="0"
                 style="fill:#ffffff" />
            </g>
            <g
               id="g3859">
              <path
                 id="path3861"
                 d="m 367.315,509.066 -177.483,0 c -1.149,0 -2.01,-0.862 -2.01,-2.01 0,-1.148 0.862,-2.01 2.01,-2.01 l 176.908,0 117.748,-74.956 c 0.862,-0.574 2.01,-0.287 2.585,0.574 0.574,0.862 0.287,2.01 -0.574,2.585 l -118.322,75.244 c -0.001,0.286 -0.575,0.573 -0.862,0.573 z"
                 inkscape:connector-curvature="0"
                 style="fill:#ffffff" />
            </g>
            <g
               id="g3863">
              <path
                 id="path3865"
                 d="m 367.315,555.878 -177.483,0 c -1.149,0 -2.01,-0.862 -2.01,-2.01 0,-1.148 0.862,-2.01 2.01,-2.01 l 176.908,0 117.748,-74.956 c 0.862,-0.574 2.01,-0.287 2.585,0.574 0.575,0.861 0.287,2.01 -0.574,2.585 l -118.322,75.244 c -0.001,0.573 -0.575,0.573 -0.862,0.573 z"
                 inkscape:connector-curvature="0"
                 style="fill:#ffffff" />
            </g>
            <g
               id="g3867">
              <path
                 id="path3869"
                 d="m 343.765,497.865 -86.157,0 c -0.862,0 -1.436,-0.574 -1.436,-1.436 0,-0.862 0.574,-1.436 1.436,-1.436 l 85.87,0 c 0.862,0 1.436,0.574 1.436,1.436 0,0.862 -0.574,1.436 -1.149,1.436 z"
                 inkscape:connector-curvature="0"
                 style="fill:#ffffff" />
            </g>
            <g
               id="g3871">
              <path
                 id="path3873"
                 d="m 376.792,489.824 c -0.574,0 -0.862,-0.287 -1.149,-0.574 -0.287,-0.574 -0.287,-1.436 0.574,-1.723 l 64.043,-38.771 c 0.574,-0.287 1.436,-0.287 1.723,0.574 0.287,0.574 0.287,1.436 -0.574,1.723 l -64.043,38.771 c 0,0 -0.287,0 -0.574,0 z"
                 inkscape:connector-curvature="0"
                 style="fill:#ffffff" />
            </g>
            <g
               id="g3875">
              <path
                 id="path3877"
                 d="m 415.563,516.245 c -0.574,0 -0.862,-0.287 -1.149,-0.574 -0.287,-0.574 -0.287,-1.436 0.287,-1.723 l 71.797,-45.089 c 0.574,-0.287 1.436,-0.287 1.723,0.287 0.287,0.574 0.287,1.436 -0.287,1.723 l -71.797,45.089 c 0,0.287 -0.287,0.287 -0.574,0.287 z"
                 inkscape:connector-curvature="0"
                 style="fill:#ffffff" />
            </g>
            <g
               id="g3879">
              <path
                 id="path3881"
                 d="m 299.251,586.032 -108.27,0 c -0.862,0 -1.436,-0.574 -1.436,-1.436 0,-0.862 0.574,-1.436 1.436,-1.436 l 108.557,0 c 0.862,0 1.436,0.574 1.436,1.436 -0.287,0.862 -0.861,1.436 -1.723,1.436 z"
                 inkscape:connector-curvature="0"
                 style="fill:#ffffff" />
            </g>
            <g
               id="g3883">
              <path
                 id="path3885"
                 d="m 269.096,456.223 -55.14,0 c -0.574,0 -1.149,-0.287 -1.149,-1.149 0,-0.574 0.287,-1.149 0.862,-1.436 l 87.88,-39.345 c 0.574,-0.287 1.436,0 1.723,0.574 0.287,0.574 0,1.436 -0.574,1.723 l -82.71,37.047 49.109,0 c 0.862,0 1.436,0.574 1.436,1.436 -0.288,0.576 -0.862,1.15 -1.437,1.15 z"
                 inkscape:connector-curvature="0"
                 style="fill:#ffffff" />
            </g>
          </g>
        </g>
      </g>
    </g>
  </g>
  <style
     id="style3517"
     type="text/css">
	.st0{fill-rule:evenodd;clip-rule:evenodd;fill:#FFFFFF;}
	.st1{fill:#0C0C0C;}
</style>
</svg>
