<?xml version="1.0" encoding="utf-8"?>
<!-- Generator: Adobe Illustrator 19.2.0, SVG Export Plug-In . SVG Version: 6.00 Build 0)  -->
<svg version="1.1" id="Layer_1" xmlns="http://www.w3.org/2000/svg" xmlns:xlink="http://www.w3.org/1999/xlink" x="0px" y="0px"
	 viewBox="0 0 213.1 148.4" style="enable-background:new 0 0 213.1 148.4;" xml:space="preserve">
<style type="text/css">
	.st0{fill-rule:evenodd;clip-rule:evenodd;fill:#FFFFFF;}
	.st1{fill:#0C0C0C;}
</style>
<g>
	<g>
		<g>
			<path class="st0" d="M45.9,52.8C43.4,31.2,50.7,14.1,71,5c20.8-9.3,38.7-3,53.2,14c12.3-8.3,25.2-9.6,37.8-1.2
				c12.9,8.6,16.5,21.3,13.2,36.3c1,0.3,1.9,0.7,2.8,1c17.7,6,28.3,23.9,25.3,42.4c-3,18-18.9,31.7-37.1,31.7
				c-39.6,0.1-79.2,0.1-118.8,0c-18.9,0-34.9-13.8-37.6-32c-2.8-18.9,7.9-36.6,25.8-42.3C38.9,54,42.5,53.6,45.9,52.8z"/>
			<path class="st1" d="M106.5,130.1c-20,0-39.8,0-59.2-0.1c-19.1,0-35.5-14-38.3-32.6c-2.9-19.2,8.2-37.3,26.3-43.1
				c2.4-0.8,4.8-1.2,7.2-1.7c0.9-0.2,1.8-0.3,2.7-0.5C42.7,29.5,51.5,13,70.7,4.4c20-8.9,38-4.3,53.6,13.8c13.1-8.7,25.9-8.9,38-0.8
				c12.4,8.3,17,20.5,13.6,36.4l2.3,0.8c18,6.1,28.9,24.3,25.7,43.2c-3,18.4-19.3,32.3-37.8,32.3
				C146.1,130.1,126.2,130.1,106.5,130.1z M89.8,1.4c-6,0-12.1,1.4-18.5,4.3c-19,8.5-27.3,24.3-24.7,47.1c0,0.3-0.2,0.7-0.5,0.7
				c-1.1,0.2-2.2,0.4-3.3,0.7c-2.3,0.4-4.7,0.9-7,1.6C18.3,61.3,7.6,78.8,10.4,97.3c2.7,17.9,18.6,31.4,37,31.4
				c38.3,0.1,78.3,0.1,118.8,0c17.9,0,33.5-13.4,36.4-31.2c3-18.2-7.5-35.8-24.8-41.7l-2.8-1c-0.3-0.1-0.5-0.5-0.4-0.8
				c3.5-15.6-0.9-27.6-12.9-35.6c-11.8-7.9-24.2-7.5-37,1.2c-0.3,0.2-0.7,0.1-0.9-0.1C113.4,7.4,102,1.4,89.8,1.4z"/>
		</g>
		<g>
			<path class="st1" d="M64.2,22.7c-0.2,0-0.3-0.1-0.5-0.2c-0.3-0.3-0.3-0.7,0-1c3-3,6.6-5.5,10.9-7.4c12.6-5.6,25.4-4.2,37,4.3
				c0.3,0.2,0.4,0.6,0.2,0.9c-0.2,0.3-0.6,0.4-0.9,0.2c-11.4-8.2-23.4-9.6-35.7-4.1c-4.1,1.9-7.7,4.2-10.5,7.1
				C64.5,22.7,64.3,22.7,64.2,22.7z"/>
		</g>
		<g>
			<path class="st1" d="M110,26.2c-0.1,0-0.3,0-0.4-0.1c-2.7-1.9-5.4-3.5-8.2-4.6c-0.3-0.1-0.5-0.5-0.4-0.9c0.1-0.3,0.5-0.5,0.9-0.4
				c2.9,1.2,5.7,2.8,8.5,4.8c0.3,0.2,0.4,0.6,0.2,0.9C110.4,26.1,110.2,26.2,110,26.2z"/>
		</g>
		<g>
			<path class="st1" d="M55.1,58.3c-0.3,0-0.6-0.3-0.7-0.6c-1.5-12.9,0.3-23.4,5.3-31.1c0.2-0.3,0.6-0.4,0.9-0.2
				c0.3,0.2,0.4,0.6,0.2,0.9c-4.8,7.5-6.5,17.6-5.1,30.2C55.8,57.9,55.5,58.2,55.1,58.3C55.1,58.3,55.1,58.3,55.1,58.3z"/>
		</g>
		<g>
			<path class="st1" d="M28.6,70.3c-0.2,0-0.4-0.1-0.5-0.2c-0.3-0.3-0.2-0.7,0-1c4.3-4.1,10-7.3,16.4-9.4c0.4-0.1,0.7,0.1,0.9,0.4
				c0.1,0.4-0.1,0.7-0.4,0.9c-6.2,2-11.7,5.1-15.9,9.1C28.9,70.3,28.7,70.3,28.6,70.3z"/>
		</g>
		<g>
			<path class="st1" d="M54.5,122.2c-18.4,0-33-11.4-35.5-27.8c-1.2-7.8,0.8-15.2,5.6-21.5c0.2-0.3,0.7-0.4,1-0.1
				c0.3,0.2,0.4,0.7,0.1,1c-4.6,5.9-6.5,13-5.4,20.4c2.4,15.9,16.6,26.9,34.6,26.7c0.4,0,0.7,0.3,0.7,0.7c0,0.4-0.3,0.7-0.7,0.7
				C54.8,122.2,54.7,122.2,54.5,122.2z"/>
		</g>
		<g>
			<path class="st1" d="M140.7,121.8H75.5c-0.4,0-0.7-0.3-0.7-0.7c0-0.4,0.3-0.7,0.7-0.7h65.2c0.4,0,0.7,0.3,0.7,0.7
				C141.4,121.5,141.1,121.8,140.7,121.8z"/>
		</g>
	</g>
	<g>
		<polygon class="st0" points="149.9,80.9 170.1,78 170.1,119 127.9,147.7 62.1,146.8 62.1,101.5 		"/>
		<path class="st1" d="M127.9,148.4C127.9,148.4,127.9,148.4,127.9,148.4l-65.8-0.9c-0.4,0-0.7-0.3-0.7-0.7l0-45.3
			c0-0.3,0.2-0.6,0.5-0.7l87.8-20.6c0,0,0,0,0.1,0l20.2-2.9c0.2,0,0.4,0,0.5,0.2c0.1,0.1,0.2,0.3,0.2,0.5v41c0,0.2-0.1,0.4-0.3,0.6
			l-42.2,28.8C128.2,148.4,128,148.4,127.9,148.4z M62.8,146.1l64.9,0.9l41.7-28.4V78.8L150,81.6L62.8,102L62.8,146.1z"/>
	</g>
	<g>
		<polygon class="st0" points="114,78 170.1,78 127.9,101.5 62.1,101.5 		"/>
		<path class="st1" d="M127.9,102.2H62.1c-0.3,0-0.6-0.2-0.7-0.5c-0.1-0.3,0.1-0.6,0.4-0.8l51.8-23.5c0.1,0,0.2-0.1,0.3-0.1h56.1
			c0.3,0,0.6,0.2,0.7,0.5c0.1,0.3-0.1,0.6-0.3,0.8l-42.3,23.5C128.1,102.1,128,102.2,127.9,102.2z M65.3,100.8h62.4l39.8-22.1h-53.4
			L65.3,100.8z"/>
	</g>
	<g>
		<line class="st0" x1="127.9" y1="101.5" x2="127.9" y2="147.5"/>
		<path class="st1" d="M127.9,148.2c-0.4,0-0.7-0.3-0.7-0.7v-46c0-0.4,0.3-0.7,0.7-0.7c0.4,0,0.7,0.3,0.7,0.7v46
			C128.5,147.9,128.2,148.2,127.9,148.2z"/>
	</g>
	<g>
		<path class="st1" d="M127.9,117.4H66.1c-0.4,0-0.7-0.3-0.7-0.7c0-0.4,0.3-0.7,0.7-0.7h61.6l41-26.1c0.3-0.2,0.7-0.1,0.9,0.2
			c0.2,0.3,0.1,0.7-0.2,0.9l-41.2,26.2C128.2,117.3,128,117.4,127.9,117.4z"/>
	</g>
	<g>
		<path class="st1" d="M127.9,133.7H66.1c-0.4,0-0.7-0.3-0.7-0.7c0-0.4,0.3-0.7,0.7-0.7h61.6l41-26.1c0.3-0.2,0.7-0.1,0.9,0.2
			c0.2,0.3,0.1,0.7-0.2,0.9l-41.2,26.2C128.2,133.7,128,133.7,127.9,133.7z"/>
	</g>
	<g>
		<path class="st1" d="M119.7,113.5H89.7c-0.3,0-0.5-0.2-0.5-0.5c0-0.3,0.2-0.5,0.5-0.5h29.9c0.3,0,0.5,0.2,0.5,0.5
			C120.1,113.3,119.9,113.5,119.7,113.5z"/>
	</g>
	<g>
		<path class="st1" d="M131.2,110.7c-0.2,0-0.3-0.1-0.4-0.2c-0.1-0.2-0.1-0.5,0.2-0.6l22.3-13.5c0.2-0.1,0.5-0.1,0.6,0.2
			c0.1,0.2,0.1,0.5-0.2,0.6l-22.3,13.5C131.4,110.7,131.3,110.7,131.2,110.7z"/>
	</g>
	<g>
		<path class="st1" d="M144.7,119.9c-0.2,0-0.3-0.1-0.4-0.2c-0.1-0.2-0.1-0.5,0.1-0.6l25-15.7c0.2-0.1,0.5-0.1,0.6,0.1
			c0.1,0.2,0.1,0.5-0.1,0.6l-25,15.7C144.9,119.9,144.8,119.9,144.7,119.9z"/>
	</g>
	<g>
		<path class="st1" d="M104.2,144.2H66.5c-0.3,0-0.5-0.2-0.5-0.5c0-0.3,0.2-0.5,0.5-0.5h37.8c0.3,0,0.5,0.2,0.5,0.5
			C104.7,144,104.5,144.2,104.2,144.2z"/>
	</g>
	<g>
		<path class="st1" d="M93.7,99H74.5c-0.2,0-0.4-0.1-0.4-0.4c0-0.2,0.1-0.4,0.3-0.5L105,84.4c0.2-0.1,0.5,0,0.6,0.2
			c0.1,0.2,0,0.5-0.2,0.6L76.6,98.1h17.1c0.3,0,0.5,0.2,0.5,0.5C94.1,98.8,93.9,99,93.7,99z"/>
	</g>
</g>
</svg>
