<?xml version="1.0" encoding="utf-8"?>
<!-- Generator: Adobe Illustrator 19.2.0, SVG Export Plug-In . SVG Version: 6.00 Build 0)  -->
<svg version="1.1" id="Layer_1" xmlns="http://www.w3.org/2000/svg" xmlns:xlink="http://www.w3.org/1999/xlink" x="0px" y="0px"
	 viewBox="0 0 133 88.4" style="enable-background:new 0 0 133 88.4;" xml:space="preserve">
<style type="text/css">
	.st0{fill-rule:evenodd;clip-rule:evenodd;fill:#FFFFFF;}
	.st1{fill:#0C0C0C;}
</style>
<g>
	<g>
		<path class="st0" d="M25.3,35.9c-1.7-14.6,3.3-26.3,17-32.4c14.2-6.3,26.3-2,36.1,9.5c8.4-5.7,17.1-6.5,25.6-0.8
			c8.8,5.9,11.2,14.4,9,24.7c0.7,0.2,1.3,0.4,1.9,0.7c12,4.1,19.2,16.2,17.2,28.8c-2,12.2-12.8,21.5-25.2,21.6
			c-26.9,0.1-53.8,0.1-80.7,0c-12.8,0-23.7-9.4-25.6-21.7c-1.9-12.8,5.4-24.8,17.5-28.7C20.6,36.7,23,36.4,25.3,35.9z"/>
		<path class="st1" d="M66.6,88.4c-13.6,0-27.1,0-40.2,0c-12.9,0-24.1-9.5-26-22.1c-2-13,5.5-25.3,17.8-29.2
			c1.6-0.5,3.3-0.8,4.9-1.1c0.6-0.1,1.2-0.2,1.8-0.4C23.2,20.1,29.1,8.8,42.2,3C55.7-3.1,68,0.1,78.6,12.3
			c8.9-5.9,17.6-6.1,25.8-0.6c8.4,5.6,11.5,13.9,9.2,24.7l1.5,0.5c12.2,4.2,19.6,16.5,17.5,29.3c-2.1,12.5-13.1,21.9-25.6,21.9
			C93.4,88.4,79.9,88.4,66.6,88.4z M55.1,0.9c-4,0-8.2,1-12.6,2.9C29.6,9.6,24,20.4,25.8,35.8c0,0.2-0.1,0.5-0.4,0.5
			c-0.7,0.2-1.5,0.3-2.2,0.4c-1.6,0.3-3.2,0.6-4.8,1.1C6.6,41.6-0.7,53.5,1.2,66.1C3,78.2,13.8,87.4,26.3,87.4
			c26,0.1,53.1,0.1,80.7,0c12.1,0,22.8-9.1,24.7-21.2c2-12.4-5.1-24.3-16.9-28.3l-1.9-0.7c-0.2-0.1-0.4-0.3-0.3-0.5
			c2.3-10.6-0.6-18.7-8.8-24.2c-8-5.3-16.4-5.1-25.1,0.8c-0.2,0.1-0.5,0.1-0.6-0.1C71.2,5.1,63.4,0.9,55.1,0.9z"/>
	</g>
	<g>
		<path class="st1" d="M37.7,15.4c-0.1,0-0.2,0-0.3-0.1c-0.2-0.2-0.2-0.5,0-0.7c2-2,4.5-3.7,7.4-5c8.5-3.8,17.2-2.8,25.2,2.9
			c0.2,0.1,0.3,0.4,0.1,0.6c-0.1,0.2-0.4,0.3-0.6,0.1c-7.7-5.6-15.9-6.5-24.2-2.8c-2.8,1.3-5.2,2.9-7.1,4.8
			C38,15.4,37.8,15.4,37.7,15.4z"/>
	</g>
	<g>
		<path class="st1" d="M68.9,17.8c-0.1,0-0.2,0-0.3-0.1c-1.8-1.3-3.7-2.4-5.6-3.1c-0.2-0.1-0.3-0.4-0.3-0.6c0.1-0.2,0.4-0.3,0.6-0.3
			c2,0.8,3.9,1.9,5.8,3.2c0.2,0.1,0.3,0.4,0.1,0.6C69.1,17.7,69,17.8,68.9,17.8z"/>
	</g>
	<g>
		<path class="st1" d="M31.6,39.6c-0.2,0-0.4-0.2-0.5-0.4c-1-8.8,0.2-15.9,3.6-21.1c0.1-0.2,0.4-0.3,0.6-0.1
			c0.2,0.1,0.3,0.4,0.1,0.6C32.2,23.6,31,30.5,32,39C32,39.3,31.9,39.5,31.6,39.6C31.6,39.6,31.6,39.6,31.6,39.6z"/>
	</g>
	<g>
		<path class="st1" d="M13.6,47.7c-0.1,0-0.2,0-0.3-0.1c-0.2-0.2-0.2-0.5,0-0.7c2.9-2.8,6.8-5,11.1-6.4c0.2-0.1,0.5,0.1,0.6,0.3
			c0.1,0.2-0.1,0.5-0.3,0.6c-4.2,1.3-7.9,3.5-10.8,6.2C13.8,47.7,13.7,47.7,13.6,47.7z"/>
	</g>
	<g>
		<path class="st1" d="M31.2,83C18.6,83,8.8,75.2,7.1,64.1c-0.8-5.3,0.5-10.3,3.8-14.6c0.2-0.2,0.4-0.2,0.6-0.1
			c0.2,0.2,0.2,0.4,0.1,0.6c-3.1,4-4.4,8.8-3.6,13.9c1.6,10.7,11.1,18.1,23.2,18.1c0.1,0,0.2,0,0.3,0c0.3,0,0.5,0.2,0.5,0.5
			c0,0.3-0.2,0.5-0.5,0.5C31.4,83,31.3,83,31.2,83z"/>
	</g>
	<g>
		<path class="st1" d="M89.7,82.7H45.4c-0.3,0-0.5-0.2-0.5-0.5c0-0.3,0.2-0.5,0.5-0.5h44.3c0.3,0,0.5,0.2,0.5,0.5
			C90.2,82.5,90,82.7,89.7,82.7z"/>
	</g>
</g>
</svg>
