<?xml version="1.0" encoding="utf-8"?>
<!-- Generator: Adobe Illustrator 19.2.0, SVG Export Plug-In . SVG Version: 6.00 Build 0)  -->
<svg version="1.1" id="Layer_1" xmlns="http://www.w3.org/2000/svg" xmlns:xlink="http://www.w3.org/1999/xlink" x="0px" y="0px"
	 viewBox="0 0 127.6 64.1" style="enable-background:new 0 0 127.6 64.1;" xml:space="preserve">
<style type="text/css">
	.st0{fill:#0C0C0C;}
	.st1{fill-rule:evenodd;clip-rule:evenodd;fill:#FFFFFF;}
	.st2{fill-rule:evenodd;clip-rule:evenodd;fill:#0C0C0C;}
</style>
<g>
	<g>
		<g>
			<path class="st0" d="M77.3,64.1c-15.7,0-29.3-14.9-40.8-27.4c-5.6-6.1-10.9-11.9-15.8-15.4C16,18.1,12.1,17.2,9,18.7
				c-5.8,2.7-7.5,12.6-7.9,15.7c3.4-1.8,16.3-7.8,28.5-3.9c0.3,0.1,0.4,0.3,0.3,0.6c-0.1,0.3-0.3,0.4-0.6,0.3
				C15.7,27,0.9,35.5,0.7,35.6c-0.2,0.1-0.3,0.1-0.5,0C0.1,35.5,0,35.4,0,35.2c0-0.6,1.3-13.9,8.6-17.3c3.5-1.6,7.7-0.7,12.6,2.7
				c5,3.5,10.3,9.3,16,15.5c15.3,16.6,32.6,35.5,53.5,23.2c3.3-1.9,6.1-5.9,7-10.1c0.6-2.6,0.8-6.4-1.6-10.2c-0.1-0.2-0.1-0.4,0-0.5
				c0.1-0.2,0.3-0.2,0.5-0.2c0.2,0,17.9,4.2,30.4-1.6c0.2-0.1,0.4-0.1,0.5,0.1c0.1,0.1,0.2,0.3,0.1,0.5c0,0.1-3.3,10.8-13,15.9
				c-0.6,0.4-9,6.3-22.6,8.1c-0.3,0-0.5-0.2-0.5-0.4c0-0.3,0.2-0.5,0.4-0.5c13.7-1.8,22.1-7.9,22.2-8c0,0,0,0,0.1,0
				c7.6-4,11.1-11.6,12.2-14.3c-10.8,4.5-24.9,2.3-28.9,1.5c2,3.7,1.8,7.4,1.2,9.9c-1,4.4-4,8.6-7.5,10.7
				C86.4,62.9,81.7,64.1,77.3,64.1z"/>
		</g>
		<g>
			<path class="st0" d="M94.9,44c-18.3,0-29.3-24.5-29.4-24.7c-2.2-4.4-3.8-5.2-9.1-5.9c-14.7-2-41.8,4.6-42.1,4.6
				c-0.3,0.1-0.5-0.1-0.6-0.4c-0.1-0.3,0.1-0.5,0.4-0.6c0.3-0.1,27.6-6.7,42.5-4.6c5.6,0.8,7.5,1.7,9.9,6.4c0.1,0.3,12,26.8,31.4,24
				c0.3,0,0.5,0.1,0.5,0.4c0,0.3-0.1,0.5-0.4,0.5C96.9,44,95.9,44,94.9,44z"/>
		</g>
	</g>
	<g>
		<path class="st0" d="M37.1,31.9C37.1,31.9,37.1,31.9,37.1,31.9c-0.3,0-0.5-0.2-0.5-0.5c0-0.7,0.2-4.1,1.9-4.8
			c0.7-0.3,1.4,0,2.3,0.7c2.9,2.6,4.3,2.2,6.7,1.1c0.8-0.4,1.3-1,1.7-1.5c0.7-0.9,1.3-1.8,3.5-1.5c3.1,0.5,3.7,0,4.4-0.6
			c0.1-0.1,0.2-0.2,0.2-0.3c0.5-0.7,0.8-0.8,5.2-0.5c0.3,0,0.5,0.2,0.4,0.5c0,0.3-0.3,0.5-0.5,0.4c-4-0.3-4.2-0.1-4.3,0.1
			c-0.1,0.1-0.2,0.3-0.4,0.4c-0.9,0.8-1.9,1.3-5.2,0.8c-1.6-0.3-2,0.2-2.6,1.1c-0.4,0.6-1,1.3-2,1.8c-2.6,1.1-4.5,1.7-7.7-1.3
			c-0.4-0.3-0.9-0.7-1.3-0.5c-0.8,0.3-1.2,2.5-1.3,4C37.6,31.7,37.4,31.9,37.1,31.9z"/>
	</g>
	<g>
		<path class="st0" d="M53.9,36.2c-0.1,0-0.1,0-0.2,0c-0.2-0.1-0.4-0.4-0.3-0.6c0,0,1.7-4.1,6.9-3.9c3,0.1,3.8-0.4,4.5-0.9
			c0.4-0.3,0.9-0.6,1.7-0.7c0.3,0,0.5,0.1,0.5,0.4c0,0.3-0.1,0.5-0.4,0.5c-0.6,0.1-0.9,0.3-1.3,0.5c-0.8,0.5-1.7,1.2-5,1.1
			c-4.5-0.1-5.9,3.3-5.9,3.3C54.3,36.1,54.1,36.2,53.9,36.2z"/>
	</g>
	<g>
		<path class="st0" d="M55.1,50.9c-0.3,0-0.5-0.2-0.5-0.5c0-0.1,0-2.1,1.6-3.7c1.3-1.3,3.3-1.9,5.8-1.8c2.4,0.1,2.7-0.3,3.3-0.8
			c0.4-0.4,0.9-0.9,2-1.3c1-0.4,2.1-0.5,3.2-0.7c1.9-0.2,3.6-0.4,4.7-2c0.2-0.2,0.4-0.3,0.7-0.1c0.2,0.2,0.3,0.4,0.1,0.7
			c-1.3,1.9-3.4,2.1-5.4,2.4c-1.1,0.1-2.1,0.2-3,0.6c-0.9,0.4-1.3,0.7-1.7,1.1c-0.8,0.7-1.4,1.2-4,1.1c-2.3-0.1-4,0.4-5.1,1.5
			c-1.3,1.3-1.3,2.9-1.3,3C55.6,50.7,55.4,50.9,55.1,50.9C55.1,50.9,55.1,50.9,55.1,50.9z"/>
	</g>
	<g>
		<g>
			<path class="st1" d="M97.8,7.1C97.2,8,96,8.3,95.1,7.7l0,0c-0.9-0.6-1.2-1.8-0.6-2.7l2.2-3.6c0.6-0.9,1.8-1.2,2.7-0.6l0,0
				c0.9,0.6,1.2,1.8,0.6,2.7L97.8,7.1z"/>
			<path class="st0" d="M96.1,8.5c-0.5,0-0.9-0.1-1.3-0.4c-1.1-0.7-1.5-2.2-0.8-3.4l2.2-3.6c0.3-0.6,0.9-0.9,1.5-1.1
				c0.6-0.1,1.3,0,1.8,0.3c1.1,0.7,1.5,2.2,0.8,3.4l-2.2,3.6c-0.3,0.6-0.9,0.9-1.5,1.1C96.5,8.5,96.3,8.5,96.1,8.5z M98.4,1
				c-0.1,0-0.2,0-0.3,0c-0.4,0.1-0.7,0.3-0.9,0.7l-2.2,3.6c-0.4,0.7-0.2,1.6,0.5,2.1c0.3,0.2,0.7,0.3,1.1,0.2
				c0.4-0.1,0.7-0.3,0.9-0.7l0,0l2.2-3.6c0.4-0.7,0.2-1.6-0.5-2.1C98.9,1,98.7,1,98.4,1z"/>
		</g>
		<g>
			<path class="st1" d="M75.2,33.1c0,0-1.9,6.4-1.7,8.5c0.2,2.1,7.5-5.8,7.5-5.8L98.9,6.5c0,0-1.7-3.3-5.4-3.1L75.2,33.1z"/>
			<path class="st0" d="M73.9,42.5c-0.1,0-0.2,0-0.2,0c-0.1,0-0.5-0.2-0.5-0.8c-0.2-2.2,1.6-8.4,1.7-8.7c0,0,0-0.1,0.1-0.1L93.2,3.2
				C93.2,3.1,93.4,3,93.5,3c3.9-0.2,5.7,3.2,5.8,3.3c0.1,0.1,0.1,0.3,0,0.5L81.5,36.1c0,0,0,0.1-0.1,0.1
				C79.2,38.6,75.4,42.5,73.9,42.5z M74.1,41.6L74.1,41.6L74.1,41.6z M75.7,33.3c-0.2,0.7-1.8,6.2-1.6,8.2c0.9-0.2,4.1-3.2,6.7-6
				l17.6-29c-0.4-0.7-1.9-2.6-4.5-2.6c0,0,0,0,0,0L75.7,33.3z"/>
		</g>
		<g>
			<path class="st1" d="M75.5,33.2c0,0,1.2,3.7,5.4,2.6"/>
			<path class="st0" d="M79.4,36.5c-3.3,0-4.3-3.1-4.4-3.2c-0.1-0.3,0.1-0.5,0.3-0.6c0.2-0.1,0.5,0.1,0.6,0.3c0,0.1,1.2,3.3,4.8,2.3
				c0.3-0.1,0.5,0.1,0.6,0.3c0.1,0.3-0.1,0.5-0.3,0.6C80.4,36.4,79.9,36.5,79.4,36.5z"/>
		</g>
		<g>
			<path class="st2" d="M74.1,39c0,0-0.1,1.6,2,1.4c0,0-1.9,2.5-2.5,1.5C73.1,40.9,74.1,39,74.1,39z"/>
		</g>
		<g>
			<path class="st1" d="M95.2,10.3l1,0.8l-6.5,10.7c-1.1,2.1-0.1,2.4-0.1,2.4c0.7,0.2,1.4-1,1.4-1c3.5-5.5,8-12.1,7.8-13
				c-0.1-0.8-2.4-2.1-2.4-2.1s-1,0-1.3,0.9"/>
			<path class="st0" d="M89.8,24.8c-0.1,0-0.2,0-0.3-0.1c-0.1,0-0.4-0.2-0.6-0.6c-0.2-0.6-0.1-1.4,0.5-2.5l6.3-10.4l-0.7-0.5
				c-0.2-0.2-0.2-0.5-0.1-0.7c0.2-0.2,0.5-0.2,0.7-0.1l1,0.8c0.2,0.2,0.2,0.4,0.1,0.6l-6.5,10.7c-0.5,1-0.5,1.5-0.4,1.6
				c0,0.1,0.1,0.1,0.1,0.1c0.1,0.1,0.5-0.3,0.8-0.8c0.9-1.5,1.9-3,2.8-4.4c2.2-3.4,4.9-7.5,4.9-8.3c-0.1-0.2-1-1-2-1.6
				c-0.2,0-0.6,0.2-0.7,0.5c-0.1,0.2-0.4,0.4-0.6,0.3c-0.2-0.1-0.4-0.4-0.3-0.6C95,8,95.9,7.8,96.4,7.7c0.1,0,0.2,0,0.3,0.1
				c0.7,0.4,2.4,1.5,2.6,2.4c0.1,0.8-1.3,3.1-5,8.9c-0.9,1.5-1.9,3-2.8,4.4C91.3,23.6,90.7,24.8,89.8,24.8z"/>
		</g>
	</g>
	<g>
		<path class="st0" d="M78.7,60.7c-6.2,0-11.2-2.8-11.3-2.9c-0.2-0.1-0.2-0.3-0.1-0.4c0.1-0.2,0.3-0.2,0.4-0.1
			c0.2,0.1,16,9.1,26.5-5.8c0.1-0.1,0.3-0.2,0.4-0.1c0.1,0.1,0.2,0.3,0.1,0.4C89.9,58.8,83.9,60.7,78.7,60.7z"/>
	</g>
	<g>
		<path class="st0" d="M62.1,18.2c-0.1,0-0.2,0-0.2-0.1c-1-1.1-2.5-1.9-4.5-2.4c-0.2,0-0.3-0.2-0.2-0.4c0-0.2,0.2-0.3,0.4-0.2
			c2.1,0.5,3.7,1.4,4.8,2.6c0.1,0.1,0.1,0.3,0,0.5C62.2,18.1,62.1,18.2,62.1,18.2z"/>
	</g>
	<g>
		<path class="st0" d="M37.7,17c-0.1,0-0.3-0.1-0.3-0.2c0-0.2,0.1-0.3,0.2-0.4c0.1,0,6.9-1.8,13.5-1.9c0,0,0,0,0,0
			c0.2,0,0.3,0.1,0.3,0.3c0,0.2-0.1,0.3-0.3,0.3C44.6,15.2,37.8,16.9,37.7,17C37.7,16.9,37.7,17,37.7,17z"/>
	</g>
</g>
</svg>
