<?xml version="1.0" encoding="utf-8"?>
<!-- Generator: Adobe Illustrator 19.2.0, SVG Export Plug-In . SVG Version: 6.00 Build 0)  -->
<svg version="1.1" id="Layer_1" xmlns="http://www.w3.org/2000/svg" xmlns:xlink="http://www.w3.org/1999/xlink" x="0px" y="0px"
	 viewBox="0 0 133 149.3" style="enable-background:new 0 0 133 149.3;" xml:space="preserve">
<style type="text/css">
	.st0{fill:#FFFFFF;}
	.st1{fill:#0C0C0C;}
	.st2{fill-rule:evenodd;clip-rule:evenodd;fill:#FFFFFF;}
</style>
<g>
	<g>
		<path class="st0" d="M125,29.9c-5.1-2.3-10.5-3.3-16-4c-3.6-0.4-7.2-0.7-10.8-1c-0.6-2.7-1.2-5.5-1.9-8.2
			c-1.5-5.3-4.1-10-9.3-12.6C84.4,2.8,77,0.7,67.6,0.7c-8.7,0-15.1,1.4-16,1.6c-7.3,1.5-12.1,5.8-14.3,12.9c-1,3.2-1.7,6.5-2.5,9.7
			c-4.2,0.4-8.6,0.8-12.9,1.4c-5.2,0.7-10.4,1.8-15.1,4.4c-0.9,0.5-1.8,1.1-2.6,1.8c-3.4,3.3-3,6.6,0.7,9.5c2,1.6,4.4,2,6.9,2.2
			c5.4,0.3,10.7-0.5,15.9-1.6c8.1-1.7,16.2-3.4,24.3-5c10.9-2.2,21.8-1.6,32.7,0.7c8.6,1.8,17.1,3.6,25.7,5.2
			c4.8,0.9,9.7,1.4,14.6,0.1c2.4-0.6,4.3-1.9,5.6-4.1c1.1-1.8,1-3.5-0.1-5.2C129.1,32.1,127.1,30.9,125,29.9z"/>
		<path class="st1" d="M118.6,44.9c-3,0-5.8-0.4-8.4-0.9c-8.4-1.6-16.9-3.4-25.1-5.1l-0.6-0.1c-11.7-2.5-22.3-2.7-32.4-0.6
			c-4.7,0.9-9.4,1.9-14,2.9c-3.4,0.7-6.8,1.4-10.2,2.1c-5.9,1.2-10.9,1.9-16.1,1.6c-2.2-0.1-5-0.5-7.3-2.3c-2.1-1.7-3.2-3.4-3.3-5.3
			c-0.1-1.8,0.8-3.5,2.5-5.2c0.7-0.7,1.6-1.3,2.7-1.9c5-2.8,10.6-3.8,15.4-4.5c3-0.4,6.1-0.7,9-1c1.2-0.1,2.3-0.2,3.5-0.3
			c0.2-0.9,0.4-1.7,0.6-2.6c0.5-2.2,1.1-4.5,1.8-6.7C39,7.6,44,3.1,51.5,1.6l0.1,0c4.9-1,10.6-1.5,16-1.5c9.2,0,16.8,2.1,19.6,3.5
			c4.8,2.4,7.8,6.5,9.7,13c0.5,1.9,1,3.8,1.4,5.7c0.2,0.7,0.3,1.4,0.5,2c1,0.1,1.9,0.2,2.9,0.3c2.4,0.2,5,0.4,7.4,0.7
			c5,0.6,10.8,1.5,16.2,4l0,0c2,0.9,4.3,2.2,5.7,4.6c1.2,2,1.2,3.9,0,5.8c-1.3,2.2-3.3,3.7-5.9,4.4
			C122.9,44.7,120.7,44.9,118.6,44.9z M66.1,35.5c5.9,0,12.1,0.7,18.6,2l0.6,0.1c8.2,1.7,16.7,3.5,25.1,5.1
			c4.3,0.8,9.3,1.4,14.3,0.1c2.3-0.6,4-1.8,5.2-3.8c0.9-1.5,0.9-2.9-0.1-4.5c-1.2-2.1-3.3-3.3-5.1-4.1l0,0c-5.3-2.4-11-3.4-15.8-3.9
			c-2.5-0.3-5-0.5-7.4-0.7c-1.1-0.1-2.2-0.2-3.4-0.3c-0.3,0-0.5-0.2-0.6-0.5c-0.2-0.8-0.4-1.7-0.6-2.5c-0.4-1.9-0.8-3.8-1.4-5.6
			c-1.7-6.1-4.6-9.9-9-12.2c-2.7-1.4-10-3.4-19-3.4c-5.3,0-10.9,0.5-15.7,1.5l-0.1,0c-7,1.4-11.7,5.6-13.8,12.5
			c-0.7,2.2-1.2,4.4-1.8,6.6c-0.2,1-0.5,2-0.8,3c-0.1,0.3-0.3,0.5-0.6,0.5c-1.3,0.1-2.6,0.3-3.9,0.4c-2.9,0.3-6,0.6-9,1
			C17,27.5,11.8,28.5,7,31.2c-1,0.5-1.8,1.1-2.4,1.7c-1.5,1.4-2.2,2.8-2.1,4.2c0.1,1.5,1,2.9,2.8,4.3c2,1.6,4.4,1.9,6.5,2.1
			c5,0.3,9.9-0.4,15.7-1.6c3.4-0.7,6.8-1.4,10.2-2.1c4.7-1,9.4-1.9,14.1-2.9C56.4,35.9,61.2,35.5,66.1,35.5z"/>
	</g>
	<g>
		<path class="st0" d="M12.2,140.3c8.8,3.7,18,5.8,27.4,6.9c5.2,0.6,10.5,1.1,15,1.4h24c4.8-0.4,10.8-1,16.7-1.7
			c8.8-1.1,17.4-3.2,25.6-6.8c0.5-0.2,1-0.8,1-1.3c0-6.1,0.2-12.2-0.2-18.3c-0.5-8-4.3-14.8-9.6-20.7c-3.6-4-7.8-7.5-12.4-10.4
			c-1.3-0.8-1.5-1.7-1.3-3c0.4-4.2,2.3-7.7,4.7-11c0.2-0.3,0.4-0.6,0.6-0.9c0-0.1-0.1-0.3-0.1-0.4c-2.1,0.4-4.3,0.7-6.4,1.3
			c-1.8,0.5-3.5,1.4-5.1,2.2c-2.3,1.2-3.9,2.8-4.9,5.5c-2,5.8-6.2,10.3-10.6,14.4c-3,2.8-6.2,5.5-9.4,8.1c-0.3,0.3-1.1,0.3-1.4,0.1
			c-6.4-5.2-12.8-10.4-17.4-17.4c-1.4-2.2-2.3-4.6-3.4-6.9c-0.3-0.6-0.7-1.3-1.2-1.7c-4.2-3.4-9-5.2-14.8-5.4c0.4,0.6,0.7,1,1,1.4
			c2.4,3.3,4.2,6.9,4.6,11.1c0.1,1.2-0.2,1.9-1.2,2.6c-6.3,4.1-12,8.9-16.2,15.2c-4.1,6.1-6.2,12.7-6.2,20.1c0,4.6,0,9.1,0,13.7
			C11,139.5,11.3,139.9,12.2,140.3z"/>
		<path class="st1" d="M54.6,149.3l-2.1-0.2c-4-0.3-8.5-0.7-12.9-1.3c-10.5-1.3-19.5-3.6-27.6-7c0,0,0,0,0,0
			c-1.2-0.5-1.6-1.2-1.6-2.4c0.1-4.4,0.1-8.8,0-13.7c-0.1-7.4,2.1-14.2,6.3-20.5c3.9-5.7,9.2-10.7,16.4-15.4c0.8-0.5,1-1,0.9-2
			c-0.4-4.4-2.6-8.1-4.5-10.7l-1-1.4c-0.1-0.2-0.2-0.5,0-0.7c0.1-0.2,0.3-0.3,0.6-0.3C35,74,40,75.8,44.3,79.3
			c0.6,0.5,1,1.3,1.4,1.9c0.4,0.8,0.8,1.7,1.2,2.5c0.7,1.5,1.4,3,2.2,4.4c4.4,6.8,10.8,12,16.9,17l0.3,0.2c0.1,0,0.5,0,0.6-0.1
			l1.3-1.1c2.7-2.2,5.4-4.5,8-7c4.2-3.9,8.4-8.4,10.4-14.1c0.9-2.6,2.5-4.4,5.2-5.8c1.5-0.8,3.3-1.7,5.3-2.3c1.5-0.4,3-0.7,4.5-1
			c0.6-0.1,1.3-0.2,1.9-0.3c0.3-0.1,0.6,0.1,0.7,0.4l0.1,0.4c0.1,0.2,0,0.4-0.1,0.6l-0.2,0.3c-0.1,0.2-0.3,0.5-0.5,0.7
			c-2.8,3.8-4.2,7.2-4.6,10.7c-0.1,1.1,0,1.7,1,2.4c4.7,2.9,8.9,6.5,12.5,10.5c6.1,6.8,9.3,13.6,9.8,21.1c0.3,4.7,0.3,9.4,0.3,14
			c0,1.4,0,2.9,0,4.3c0,0.8-0.8,1.6-1.4,1.8c-7.6,3.3-16,5.6-25.7,6.8c-5,0.6-9.9,1.1-14.3,1.5l-2.5,0.2L54.6,149.3z M12.5,139.7
			c8,3.4,16.9,5.7,27.3,6.9c4.4,0.5,8.9,0.9,12.9,1.3l2.1,0.2l24,0l2.4-0.2c4.3-0.4,9.3-0.9,14.2-1.5c9.6-1.2,17.9-3.4,25.4-6.7
			c0.3-0.1,0.6-0.5,0.6-0.7c0-1.4,0-2.9,0-4.3c0-4.6,0.1-9.3-0.3-13.9c-0.5-7.1-3.6-13.8-9.5-20.3c-3.5-3.9-7.6-7.4-12.2-10.2
			c-1.6-1-1.8-2.1-1.6-3.6c0.4-3.8,1.9-7.4,4.9-11.3c0,0,0.1-0.1,0.1-0.1c-0.3,0.1-0.6,0.1-0.9,0.2c-1.4,0.2-2.9,0.5-4.3,0.9
			c-1.8,0.5-3.6,1.4-5,2.2c-2.4,1.3-3.8,2.9-4.6,5.1c-2.1,6-6.4,10.6-10.8,14.7c-2.6,2.4-5.4,4.8-8.1,7l-1.3,1.1
			c-0.5,0.4-1.7,0.6-2.3,0.1l-0.3-0.2c-6.2-5.1-12.7-10.3-17.2-17.3c-0.9-1.4-1.7-3-2.3-4.6c-0.4-0.8-0.7-1.6-1.1-2.4
			c-0.3-0.5-0.6-1.2-1-1.5c-3.7-3.1-8-4.8-13-5.2l0.2,0.3c2,2.8,4.3,6.6,4.7,11.4c0.1,1.5-0.3,2.4-1.5,3.2c-7,4.5-12.3,9.5-16,15
			c-4.1,6-6.1,12.6-6.1,19.7c0,4.9,0,9.4,0,13.7C11.6,139.2,11.8,139.4,12.5,139.7L12.5,139.7z"/>
	</g>
	<g>
		<path class="st1" d="M48.4,102.1c-0.1,0-0.3,0-0.4-0.1C40,96.4,34.2,88.7,34.1,88.6c-0.2-0.3-0.2-0.7,0.1-0.9
			c0.3-0.2,0.7-0.2,0.9,0.1c0.1,0.1,5.7,7.6,13.6,13c0.3,0.2,0.4,0.6,0.2,0.9C48.8,102,48.6,102.1,48.4,102.1z"/>
	</g>
	<g>
		<path class="st1" d="M82.5,100c-0.2,0-0.4-0.1-0.5-0.2c-0.2-0.3-0.2-0.7,0-0.9c7.1-6.6,15.9-10.7,15.9-10.7c0.3-0.2,0.7,0,0.9,0.3
			c0.2,0.3,0,0.7-0.3,0.9c-0.1,0-8.6,4.1-15.6,10.5C82.8,100,82.7,100,82.5,100z"/>
	</g>
	<g>
		<g>
			<path class="st2" d="M29.5,47.3c11.4,0,22.5,0,33.6,0c1.6,9.8-3.7,18.3-14.8,18.9c-12.9,0.6-17-8.3-18.4-16.3
				C29.7,49.1,29.6,48.3,29.5,47.3z"/>
			<path class="st1" d="M47,66.9c-9.9,0-15.9-5.7-17.8-16.9c-0.1-0.5-0.2-1.1-0.2-1.7c0-0.3-0.1-0.6-0.1-0.9c0-0.2,0-0.4,0.2-0.5
				c0.1-0.1,0.3-0.2,0.5-0.2h33.6c0.3,0,0.6,0.2,0.6,0.5c0.9,5.3-0.2,10.3-3.1,13.9c-2.8,3.5-7.1,5.5-12.3,5.8
				C47.9,66.9,47.4,66.9,47,66.9z M30.2,48c0,0.1,0,0.1,0,0.2c0.1,0.6,0.1,1.1,0.2,1.6c1.9,10.9,7.9,16.2,17.7,15.8
				c4.9-0.3,8.8-2.1,11.4-5.3c2.6-3.2,3.6-7.5,2.9-12.3H30.2z"/>
		</g>
		<g>
			<path class="st2" d="M103.7,47.3c-11.4,0-22.5,0-33.6,0c-1.6,9.8,3.7,18.3,14.8,18.9c12.9,0.6,17-8.3,18.4-16.3
				C103.5,49.1,103.6,48.3,103.7,47.3z"/>
			<path class="st1" d="M86.2,66.9c-0.4,0-0.8,0-1.3,0c-5.3-0.3-9.5-2.3-12.3-5.8c-2.9-3.6-4-8.5-3.1-13.9c0.1-0.3,0.3-0.5,0.6-0.5
				h33.6c0.2,0,0.4,0.1,0.5,0.2c0.1,0.1,0.2,0.3,0.2,0.5c0,0.3-0.1,0.6-0.1,0.9c-0.1,0.6-0.1,1.1-0.2,1.7
				C102,61.2,96.1,66.9,86.2,66.9z M70.7,48c-0.7,4.8,0.4,9.1,2.9,12.3c2.6,3.2,6.5,5,11.4,5.3c9.9,0.5,15.8-4.8,17.7-15.8
				c0.1-0.5,0.2-1,0.2-1.6c0-0.1,0-0.1,0-0.2H70.7z"/>
		</g>
		<g>
			<g>
				<path class="st1" d="M46.7,64.4c-3.5,0-5.7-1.2-6.5-1.7c-0.2-0.1-0.3-0.4-0.1-0.6c0.1-0.2,0.4-0.3,0.6-0.1
					c1.2,0.7,5.5,3,12.5,0.3c0.2-0.1,0.5,0,0.6,0.2c0.1,0.2,0,0.5-0.2,0.6C50.9,64,48.6,64.4,46.7,64.4z"/>
			</g>
			<g>
				<path class="st1" d="M37.8,60.8c-0.1,0-0.2,0-0.3-0.1c-2-2-2.4-4.1-2.5-4.2c-0.1-0.2,0.1-0.5,0.3-0.5c0.2-0.1,0.5,0.1,0.5,0.3
					c0,0,0.5,1.9,2.2,3.7c0.2,0.2,0.2,0.4,0,0.6C38,60.8,37.9,60.8,37.8,60.8z"/>
			</g>
		</g>
		<g>
			<g>
				<path class="st1" d="M85.6,63.9c-3.5,0-5.7-1.2-6.5-1.7c-0.2-0.1-0.3-0.4-0.1-0.6c0.1-0.2,0.4-0.3,0.6-0.1
					c1.2,0.7,5.5,3,12.5,0.3c0.2-0.1,0.5,0,0.6,0.2c0.1,0.2,0,0.5-0.2,0.6C89.8,63.5,87.5,63.9,85.6,63.9z"/>
			</g>
			<g>
				<path class="st1" d="M76.7,60.3c-0.1,0-0.2,0-0.3-0.1c-2-2-2.4-4.1-2.5-4.2c-0.1-0.2,0.1-0.5,0.3-0.5c0.2-0.1,0.5,0.1,0.5,0.3
					c0,0,0.5,1.9,2.2,3.7c0.2,0.2,0.2,0.4,0,0.6C76.9,60.3,76.8,60.3,76.7,60.3z"/>
			</g>
		</g>
	</g>
	<g>
		<path class="st1" d="M42.9,11.8c-0.1,0-0.2,0-0.3-0.1c-0.2-0.1-0.2-0.4-0.1-0.6C45.4,7,49.7,4.9,56.4,4c0.2,0,0.5,0.1,0.5,0.4
			c0,0.2-0.1,0.5-0.4,0.5C50,5.7,45.9,7.8,43.2,11.6C43.1,11.7,43,11.8,42.9,11.8z"/>
	</g>
	<g>
		<path class="st1" d="M38.9,23.7C38.9,23.7,38.9,23.7,38.9,23.7c-0.2,0-0.4-0.2-0.4-0.4c0-0.2,0.1-4.3,2.1-8.8
			c0.1-0.2,0.4-0.3,0.6-0.2c0.2,0.1,0.3,0.4,0.2,0.6c-2,4.4-2.1,8.4-2.1,8.4C39.3,23.5,39.1,23.7,38.9,23.7z"/>
	</g>
	<g>
		<path class="st1" d="M14.9,136.7c-0.2,0-0.4-0.2-0.4-0.4c-0.5-10.2,1.2-19.1,1.2-19.2c0-0.2,0.3-0.4,0.5-0.3
			c0.2,0,0.4,0.3,0.3,0.5c0,0.1-1.7,8.9-1.2,19C15.4,136.5,15.2,136.7,14.9,136.7C14.9,136.7,14.9,136.7,14.9,136.7z"/>
	</g>
	<g>
		<path class="st1" d="M17.6,112.2c-0.1,0-0.1,0-0.2,0c-0.2-0.1-0.3-0.3-0.2-0.6c4.3-10.3,14.9-16.5,15.1-16.6
			c0.2-0.1,0.5,0,0.6,0.2c0.1,0.2,0,0.5-0.2,0.6c-0.1,0.1-10.5,6.2-14.7,16.1C18,112.1,17.8,112.2,17.6,112.2z"/>
	</g>
	<g>
		<path class="st1" d="M43.2,36.3c-0.2,0-0.4-0.1-0.4-0.4c0-0.2,0.1-0.5,0.3-0.5c10.5-2.1,21.4-4.2,36.5-1.4c0.2,0,0.4,0.3,0.3,0.5
			c0,0.2-0.3,0.4-0.5,0.3C64.5,32.1,53.7,34.3,43.2,36.3C43.2,36.3,43.2,36.3,43.2,36.3z"/>
	</g>
	<g>
		<path class="st1" d="M15.2,42.2c-4.8,0-6.5-1.4-6.7-1.4c-0.2-0.2-0.2-0.4-0.1-0.6c0.2-0.2,0.4-0.2,0.6-0.1c0.1,0,4,3,16.4-0.3
			l2.1-0.6c2.7-0.7,5.8-1.6,9.1-2.3c0.2-0.1,0.5,0.1,0.5,0.3c0.1,0.2-0.1,0.5-0.3,0.5c-3.3,0.8-6.4,1.6-9.1,2.3l-2.2,0.6
			C21.2,41.8,17.7,42.2,15.2,42.2z"/>
	</g>
</g>
</svg>
