<?xml version="1.0" encoding="utf-8"?>
<!-- Generator: Adobe Illustrator 19.2.0, SVG Export Plug-In . SVG Version: 6.00 Build 0)  -->
<svg version="1.1" id="Layer_1" xmlns="http://www.w3.org/2000/svg" xmlns:xlink="http://www.w3.org/1999/xlink" x="0px" y="0px"
	 viewBox="0 0 213.1 148.4" style="enable-background:new 0 0 213.1 148.4;" xml:space="preserve">
<style type="text/css">
	.st0{fill:#FFFFFF;}
	.st1{fill:#0C0C0C;}
	.st2{fill-rule:evenodd;clip-rule:evenodd;fill:#FFFFFF;}
	
		.st3{fill-rule:evenodd;clip-rule:evenodd;fill:none;stroke:#0C0C0C;stroke-width:1.5;stroke-linecap:round;stroke-linejoin:round;stroke-miterlimit:10;}
</style>
<g>
	<g>
		<path class="st0" d="M170.3,103.1c-0.8,0-1.6-0.1-2.5-0.2c-1.5-0.2-2.5-1.6-2.3-3.1c0.2-1.5,1.6-2.5,3.1-2.3
			c2.4,0.3,4.3,0,5.3-0.9c0.5-0.5,0.7-1,0.6-1.7c-0.1-0.6-1.8-1.3-3.1-1.5c-0.1,0-0.1,0-0.2,0c-9.4-1.8-9.6-6.4-9.4-7.7
			c0.4-2.8,3.3-5.4,9.2-5c1.7,0.1,2.5-0.4,2.8-0.7c-0.3-0.3-1.1-0.8-3.3-1.4c-5.7-1.3-7.8-2.8-8.4-5.9c-0.5-2.2,0.1-4.3,1.7-5.7
			c1.8-1.6,4.6-2,6.2-1.5c3.1,0.9,4.1,0.3,4.4,0.1c0.6-0.5,0.6-1.5,0.6-1.6c0-0.1,0-0.3,0-0.5c1.3-10.7-8.4-20.5-8.5-20.6
			c-1.1-1.1-1.1-2.8,0-3.9c1.1-1.1,2.8-1.1,3.9,0c0.5,0.5,11.5,11.7,10.1,24.9c0,1-0.2,3.9-2.6,5.8c-2.2,1.8-5.4,2-9.4,0.8
			c-0.2,0-0.9,0.2-1,0.3c0,0-0.1,0.1,0,0.5c0,0.1,0,0.2,0.1,0.3c0,0,0,0,0,0c0,0,0.7,0.6,4.2,1.4c3.6,0.8,5.8,2.2,6.9,4.1
			c0.7,1.2,0.9,2.7,0.5,4.1c-0.8,2.6-3.7,5-8.4,4.7c-1.5-0.1-2.5,0.1-3,0.3c0.6,0.5,2,1.1,4.5,1.6c2.8,0.4,7.4,2.1,7.8,6.4
			c0.2,2.3-0.6,4.5-2.3,6.1C175.8,102.3,173.3,103.1,170.3,103.1z"/>
		<path class="st1" d="M170.3,104c-0.8,0-1.7-0.1-2.6-0.2c-0.9-0.1-1.8-0.6-2.3-1.4c-0.6-0.8-0.8-1.7-0.7-2.6
			c0.1-0.9,0.6-1.8,1.4-2.3c0.8-0.6,1.7-0.8,2.6-0.7c2.1,0.3,3.8,0,4.6-0.7c0.3-0.2,0.4-0.5,0.4-0.9c-0.3-0.3-1.4-0.7-2.4-0.9
			c-0.1,0-0.2,0-0.2,0c-10.1-1.9-10.3-7.1-10.1-8.7c0.4-3.1,3.7-6.1,10.1-5.7c0.3,0,0.6,0,0.8,0c-0.4-0.2-0.9-0.3-1.6-0.5
			c-6-1.4-8.3-3.1-9-6.6c-0.5-2.5,0.2-4.8,1.9-6.4c2-1.9,5.1-2.3,7-1.7c2.9,0.9,3.7,0.3,3.7,0.3c0.1-0.1,0.3-0.6,0.3-0.9
			c0-0.2,0-0.4,0-0.6c1.2-10.3-8.2-19.8-8.3-19.9c-0.7-0.7-1-1.6-1-2.5c0-0.9,0.4-1.8,1-2.5c1.4-1.4,3.6-1.4,5,0
			c0.5,0.5,11.8,12,10.3,25.6c0,1.1-0.2,4.3-2.9,6.4c-2.1,1.7-4.9,2.2-8.5,1.4c0.5,0.2,1.2,0.3,2,0.5c3.8,0.9,6.2,2.3,7.5,4.5
			c0.8,1.4,1,3.1,0.5,4.7c-0.9,2.8-4,5.5-9,5.3c0.4,0.1,0.9,0.2,1.4,0.3c2.9,0.4,8.1,2.3,8.5,7.1c0.2,2.6-0.7,5-2.6,6.8
			C176.2,103,173.5,104,170.3,104z M168.1,98.3c-0.4,0-0.8,0.1-1.1,0.4c-0.4,0.3-0.7,0.8-0.8,1.3c-0.2,1,0.6,2,1.6,2.2
			c0.8,0.1,1.6,0.2,2.4,0.2c2.8,0,5.2-0.8,6.8-2.3c1.5-1.4,2.2-3.4,2.1-5.5c-0.3-3.8-4.6-5.3-7.1-5.7c-2.9-0.6-4.3-1.4-4.9-1.8
			c-0.2-0.2-0.4-0.5-0.3-0.8c0-0.3,0.2-0.6,0.5-0.7c0.6-0.2,1.7-0.5,3.4-0.4c4.3,0.3,6.9-1.9,7.6-4.2c0.3-1.2,0.2-2.4-0.4-3.4
			c-1-1.7-3.1-2.9-6.4-3.7c-1.5-0.3-3.4-0.9-4.4-1.5c-0.2-0.1-0.3-0.2-0.4-0.4c-0.1-0.1-0.1-0.3-0.1-0.4c-0.1-0.6-0.1-0.9,0-1
			c0-0.1,0-0.1,0.1-0.2c0.4-0.6,1.4-0.7,1.8-0.7c0,0,0.1,0,0.1,0c3.8,1.1,6.7,0.9,8.6-0.7c2.1-1.7,2.3-4.2,2.3-5.2
			c1.4-13-9.4-23.9-9.8-24.4c-0.7-0.7-2-0.7-2.7,0c-0.4,0.4-0.6,0.8-0.6,1.4c0,0.5,0.2,1,0.6,1.3c0.1,0.1,10,10.2,8.7,21.3
			c0,0.1,0,0.2,0,0.3h0c0,0.4-0.1,1.6-0.9,2.2c-0.5,0.4-1.9,1-5.1,0c-1.5-0.4-3.9-0.1-5.4,1.3c-1.3,1.2-1.8,2.9-1.4,4.9
			c0.5,2.5,1.8,3.9,7.8,5.3c2.2,0.5,3.3,1.1,3.7,1.6c0.3,0.3,0.4,0.8,0.1,1.1c-0.5,0.6-1.6,1.1-3.5,1c-5.4-0.3-8.1,1.9-8.4,4.3
			c-0.2,1.2,0,5.2,8.7,6.8l0.1,0c0.8,0.1,3.7,0.8,3.9,2.2c0.1,0.9-0.2,1.7-0.9,2.3c-1.2,1.1-3.3,1.5-6,1.1
			C168.3,98.3,168.2,98.3,168.1,98.3z M168.1,71.2C168.1,71.2,168.1,71.2,168.1,71.2S168.1,71.2,168.1,71.2z"/>
	</g>
	<g>
		<path class="st2" d="M39.4,147.5c1.2,0.1,127.7,0,128.6,0c8.1-0.2,13.7-5.8,13.8-13.9c0-4.2,0-8.4,0-12.6c0.1-4.9-1.6-9-4.9-12.5
			c-13.5-14.4-30.6-32.7-44.3-46.9c-1.8-2.5-1.3-4.3-1.6-9.8c0.5-5.3-3.5-9.1-8.4-9.1c-4.9,0-8.4,3.8-8.4,9c0,2.5,0,5.1,0,7.8
			c-6.8,0-13.4,0-20.3,0c0-2.8,0-5.5,0-8.2c-0.1-4.9-3.7-8.5-8.4-8.6c-4.8,0-8.5,3.7-8.5,8.6c0,2,0.2,4.1-0.1,6.1
			c-0.2,1.3-0.6,2.8-1.5,3.7C60.7,77,46,92.8,31.2,108.6c-3.2,3.4-4.9,7.3-4.9,12c0,4.4,0,8.9,0,13.3
			C26.3,141.4,31.9,147.2,39.4,147.5z M104.1,76.6c14.8,0,27,12.1,27,26.8c0,15.2-12.1,27.3-27.2,27.3c-14.9,0-26.9-12.3-26.9-27.4
			C77.1,88.6,89.2,76.6,104.1,76.6z"/>
		<path class="st1" d="M117.3,148.4c-35.8,0-77.5,0-77.9,0c-8-0.4-13.9-6.4-13.9-14.5c0-2.1,0-4.3,0-6.4c0-2.3,0-4.6,0-6.9
			c0-4.8,1.6-8.9,5.1-12.6l3.9-4.2c13.2-14.1,26.9-28.7,40.3-43.2c0.6-0.7,1.1-1.9,1.3-3.3c0.2-1.3,0.1-2.6,0.1-3.9
			c0-0.7,0-1.4,0-2.1c0.1-5.4,4.1-9.4,9.3-9.4c0,0,0,0,0.1,0c5.1,0,9.1,4.1,9.2,9.4c0,1.9,0,3.7,0,5.6c0,0.6,0,1.2,0,1.8h18.6l0-1.8
			c0-1.8,0-3.5,0-5.2c0-5.6,3.9-9.8,9.2-9.8c0,0,0.1,0,0.1,0c2.7,0,5.2,1.1,6.9,2.9c1.7,1.9,2.5,4.3,2.3,7c0.1,1.3,0.1,2.3,0.1,3.3
			c0.1,3.1,0.1,4.4,1.3,6c12.2,12.6,26.9,28.3,39.8,42l4.5,4.8c3.5,3.7,5.2,8.1,5.1,13c0,2.4,0,4.8,0,7.2c0,1.8,0,3.6,0,5.4
			c-0.1,8.5-6.1,14.5-14.6,14.7C167.3,148.4,143.9,148.4,117.3,148.4z M39.4,146.7c1.8,0.1,127.7,0,128.5,0
			c7.7-0.2,12.9-5.4,13-13.1c0-1.8,0-3.6,0-5.4c0-2.4,0-4.8,0-7.2c0.1-4.6-1.5-8.4-4.7-11.9l-4.5-4.8
			c-12.9-13.8-27.6-29.5-39.8-42.1c0,0-0.1-0.1-0.1-0.1c-1.5-2.1-1.6-3.9-1.6-7c0-0.9,0-2-0.1-3.3c0,0,0-0.1,0-0.1
			c0.2-2.2-0.5-4.3-1.9-5.8c-1.4-1.5-3.5-2.4-5.7-2.4c0,0-0.1,0-0.1,0c-4.4,0-7.6,3.4-7.6,8.2c0,1.7,0,3.4,0,5.2l0,2.6
			c0,0.5-0.4,0.8-0.8,0.8H93.9c-0.5,0-0.8-0.4-0.8-0.8c0-0.9,0-1.8,0-2.6c0-1.9,0-3.7,0-5.6c-0.1-4.4-3.4-7.7-7.6-7.8c0,0,0,0-0.1,0
			c-4.3,0-7.6,3.4-7.7,7.8c0,0.7,0,1.3,0,2c0,1.4,0.1,2.8-0.1,4.2c-0.1,0.8-0.5,2.9-1.7,4.2c-13.4,14.4-27.1,29-40.3,43.2l-3.9,4.2
			c-3.2,3.4-4.7,7.1-4.7,11.4c0,2.3,0,4.6,0,6.9c0,2.1,0,4.3,0,6.4C27.2,141,32.3,146.4,39.4,146.7z M103.9,131.5
			C103.9,131.5,103.9,131.5,103.9,131.5c-7.4,0-14.4-2.9-19.6-8.2c-5.3-5.3-8.2-12.5-8.2-20c0.1-15.2,12.6-27.5,27.9-27.5
			c0,0,0,0,0,0l0,0c15.3,0,27.8,12.4,27.8,27.6c0,7.6-2.9,14.7-8.2,20C118.4,128.6,111.4,131.5,103.9,131.5z M104.1,77.4
			c-14.4,0-26.2,11.6-26.3,25.9c0,7.1,2.7,13.9,7.7,18.9c4.9,4.9,11.4,7.7,18.4,7.7c0,0,0,0,0.1,0c7,0,13.6-2.7,18.6-7.6
			c5-5,7.7-11.7,7.8-18.8C130.3,89.1,118.5,77.4,104.1,77.4C104.1,77.4,104.1,77.4,104.1,77.4z"/>
	</g>
	<g>
		<path class="st2" d="M103.8,29.2c-10.6,1.2-21.2,2.5-31.9,3.7c-5.3,0.6-8,4-7.4,9.3c0.5,4,0.9,7.9,1.3,11.9c0.4,4.2-1.5,7-5.6,7.9
			c-8.8,1.8-17.5,3.6-26.3,5.3c-4.5,0.9-8-2.2-8-6.8c-0.1-7.1,0.5-14.1,2.2-21c2.5-10.7,8.9-18.1,18.7-22.9C56.2,12,66,8.9,76,6.6
			c19.3-4.4,38.9-6.5,58.7-5.5c6.4,0.3,12.9,1.3,19.2,2.2c14.8,2.2,23.9,11.1,28.8,24.8c1.6,4.6,2.9,9.3,4.2,14
			c1,3.9-1.7,7.9-5.7,8.1c-9.4,0.5-18.8,0.8-28.2,0.9c-3.4,0.1-5.9-2.4-6.4-5.8c-0.5-4-0.9-7.9-1.4-11.9c-0.8-6.1-3.9-8.6-10-7.9
			C124.8,26.8,114.3,28,103.8,29.2z"/>
		<path class="st1" d="M32.4,68.2c-1.7,0-3.3-0.5-4.6-1.6c-1.7-1.4-2.7-3.6-2.8-6.2c-0.1-7.6,0.6-14.6,2.2-21.2
			c2.6-10.8,8.8-18.5,19.2-23.4c8.7-4.2,18.3-7.5,29.4-9.9c20.6-4.6,39.8-6.5,58.9-5.6c6,0.3,12.1,1.2,18,2l1.4,0.2
			c14.3,2.1,24.2,10.6,29.5,25.3c1.7,4.7,3,9.6,4.2,14.1c0.6,2.2,0.1,4.5-1.2,6.2c-1.3,1.7-3.2,2.8-5.3,2.9
			c-8.6,0.4-17.8,0.7-28.2,0.9c-3.7,0.1-6.7-2.6-7.2-6.5c-0.3-2.3-0.6-4.6-0.8-6.9c-0.2-1.7-0.4-3.3-0.6-5c-0.7-5.7-3.4-7.8-9.1-7.1
			l-63.3,7.3c-4.9,0.6-7.3,3.5-6.7,8.4l0.4,3.1c0.3,2.9,0.7,5.9,1,8.8c0.5,4.6-1.8,7.8-6.3,8.8c-9.4,2-18,3.7-26.4,5.3
			C33.5,68.1,33,68.2,32.4,68.2z M125.4,1.6c-15.9,0-32.1,1.9-49.1,5.7c-10.9,2.5-20.4,5.7-29,9.8C37.3,22,31.3,29.3,28.9,39.6
			c-1.6,6.5-2.3,13.3-2.2,20.8c0,2.1,0.8,3.8,2.2,4.9c1.3,1.1,3,1.4,4.9,1.1c8.3-1.6,16.9-3.3,26.3-5.3c3.7-0.8,5.4-3.2,5-7
			c-0.3-2.9-0.6-5.9-1-8.8l-0.4-3.1c-0.7-5.7,2.4-9.5,8.1-10.2l63.3-7.3c6.6-0.8,10.1,2,10.9,8.6c0.2,1.7,0.4,3.3,0.6,5
			c0.3,2.3,0.5,4.6,0.8,6.9c0.4,3.1,2.7,5.2,5.6,5.1c10.4-0.2,19.6-0.5,28.2-0.9c1.6-0.1,3.1-0.9,4.1-2.2c1-1.4,1.4-3.2,0.9-4.9
			c-1.2-4.5-2.5-9.3-4.1-14c-5-14.1-14.5-22.2-28.2-24.2l-1.4-0.2c-5.8-0.9-11.9-1.7-17.8-2C131.6,1.7,128.5,1.6,125.4,1.6z
			 M103.8,29.2L103.8,29.2L103.8,29.2z"/>
	</g>
	<g>
		<path class="st2" d="M104,90.1c7.5,0,13.6,6,13.6,13.4c0,7.6-6.1,13.7-13.6,13.7c-7.4,0-13.4-6.1-13.5-13.6
			C90.5,96.2,96.5,90.1,104,90.1z"/>
		<path class="st1" d="M104,118C104,118,104,118,104,118c-7.9,0-14.3-6.5-14.3-14.4c0-3.8,1.4-7.3,4.1-10c2.7-2.7,6.3-4.3,10.2-4.3
			c3.8,0,7.5,1.5,10.2,4.2c2.7,2.7,4.2,6.2,4.2,10c0,3.9-1.5,7.6-4.3,10.3C111.4,116.5,107.8,118,104,118z M104,90.1l0,0.8
			c-3.4,0-6.6,1.4-9,3.8c-2.4,2.4-3.7,5.5-3.6,8.9c0.1,7,5.7,12.7,12.6,12.8c0,0,0,0,0.1,0c3.4,0,6.5-1.3,8.9-3.7
			c2.5-2.4,3.8-5.7,3.8-9.2c0-3.3-1.3-6.4-3.7-8.8c-2.4-2.4-5.6-3.8-9-3.8c0,0,0,0,0,0L104,90.1z"/>
	</g>
	<g>
		<path class="st1" d="M50.3,20.7c-0.3,0-0.6-0.2-0.7-0.5c-0.2-0.4,0-0.9,0.4-1.1c14.8-6.7,43.5-14.2,67.7-14.8
			c0.5,0,0.8,0.3,0.8,0.8c0,0.5-0.3,0.8-0.8,0.8c-23.1,0.6-52.3,7.9-67.1,14.7C50.5,20.7,50.4,20.7,50.3,20.7z"/>
	</g>
	<g>
		<path class="st1" d="M33.3,43.9C33.3,43.9,33.3,43.9,33.3,43.9c-0.5,0-0.8-0.4-0.8-0.8c0-0.1,0.6-10.8,9.7-18.9
			c0.3-0.3,0.9-0.3,1.2,0.1c0.3,0.3,0.3,0.9-0.1,1.2c-8.5,7.5-9.1,17.6-9.1,17.7C34.1,43.5,33.7,43.9,33.3,43.9z"/>
	</g>
	<g>
		<path class="st1" d="M31.9,137.7c-0.5,0-0.8-0.4-0.8-0.8v-13.2c-0.2-8.5,3.8-13,3.9-13.2c0.3-0.3,0.8-0.4,1.2-0.1
			c0.3,0.3,0.4,0.8,0.1,1.2c-0.1,0.1-3.7,4.3-3.5,12v13.3C32.7,137.3,32.3,137.7,31.9,137.7z"/>
	</g>
	<g>
		<path class="st1" d="M38.9,108.1c-0.2,0-0.4-0.1-0.5-0.2c-0.3-0.3-0.4-0.8-0.1-1.2L58,84.4c0.3-0.3,0.8-0.4,1.2-0.1
			c0.3,0.3,0.4,0.8,0.1,1.2l-19.7,22.3C39.3,108,39.1,108.1,38.9,108.1z"/>
	</g>
	<g>
		<path class="st1" d="M104,135.4c0,0-0.1,0-0.1,0c-0.3,0-0.5-0.2-0.5-0.5c0-0.3,0.2-0.5,0.5-0.5c0,0,0.1,0,0.1,0
			c9.9,0,19.2-4.9,25-13.1c0.2-0.2,0.5-0.3,0.8-0.1c0.2,0.2,0.3,0.5,0.1,0.8C123.9,130.3,114.3,135.4,104,135.4z"/>
	</g>
	<g>
		<path class="st1" d="M132.7,116.2c-0.1,0-0.1,0-0.2,0c-0.3-0.1-0.4-0.4-0.3-0.7c1.6-3.8,2.4-7.9,2.4-12.1c0-0.3,0.2-0.5,0.5-0.5
			c0,0,0,0,0,0c0.3,0,0.5,0.2,0.5,0.5c0,4.3-0.9,8.5-2.5,12.5C133.1,116.1,132.9,116.2,132.7,116.2z"/>
	</g>
	<g>
		<path class="st3" d="M103.9,72.5"/>
	</g>
	<g>
		<path class="st3" d="M72.9,103.5"/>
	</g>
</g>
</svg>
