<?xml version="1.0" encoding="UTF-8" standalone="no"?>
<!-- Created with Inkscape (http://www.inkscape.org/) -->

<svg
   xmlns:dc="http://purl.org/dc/elements/1.1/"
   xmlns:cc="http://creativecommons.org/ns#"
   xmlns:rdf="http://www.w3.org/1999/02/22-rdf-syntax-ns#"
   xmlns:svg="http://www.w3.org/2000/svg"
   xmlns="http://www.w3.org/2000/svg"
   xmlns:sodipodi="http://sodipodi.sourceforge.net/DTD/sodipodi-0.dtd"
   xmlns:inkscape="http://www.inkscape.org/namespaces/inkscape"
   width="132.16302mm"
   height="120.21285mm"
   viewBox="0 0 468.29418 425.95104"
   id="svg2"
   version="1.1"
   inkscape:version="0.91 r13725"
   sodipodi:docname="phone.svg">
  <defs
     id="defs4" />
  <sodipodi:namedview
     id="base"
     pagecolor="#ffffff"
     bordercolor="#666666"
     borderopacity="1.0"
     inkscape:pageopacity="0.0"
     inkscape:pageshadow="2"
     inkscape:zoom="1.4"
     inkscape:cx="268.85216"
     inkscape:cy="213.49957"
     inkscape:document-units="px"
     inkscape:current-layer="g3769"
     showgrid="false"
     fit-margin-top="0"
     fit-margin-left="0"
     fit-margin-right="0"
     fit-margin-bottom="0"
     inkscape:window-width="1366"
     inkscape:window-height="705"
     inkscape:window-x="-8"
     inkscape:window-y="-8"
     inkscape:window-maximized="1"
     inkscape:snap-page="false" />
  <metadata
     id="metadata7">
    <rdf:RDF>
      <cc:Work
         rdf:about="">
        <dc:format>image/svg+xml</dc:format>
        <dc:type
           rdf:resource="http://purl.org/dc/dcmitype/StillImage" />
        <dc:title></dc:title>
      </cc:Work>
    </rdf:RDF>
  </metadata>
  <g
     inkscape:label="Layer 1"
     inkscape:groupmode="layer"
     id="layer1"
     transform="translate(824.02636,-382.96644)">
    <g
       id="g3519"
       transform="translate(-142.90908,384.17024)">
      <g
         id="g3769"
         transform="translate(-450.78216,-255.58451)">
        <rect
           id="rect3685"
           height="587"
           width="647"
           display="none"
           y="89.5"
           x="-24.5"
           style="display:none;fill:#8e3c3c" />
        <g
           id="g4158"
           transform="translate(-302.1053,71.237746)">
          <g
             id="g4160">
            <path
               id="path4162"
               d="m 489.083,478.998 c -2.298,0 -4.595,-0.287 -7.18,-0.574 -4.308,-0.574 -7.18,-4.595 -6.605,-8.903 0.574,-4.308 4.595,-7.18 8.903,-6.605 6.893,0.862 12.349,0 15.221,-2.585 1.436,-1.436 2.01,-2.872 1.723,-4.882 -0.287,-1.723 -5.169,-3.733 -8.903,-4.308 -0.287,0 -0.287,0 -0.574,0 -26.996,-5.169 -27.57,-18.38 -26.996,-22.114 1.149,-8.041 9.477,-15.508 26.421,-14.359 4.882,0.287 7.18,-1.149 8.041,-2.01 -0.862,-0.862 -3.159,-2.298 -9.477,-4.021 -16.37,-3.733 -22.401,-8.041 -24.124,-16.944 -1.436,-6.318 0.287,-12.349 4.882,-16.37 5.169,-4.595 13.211,-5.744 17.806,-4.308 8.903,2.585 11.775,0.862 12.636,0.287 1.723,-1.436 1.723,-4.308 1.723,-4.595 0,-0.287 0,-0.862 0,-1.436 3.733,-30.729 -24.124,-58.874 -24.411,-59.161 -3.159,-3.159 -3.159,-8.041 0,-11.2 3.159,-3.159 8.041,-3.159 11.2,0 1.436,1.436 33.027,33.601 29.006,71.51 0,2.872 -0.574,11.2 -7.467,16.657 -6.318,5.169 -15.508,5.744 -26.996,2.298 -0.574,0 -2.585,0.574 -2.872,0.862 0,0 -0.287,0.287 0,1.436 0,0.287 0,0.574 0.287,0.862 l 0,0 c 0,0 2.01,1.723 12.062,4.021 10.339,2.298 16.657,6.318 19.816,11.775 2.01,3.446 2.585,7.754 1.436,11.775 -2.297,7.467 -10.626,14.359 -24.124,13.498 -4.308,-0.287 -7.18,0.287 -8.616,0.862 1.723,1.436 5.744,3.159 12.924,4.595 8.041,1.149 21.252,6.031 22.401,18.38 0.574,6.605 -1.723,12.923 -6.605,17.519 -5.743,5.74 -12.922,8.038 -21.538,8.038 z"
               inkscape:connector-curvature="0"
               style="fill:none" />
            <path
               id="path4164"
               d="m 489.083,481.582 c -2.298,0 -4.882,-0.287 -7.467,-0.574 -2.585,-0.287 -5.169,-1.723 -6.605,-4.021 -1.723,-2.298 -2.298,-4.882 -2.01,-7.467 0.287,-2.585 1.723,-5.169 4.021,-6.605 2.298,-1.723 4.882,-2.298 7.467,-2.01 6.031,0.862 10.913,0 13.211,-2.01 0.862,-0.574 1.149,-1.436 1.149,-2.585 -0.862,-0.862 -4.021,-2.01 -6.893,-2.585 -0.287,0 -0.574,0 -0.574,0 -29.006,-5.457 -29.581,-20.39 -29.006,-24.985 1.149,-8.903 10.626,-17.519 29.006,-16.37 0.862,0 1.723,0 2.298,0 -1.149,-0.574 -2.585,-0.862 -4.595,-1.436 -17.231,-4.021 -23.837,-8.903 -25.847,-18.954 -1.436,-7.18 0.574,-13.785 5.457,-18.38 5.744,-5.457 14.647,-6.605 20.103,-4.882 8.328,2.585 10.626,0.862 10.626,0.862 0.287,-0.287 0.862,-1.723 0.862,-2.585 0,-0.574 0,-1.149 0,-1.723 3.446,-29.58 -23.549,-56.863 -23.837,-57.151 -2.01,-2.01 -2.872,-4.595 -2.872,-7.18 0,-2.585 1.149,-5.169 2.872,-7.18 4.021,-4.021 10.339,-4.021 14.359,0 1.436,1.436 33.888,34.463 29.581,73.52 0,3.159 -0.574,12.349 -8.328,18.38 -6.031,4.882 -14.072,6.318 -24.411,4.021 1.436,0.574 3.446,0.862 5.744,1.436 10.913,2.585 17.806,6.605 21.539,12.924 2.298,4.021 2.872,8.903 1.436,13.498 -2.585,8.041 -11.488,15.795 -25.847,15.221 1.149,0.287 2.585,0.574 4.021,0.862 8.328,1.149 23.262,6.605 24.411,20.39 0.574,7.467 -2.01,14.359 -7.467,19.529 -5.46,5.168 -13.214,8.04 -22.404,8.04 z m -6.318,-16.369 c -1.149,0 -2.298,0.287 -3.159,1.149 -1.149,0.862 -2.01,2.298 -2.298,3.733 -0.574,2.872 1.723,5.744 4.595,6.318 2.298,0.287 4.595,0.574 6.893,0.574 8.041,0 14.934,-2.298 19.529,-6.605 4.308,-4.021 6.318,-9.764 6.031,-15.795 -0.862,-10.913 -13.211,-15.221 -20.39,-16.37 -8.328,-1.723 -12.349,-4.021 -14.072,-5.169 -0.574,-0.574 -1.149,-1.436 -0.862,-2.298 0,-0.862 0.574,-1.723 1.436,-2.01 1.723,-0.574 4.882,-1.436 9.764,-1.149 12.349,0.862 19.816,-5.457 21.826,-12.062 0.862,-3.446 0.574,-6.893 -1.149,-9.764 -2.872,-4.882 -8.903,-8.328 -18.38,-10.626 -4.308,-0.862 -9.764,-2.585 -12.636,-4.308 -0.574,-0.287 -0.862,-0.574 -1.149,-1.149 -0.287,-0.287 -0.287,-0.862 -0.287,-1.149 -0.287,-1.723 -0.287,-2.585 0,-2.872 0,-0.287 0,-0.287 0.287,-0.574 1.149,-1.723 4.021,-2.01 5.169,-2.01 l 0.287,0 c 10.913,3.159 19.242,2.585 24.698,-2.01 6.031,-4.882 6.605,-12.062 6.605,-14.934 4.021,-37.335 -26.996,-68.638 -28.145,-70.074 -2.01,-2.01 -5.744,-2.01 -7.754,0 -1.149,1.149 -1.723,2.298 -1.723,4.021 0,1.436 0.574,2.872 1.723,3.733 0.287,0.287 28.719,29.293 24.985,61.171 0,0.287 0,0.574 0,0.862 l 0,0 c 0,1.149 -0.287,4.595 -2.585,6.318 -1.436,1.149 -5.457,2.872 -14.647,0 -4.308,-1.149 -11.2,-0.287 -15.508,3.733 -3.733,3.446 -5.169,8.328 -4.021,14.072 1.436,7.18 5.169,11.2 22.401,15.221 6.318,1.436 9.477,3.159 10.626,4.595 0.862,0.862 1.149,2.298 0.287,3.159 -1.436,1.723 -4.595,3.159 -10.052,2.872 -15.508,-0.862 -23.262,5.457 -24.124,12.349 -0.574,3.446 0,14.934 24.985,19.529 l 0.287,0 c 2.298,0.287 10.626,2.298 11.2,6.318 0.287,2.585 -0.574,4.882 -2.585,6.605 -3.446,3.159 -9.477,4.308 -17.231,3.159 -0.283,1.437 -0.57,1.437 -0.857,1.437 z m 0,-77.829 0,0 0,0 z"
               inkscape:connector-curvature="0"
               style="fill:#0c0c0c" />
          </g>
          <g
             id="g4166">
            <path
               id="path4168"
               d="m 113.153,606.51 c 3.446,0.287 366.74,0 369.325,0 23.262,-0.574 39.345,-16.657 39.632,-39.919 0,-12.062 0,-24.124 0,-36.186 0.287,-14.072 -4.595,-25.847 -14.072,-35.899 -38.771,-41.355 -87.88,-93.911 -127.225,-134.692 -5.169,-7.18 -3.733,-12.349 -4.595,-28.145 1.436,-15.221 -10.052,-26.134 -24.124,-26.134 -14.072,0 -24.124,10.913 -24.124,25.847 0,7.18 0,14.647 0,22.401 -19.529,0 -38.483,0 -58.299,0 0,-8.041 0,-15.795 0,-23.55 -0.287,-14.072 -10.626,-24.411 -24.124,-24.698 -13.785,0 -24.411,10.626 -24.411,24.698 0,5.744 0.574,11.775 -0.287,17.519 -0.574,3.733 -1.723,8.041 -4.308,10.626 -42.217,45.663 -84.434,91.039 -126.938,136.415 -9.19,9.764 -14.072,20.965 -14.072,34.463 0,12.636 0,25.56 0,38.196 0,21.539 16.082,38.196 37.622,39.058 z M 298.964,402.893 c 42.504,0 77.541,34.75 77.541,76.967 0,43.653 -34.75,78.403 -78.115,78.403 -42.791,0 -77.254,-35.324 -77.254,-78.69 0.287,-42.218 35.037,-76.68 77.828,-76.68 z"
               inkscape:connector-curvature="0"
               style="fill:none" />
            <path
               id="path4170"
               d="m 336.873,609.094 c -102.814,0 -222.572,0 -223.72,0 -22.975,-1.149 -39.919,-18.38 -39.919,-41.642 0,-6.031 0,-12.349 0,-18.38 0,-6.605 0,-13.211 0,-19.816 0,-13.785 4.595,-25.56 14.647,-36.186 l 11.2,-12.062 c 37.909,-40.494 77.254,-82.423 115.737,-124.066 1.723,-2.01 3.159,-5.457 3.733,-9.477 0.574,-3.733 0.287,-7.467 0.287,-11.2 0,-2.01 0,-4.021 0,-6.031 0.287,-15.508 11.775,-26.996 26.709,-26.996 0,0 0,0 0.287,0 14.647,0 26.134,11.775 26.421,26.996 0,5.457 0,10.626 0,16.083 0,1.723 0,3.446 0,5.169 l 53.417,0 0,-5.169 c 0,-5.169 0,-10.052 0,-14.934 0,-16.083 11.2,-28.145 26.421,-28.145 l 0.287,0 c 7.754,0 14.934,3.159 19.816,8.328 4.882,5.457 7.18,12.349 6.605,20.103 0.287,3.733 0.287,6.605 0.287,9.477 0.287,8.903 0.287,12.636 3.733,17.231 35.037,36.186 77.254,81.275 114.301,120.619 l 12.923,13.785 c 10.052,10.626 14.934,23.262 14.647,37.335 0,6.893 0,13.785 0,20.678 0,5.169 0,10.339 0,15.508 -0.287,24.411 -17.519,41.642 -41.93,42.217 -2.295,0.575 -69.497,0.575 -145.889,0.575 z m -223.72,-4.882 c 5.169,0.287 366.74,0 369.038,0 22.114,-0.574 37.047,-15.508 37.335,-37.622 0,-5.169 0,-10.339 0,-15.508 0,-6.893 0,-13.785 0,-20.678 0.287,-13.211 -4.308,-24.124 -13.498,-34.176 L 493.104,482.443 C 456.057,442.811 413.84,397.722 378.803,361.536 l -0.287,-0.287 c -4.308,-6.031 -4.595,-11.2 -4.595,-20.103 0,-2.585 0,-5.744 -0.287,-9.477 l 0,-0.287 c 0.574,-6.318 -1.436,-12.349 -5.457,-16.657 -4.021,-4.308 -10.052,-6.893 -16.37,-6.893 l -0.287,0 c -12.636,0 -21.826,9.764 -21.826,23.55 0,4.882 0,9.764 0,14.934 l 0,7.467 c 0,1.436 -1.149,2.298 -2.298,2.298 l -57.725,0 c -1.436,0 -2.298,-1.149 -2.298,-2.298 0,-2.585 0,-5.169 0,-7.467 0,-5.457 0,-10.626 0,-16.083 -0.287,-12.636 -9.764,-22.114 -21.826,-22.401 0,0 0,0 -0.287,0 -12.349,0 -21.826,9.764 -22.114,22.401 0,2.01 0,3.733 0,5.744 0,4.021 0.287,8.041 -0.287,12.062 -0.287,2.297 -1.436,8.328 -4.882,12.062 -38.483,41.355 -77.828,83.285 -115.737,124.066 l -11.2,12.062 c -9.19,9.764 -13.498,20.39 -13.498,32.74 0,6.605 0,13.211 0,19.816 0,6.031 0,12.349 0,18.38 0.573,20.677 15.22,36.186 35.611,37.047 z m 185.236,-43.653 0,0 c -21.252,0 -41.355,-8.328 -56.289,-23.549 -15.221,-15.221 -23.549,-35.899 -23.549,-57.438 0.287,-43.653 36.186,-78.977 80.126,-78.977 l 0,0 0,0 c 43.94,0 79.839,35.611 79.839,79.264 0,21.826 -8.328,42.217 -23.549,57.438 -14.935,14.934 -35.038,23.262 -56.578,23.262 z m 0.575,-155.369 c -41.355,0 -75.244,33.314 -75.531,74.382 0,20.39 7.754,39.919 22.114,54.279 14.072,14.072 32.74,22.114 52.843,22.114 0,0 0,0 0.287,0 20.103,0 39.058,-7.754 53.417,-21.826 14.359,-14.359 22.114,-33.601 22.401,-53.992 -0.288,-41.356 -34.176,-74.957 -75.531,-74.957 l 0,0 z"
               inkscape:connector-curvature="0"
               style="fill:#0c0c0c" />
          </g>
          <g
             id="g4172">
            <path
               id="path4174"
               d="m 298.102,266.765 c -30.442,3.446 -60.884,7.18 -91.613,10.626 -15.221,1.723 -22.975,11.488 -21.252,26.709 1.436,11.488 2.585,22.688 3.733,34.175 1.149,12.062 -4.308,20.103 -16.083,22.688 -25.273,5.169 -50.258,10.339 -75.531,15.221 -12.924,2.585 -22.975,-6.318 -22.975,-19.529 -0.287,-20.39 1.436,-40.494 6.318,-60.31 7.18,-30.729 25.56,-51.981 53.704,-65.766 26.996,-13.211 55.14,-22.114 83.859,-28.719 55.428,-12.636 111.717,-18.667 168.58,-15.795 18.38,0.862 37.047,3.733 55.14,6.318 42.504,6.318 68.638,31.878 82.71,71.223 4.595,13.211 8.328,26.709 12.062,40.206 2.872,11.2 -4.882,22.688 -16.37,23.262 -26.996,1.436 -53.992,2.298 -80.987,2.585 -9.764,0.287 -16.944,-6.893 -18.38,-16.657 -1.436,-11.488 -2.585,-22.688 -4.021,-34.175 -2.298,-17.519 -11.2,-24.698 -28.719,-22.688 -29.865,3.733 -60.02,7.18 -90.175,10.626 z"
               inkscape:connector-curvature="0"
               style="fill:none" />
            <path
               id="path4176"
               d="m 93.049,378.769 c -4.882,0 -9.477,-1.436 -13.211,-4.595 -4.882,-4.021 -7.754,-10.339 -8.041,-17.806 -0.287,-21.826 1.723,-41.93 6.318,-60.884 7.467,-31.016 25.273,-53.13 55.14,-67.202 24.985,-12.062 52.556,-21.539 84.434,-28.432 59.161,-13.211 114.301,-18.667 169.154,-16.083 17.231,0.862 34.75,3.446 51.694,5.744 l 4.021,0.574 c 41.068,6.031 69.5,30.442 84.721,72.659 4.882,13.498 8.616,27.57 12.062,40.494 1.723,6.318 0.287,12.924 -3.446,17.806 -3.733,4.882 -9.19,8.041 -15.221,8.328 -24.698,1.149 -51.12,2.01 -80.987,2.585 -10.626,0.287 -19.242,-7.467 -20.678,-18.667 -0.862,-6.605 -1.723,-13.211 -2.298,-19.816 -0.574,-4.882 -1.149,-9.477 -1.723,-14.359 -2.01,-16.37 -9.764,-22.401 -26.134,-20.39 L 207.063,279.69 c -14.072,1.723 -20.965,10.052 -19.242,24.124 l 1.149,8.903 c 0.862,8.328 2.01,16.944 2.872,25.273 1.436,13.211 -5.169,22.401 -18.093,25.273 -26.996,5.744 -51.694,10.626 -75.818,15.221 -1.723,-0.003 -3.159,0.285 -4.882,0.285 z M 360.135,187.501 c -45.663,0 -92.188,5.457 -141.01,16.37 -31.304,7.18 -58.587,16.37 -83.285,28.145 -28.719,14.072 -45.95,35.037 -52.843,64.618 -4.595,18.667 -6.605,38.196 -6.318,59.735 0,6.031 2.298,10.913 6.318,14.072 3.733,3.159 8.616,4.021 14.072,3.159 23.837,-4.595 48.535,-9.477 75.531,-15.221 10.626,-2.298 15.508,-9.19 14.359,-20.103 -0.862,-8.328 -1.723,-16.944 -2.872,-25.273 l -1.149,-8.903 c -2.01,-16.37 6.893,-27.283 23.262,-29.293 l 181.791,-20.965 c 18.954,-2.298 29.006,5.744 31.304,24.698 0.574,4.882 1.149,9.477 1.723,14.359 0.862,6.605 1.436,13.211 2.298,19.816 1.149,8.903 7.754,14.934 16.083,14.647 29.868,-0.574 56.289,-1.436 80.987,-2.585 4.595,-0.287 8.903,-2.585 11.775,-6.318 2.872,-4.021 4.021,-9.19 2.585,-14.072 -3.446,-12.923 -7.18,-26.709 -11.775,-40.206 -14.359,-40.494 -41.642,-63.756 -80.987,-69.5 l -4.021,-0.574 c -16.657,-2.585 -34.175,-4.882 -51.12,-5.744 -8.902,-0.575 -17.805,-0.862 -26.708,-0.862 z m -62.033,79.264 0,0 0,0 z"
               inkscape:connector-curvature="0"
               style="fill:#0c0c0c" />
          </g>
          <g
             id="g4178">
            <path
               id="path4180"
               d="m 298.677,441.663 c 21.539,0 39.058,17.231 39.058,38.483 0,21.826 -17.519,39.345 -39.058,39.345 -21.252,0 -38.483,-17.519 -38.771,-39.058 0,-21.251 17.231,-38.77 38.771,-38.77 z"
               inkscape:connector-curvature="0"
               style="fill:none" />
            <path
               id="path4182"
               d="m 298.677,521.789 0,0 c -22.688,0 -41.068,-18.667 -41.068,-41.355 0,-10.913 4.021,-20.965 11.775,-28.719 7.754,-7.754 18.093,-12.349 29.293,-12.349 10.913,0 21.539,4.308 29.293,12.062 7.754,7.754 12.062,17.806 12.062,28.719 0,11.2 -4.308,21.826 -12.349,29.581 -7.754,7.753 -18.093,12.061 -29.006,12.061 z m 0,-80.126 0,2.298 c -9.764,0 -18.954,4.021 -25.847,10.913 -6.893,6.893 -10.626,15.795 -10.339,25.56 0.287,20.103 16.37,36.473 36.186,36.76 0,0 0,0 0.287,0 9.764,0 18.667,-3.733 25.56,-10.626 7.18,-6.893 10.913,-16.37 10.913,-26.421 0,-9.477 -3.733,-18.38 -10.626,-25.273 -6.893,-6.893 -16.083,-10.913 -25.847,-10.913 l 0,0 -0.287,-2.298 z"
               inkscape:connector-curvature="0"
               style="fill:#0c0c0c" />
          </g>
          <g
             id="g4184">
            <path
               id="path4186"
               d="m 144.456,242.354 c -0.862,0 -1.723,-0.574 -2.01,-1.436 -0.574,-1.149 0,-2.585 1.149,-3.159 42.504,-19.242 124.927,-40.781 194.427,-42.504 1.436,0 2.298,0.862 2.298,2.298 0,1.436 -0.862,2.298 -2.298,2.298 -66.341,1.723 -150.2,22.688 -192.704,42.217 -0.287,0.286 -0.575,0.286 -0.862,0.286 z"
               inkscape:connector-curvature="0"
               style="fill:#0c0c0c" />
          </g>
          <g
             id="g4188">
            <path
               id="path4190"
               d="m 95.634,308.982 0,0 c -1.436,0 -2.298,-1.149 -2.298,-2.298 0,-0.287 1.723,-31.016 27.857,-54.279 0.862,-0.862 2.585,-0.862 3.446,0.287 0.862,0.862 0.862,2.585 -0.287,3.446 -24.411,21.539 -26.134,50.545 -26.134,50.832 -0.287,0.863 -1.435,2.012 -2.584,2.012 z"
               inkscape:connector-curvature="0"
               style="fill:#0c0c0c" />
          </g>
          <g
             id="g4192">
            <path
               id="path4194"
               d="m 91.613,578.365 c -1.436,0 -2.298,-1.149 -2.298,-2.298 l 0,-37.909 c -0.574,-24.411 10.913,-37.335 11.2,-37.909 0.862,-0.862 2.298,-1.149 3.446,-0.287 0.862,0.862 1.149,2.298 0.287,3.446 -0.287,0.287 -10.626,12.349 -10.052,34.463 l 0,38.196 c -0.285,1.149 -1.434,2.298 -2.583,2.298 z"
               inkscape:connector-curvature="0"
               style="fill:#0c0c0c" />
          </g>
          <g
             id="g4196">
            <path
               id="path4198"
               d="m 111.717,493.357 c -0.574,0 -1.149,-0.287 -1.436,-0.574 -0.862,-0.862 -1.149,-2.298 -0.287,-3.446 l 56.576,-64.043 c 0.862,-0.862 2.298,-1.149 3.446,-0.287 0.862,0.862 1.149,2.298 0.287,3.446 l -56.576,64.043 c -0.862,0.574 -1.436,0.861 -2.01,0.861 z"
               inkscape:connector-curvature="0"
               style="fill:#0c0c0c" />
          </g>
          <g
             id="g4200">
            <path
               id="path4202"
               d="m 298.677,571.76 -0.287,0 c -0.862,0 -1.436,-0.574 -1.436,-1.436 0,-0.862 0.574,-1.436 1.436,-1.436 l 0.287,0 c 28.432,0 55.14,-14.072 71.797,-37.622 0.574,-0.574 1.436,-0.862 2.298,-0.287 0.574,0.574 0.862,1.436 0.287,2.298 -17.232,23.836 -44.802,38.483 -74.382,38.483 z"
               inkscape:connector-curvature="0"
               style="fill:#0c0c0c" />
          </g>
          <g
             id="g4204">
            <path
               id="path4206"
               d="m 381.1,516.619 c -0.287,0 -0.287,0 -0.574,0 -0.862,-0.287 -1.149,-1.149 -0.862,-2.01 4.595,-10.913 6.893,-22.688 6.893,-34.75 0,-0.862 0.574,-1.436 1.436,-1.436 l 0,0 c 0.862,0 1.436,0.574 1.436,1.436 0,12.349 -2.585,24.411 -7.18,35.899 0,0.574 -0.575,0.861 -1.149,0.861 z"
               inkscape:connector-curvature="0"
               style="fill:#0c0c0c" />
          </g>
          <g
             id="g4208">
            <path
               id="path4210"
               d="M 298.389,391.118"
               stroke-miterlimit="10"
               inkscape:connector-curvature="0"
               style="fill:none;stroke:#0c0c0c;stroke-width:1.5;stroke-linecap:round;stroke-linejoin:round;stroke-miterlimit:10" />
          </g>
          <g
             id="g4212">
            <path
               id="path4214"
               d="M 209.361,480.146"
               stroke-miterlimit="10"
               inkscape:connector-curvature="0"
               style="fill:none;stroke:#0c0c0c;stroke-width:1.5;stroke-linecap:round;stroke-linejoin:round;stroke-miterlimit:10" />
          </g>
        </g>
      </g>
    </g>
  </g>
  <style
     id="style3517"
     type="text/css">
	.st0{fill-rule:evenodd;clip-rule:evenodd;fill:#FFFFFF;}
	.st1{fill:#0C0C0C;}
</style>
  <style
     type="text/css"
     id="style3517-9">
	.st0{fill-rule:evenodd;clip-rule:evenodd;fill:#FFFFFF;}
	.st1{fill:#0C0C0C;}
</style>
</svg>
