<?xml version="1.0" encoding="UTF-8" standalone="no"?>
<!-- Created with Inkscape (http://www.inkscape.org/) -->

<svg
   xmlns:dc="http://purl.org/dc/elements/1.1/"
   xmlns:cc="http://creativecommons.org/ns#"
   xmlns:rdf="http://www.w3.org/1999/02/22-rdf-syntax-ns#"
   xmlns:svg="http://www.w3.org/2000/svg"
   xmlns="http://www.w3.org/2000/svg"
   xmlns:sodipodi="http://sodipodi.sourceforge.net/DTD/sodipodi-0.dtd"
   xmlns:inkscape="http://www.inkscape.org/namespaces/inkscape"
   width="156.61794mm"
   height="124.04873mm"
   viewBox="0 0 554.94544 439.54273"
   id="svg2"
   version="1.1"
   inkscape:version="0.91 r13725"
   sodipodi:docname="premium-service-w.svg">
  <defs
     id="defs4" />
  <sodipodi:namedview
     id="base"
     pagecolor="#ffffff"
     bordercolor="#666666"
     borderopacity="1.0"
     inkscape:pageopacity="0.0"
     inkscape:pageshadow="2"
     inkscape:zoom="1.4"
     inkscape:cx="265.23829"
     inkscape:cy="258.38119"
     inkscape:document-units="px"
     inkscape:current-layer="g3769"
     showgrid="false"
     fit-margin-top="0"
     fit-margin-left="0"
     fit-margin-right="0"
     fit-margin-bottom="0"
     inkscape:window-width="1366"
     inkscape:window-height="705"
     inkscape:window-x="-8"
     inkscape:window-y="-8"
     inkscape:window-maximized="1"
     inkscape:snap-page="false" />
  <metadata
     id="metadata7">
    <rdf:RDF>
      <cc:Work
         rdf:about="">
        <dc:format>image/svg+xml</dc:format>
        <dc:type
           rdf:resource="http://purl.org/dc/dcmitype/StillImage" />
        <dc:title></dc:title>
      </cc:Work>
    </rdf:RDF>
  </metadata>
  <g
     inkscape:label="Layer 1"
     inkscape:groupmode="layer"
     id="layer1"
     transform="translate(564.87927,-414.25637)">
    <g
       id="g3519"
       transform="translate(-142.90908,384.17024)">
      <g
         id="g3769"
         transform="translate(-450.78216,-255.58451)">
        <rect
           id="rect3685"
           height="587"
           width="647"
           display="none"
           y="89.5"
           x="-24.5"
           style="display:none;fill:#8e3c3c" />
        <g
           id="g4106"
           transform="translate(0.09350387,114.11918)">
          <path
             id="path4108"
             d="m 565.475,451.14 c 12.062,0 17.806,-7.754 15.795,-20.678 -1.723,-12.062 -10.052,-11.488 -17.806,-11.488 -138.712,0 -277.138,0 -415.85,0 -34.176,0 -68.064,0 -102.239,0 -8.903,0 -14.934,4.308 -14.647,15.795 0.287,10.339 5.457,16.083 14.359,16.657 1.436,0 2.872,0 4.308,0 10.825,-0.075 102.952,-0.125 102.952,-0.125 0,0 -0.947,-1.941 6.962,-7.891 3.536,-2.66 14.673,-7.04 24.941,-4.925 5.838,1.203 12.474,2.38 16.781,4.956 6.447,3.856 9.552,7.85 9.552,7.85 0,0 330.919,0.038 354.892,-0.151 z"
             stroke-miterlimit="10"
             inkscape:connector-curvature="0"
             style="fill:none;stroke:#ffffff;stroke-width:4;stroke-linecap:round;stroke-linejoin:round;stroke-miterlimit:10" />
          <path
             id="path4110"
             d="m 492.817,396.666 c 4.595,0 8.616,0 12.349,0 8.328,0 18.667,-0.723 18.38,11.626 -0.287,12.062 -10.626,10.626 -18.954,10.626 -10.913,0 -21.826,0 -32.74,0 -121.768,0 -243.536,0 -365.592,0 -1.436,0 -2.872,0 -4.308,0 -7.467,0.287 -13.498,-2.298 -13.785,-10.626 -0.287,-8.616 5.744,-11.626 13.211,-11.913 5.744,0 11.488,0 17.806,0 2.01,-10.626 3.446,-20.965 6.031,-31.016 15.508,-62.894 52.843,-107.696 112.004,-134.117 3.733,-1.723 7.18,-6.605 8.616,-10.626 11.775,-36.473 39.345,-53.13 76.68,-45.089 24.985,5.457 37.335,22.688 44.514,45.663 1.149,4.021 5.169,8.616 8.903,10.339 68.064,31.304 105.686,84.434 115.737,157.954 0.286,2.009 0.573,3.732 1.148,7.179 z M 348.36,221.718 c -4.595,-19.529 -19.242,-30.155 -42.504,-30.155 -22.401,0 -37.047,11.2 -41.355,30.155 27.858,0 56.002,0 83.859,0 z"
             stroke-miterlimit="10"
             inkscape:connector-curvature="0"
             style="fill:none;stroke:#ffffff;stroke-width:4;stroke-linecap:round;stroke-linejoin:round;stroke-miterlimit:10" />
          <path
             id="path4112"
             d="m 189.545,275.581 c -18.38,19.529 -36.76,49.971 -41.93,95.921"
             stroke-miterlimit="10"
             inkscape:connector-curvature="0"
             style="fill:none;stroke:#ffffff;stroke-width:4;stroke-linecap:round;stroke-linejoin:round;stroke-miterlimit:10" />
          <path
             id="path4114"
             d="m 232.623,246.852 c 0,0 -13.785,4.882 -30.155,18.38"
             stroke-miterlimit="10"
             inkscape:connector-curvature="0"
             style="fill:#ffffff;stroke:#ffffff;stroke-width:4;stroke-linecap:round;stroke-linejoin:round;stroke-miterlimit:10" />
          <path
             id="path4116"
             d="M 474.436,449.704"
             stroke-miterlimit="10"
             inkscape:connector-curvature="0"
             style="fill:#ffffff;stroke:#ffffff;stroke-width:4;stroke-linecap:round;stroke-linejoin:round;stroke-miterlimit:10" />
          <g
             id="g4118">
            <path
               id="path4120"
               d="m 271.968,489.336 c 0,0 6.318,-23.262 -4.021,-39.058 l 26.996,0 c 0,0 6.318,9.477 1.723,28.145"
               stroke-miterlimit="10"
               inkscape:connector-curvature="0"
               style="fill:none;stroke:#ffffff;stroke-width:4;stroke-linecap:round;stroke-linejoin:round;stroke-miterlimit:10" />
            <path
               id="path4122"
               d="m 317.344,496.516 c -16.083,-9.764 54.853,-45.089 54.853,-45.089 l -34.463,0 c -45.663,2.585 -72.659,56.289 -89.89,58.874 -17.231,2.585 -29.58,-44.514 -29.58,-44.514 -14.934,-49.397 -90.177,-19.529 -58.012,-7.467 35.037,13.211 26.421,37.909 26.421,37.909 0,0 -9.19,26.134 16.37,51.694 18.667,18.954 -4.308,34.75 -86.157,39.345"
               stroke-miterlimit="10"
               inkscape:connector-curvature="0"
               style="fill:none;stroke:#ffffff;stroke-width:4;stroke-linecap:round;stroke-linejoin:round;stroke-miterlimit:10" />
            <path
               id="path4124"
               d="M 297.528,585.832"
               stroke-miterlimit="10"
               inkscape:connector-curvature="0"
               style="fill:none;stroke:#ffffff;stroke-width:4;stroke-linecap:round;stroke-linejoin:round;stroke-miterlimit:10" />
            <path
               id="path4126"
               d="m 314.759,500.537 c 0,0 3.733,2.01 21.252,-14.647 17.231,-16.657 46.812,-35.899 60.884,-35.324 l 42.504,1.149 c 0,0 -72.084,24.985 -78.977,53.417"
               stroke-miterlimit="10"
               inkscape:connector-curvature="0"
               style="fill:none;stroke:#ffffff;stroke-width:4;stroke-linecap:round;stroke-linejoin:round;stroke-miterlimit:10" />
            <path
               id="path4128"
               d="m 498.847,452.863 c 0,0 -28.145,12.349 -54.566,31.878 -33.314,24.698 -73.808,57.438 -87.593,80.126 0,0 -21.826,44.227 -84.146,44.227"
               stroke-miterlimit="10"
               inkscape:connector-curvature="0"
               style="fill:none;stroke:#ffffff;stroke-width:4;stroke-linecap:round;stroke-linejoin:round;stroke-miterlimit:10" />
            <path
               id="path4130"
               d="m 369.038,490.772 c 0,0 60.884,-32.165 96.496,-38.483"
               stroke-miterlimit="10"
               inkscape:connector-curvature="0"
               style="fill:none;stroke:#ffffff;stroke-width:4;stroke-linecap:round;stroke-linejoin:round;stroke-miterlimit:10" />
          </g>
          <path
             id="path4132"
             d="m 197.586,505.419 c 0,0 -4.021,22.688 16.944,37.909"
             stroke-miterlimit="10"
             inkscape:connector-curvature="0"
             style="fill:none;stroke:#ffffff;stroke-width:4;stroke-linecap:round;stroke-linejoin:round;stroke-miterlimit:10" />
          <path
             id="path4134"
             d="m 190.981,473.828 c 0,0 3.159,4.021 3.159,14.647"
             stroke-miterlimit="10"
             inkscape:connector-curvature="0"
             style="fill:none;stroke:#ffffff;stroke-width:4;stroke-linecap:round;stroke-linejoin:round;stroke-miterlimit:10" />
        </g>
      </g>
    </g>
  </g>
  <style
     id="style3517"
     type="text/css">
	.st0{fill-rule:evenodd;clip-rule:evenodd;fill:#FFFFFF;}
	.st1{fill:#0C0C0C;}
</style>
  <style
     type="text/css"
     id="style3517-9">
	.st0{fill-rule:evenodd;clip-rule:evenodd;fill:#FFFFFF;}
	.st1{fill:#0C0C0C;}
</style>
</svg>
