<?xml version="1.0" encoding="utf-8"?>
<!-- Generator: Adobe Illustrator 19.2.0, SVG Export Plug-In . SVG Version: 6.00 Build 0)  -->
<svg version="1.1" id="Layer_1" xmlns="http://www.w3.org/2000/svg" xmlns:xlink="http://www.w3.org/1999/xlink" x="0px" y="0px"
	 viewBox="0 0 213.1 148.4" style="enable-background:new 0 0 213.1 148.4;" xml:space="preserve">
<style type="text/css">
	
		.st0{fill-rule:evenodd;clip-rule:evenodd;fill:#FFFFFF;stroke:#0C0C0C;stroke-width:1.5;stroke-linecap:round;stroke-linejoin:round;stroke-miterlimit:10;}
	
		.st1{fill-rule:evenodd;clip-rule:evenodd;fill:none;stroke:#0C0C0C;stroke-width:1.5;stroke-linecap:round;stroke-linejoin:round;stroke-miterlimit:10;}
</style>
<g>
	<path class="st0" d="M196.9,93.4c4.2,0,6.2-2.7,5.5-7.2c-0.6-4.2-3.5-4-6.2-4c-48.3,0-96.5,0-144.8,0c-11.9,0-23.7,0-35.6,0
		c-3.1,0-5.2,1.5-5.1,5.5c0.1,3.6,1.9,5.6,5,5.8c0.5,0,1,0,1.5,0C31.6,93.4,184.2,93.5,196.9,93.4z"/>
	<path class="st0" d="M171.6,77.7c1.6,0,3,0,4.3,0c2.9,0,6.5-0.6,6.4,3.7c-0.1,4.2-3.7,3.7-6.6,3.7c-3.8,0-7.6,0-11.4,0
		c-42.4,0-84.8,0-127.3,0c-0.5,0-1,0-1.5,0c-2.6,0.1-4.7-0.8-4.8-3.7c-0.1-3,2-3.7,4.6-3.8c2,0,4,0,6.2,0c0.7-3.7,1.2-7.3,2.1-10.8
		c5.4-21.9,18.4-37.5,39-46.7c1.3-0.6,2.5-2.3,3-3.7C89.7,3.7,99.3-2.1,112.3,0.7c8.7,1.9,13,7.9,15.5,15.9c0.4,1.4,1.8,3,3.1,3.6
		c23.7,10.9,36.8,29.4,40.3,55C171.3,75.9,171.4,76.5,171.6,77.7z M121.3,16.3c-1.6-6.8-6.7-10.5-14.8-10.5
		c-7.8,0-12.9,3.9-14.4,10.5C101.8,16.3,111.6,16.3,121.3,16.3z"/>
	<path class="st0" d="M66,36.1c-6.4,6.8-12.8,17.4-14.6,33.4"/>
	<path class="st0" d="M81,25.4c0,0-4.8,1.7-10.5,6.4"/>
	<path class="st0" d="M165.2,92.9"/>
	<g>
		<path class="st0" d="M94.7,106.7c0,0,2.2-8.1-1.4-13.6h9.4c0,0,2.2,3.3,0.6,9.8"/>
		<path class="st0" d="M110.5,109.2c-5.6-3.4,19.1-15.7,19.1-15.7h-12c-15.9,0.9-25.3,19.6-31.3,20.5c-6,0.9-10.3-15.5-10.3-15.5
			c-5.2-17.2-31.4-6.8-20.2-2.6c12.2,4.6,9.2,13.2,9.2,13.2s-3.2,9.1,5.7,18c6.5,6.6-1.5,12.1-30,13.7"/>
		<path class="st0" d="M103.6,140.3"/>
		<path class="st0" d="M109.6,110.6c0,0,1.3,0.7,7.4-5.1c6-5.8,16.3-12.5,21.2-12.3l14.8,0.4c0,0-25.1,8.7-27.5,18.6"/>
		<path class="st0" d="M173.7,94c0,0-9.8,4.3-19,11.1c-11.6,8.6-25.7,20-30.5,27.9c0,0-7.6,15.4-29.3,15.4"/>
		<path class="st0" d="M128.5,107.2c0,0,21.2-11.2,33.6-13.4"/>
	</g>
	<path class="st1" d="M68.8,112.3c0,0-1.4,7.9,5.9,13.2"/>
	<path class="st1" d="M66.5,101.3c0,0,1.1,1.4,1.1,5.1"/>
</g>
</svg>
