<?xml version="1.0" encoding="utf-8"?>
<!-- Generator: Adobe Illustrator 19.2.0, SVG Export Plug-In . SVG Version: 6.00 Build 0)  -->
<svg version="1.1" id="Layer_1" xmlns="http://www.w3.org/2000/svg" xmlns:xlink="http://www.w3.org/1999/xlink" x="0px" y="0px"
	 viewBox="0 0 133 149.3" style="enable-background:new 0 0 133 149.3;" xml:space="preserve">
<style type="text/css">
	.st0{fill-rule:evenodd;clip-rule:evenodd;fill:#FFFFFF;}
	.st1{fill:#0C0C0C;}
</style>
<g>
	<g>
		<path class="st0" d="M5.3,37.2c0-1.3-0.1-2.6,0-3.8c0.3-4,3.2-5.6,6.2-5.7c3.7-0.2,7.1-1.2,10.5-2.6c6.9-2.9,13.1-7,19.4-10.9
			c6.7-4.2,13.6-7.8,20.9-10.8c3.5-1.5,6.8-0.8,10.1,0.7c7.3,3.3,14.3,7.1,21,11.5c4.5,2.9,9.1,5.6,13.8,8.2
			c3.8,2.1,7.8,3.7,12.1,4.4c1.1,0.2,2.2,0.2,3.3,0.4c3.7,0.5,5.5,3.9,5,7.5c-0.2,1.5-0.3,3-0.3,4.5c-0.4,7.2-1.4,14.3-2.6,21.4
			c-1.6,9.4-4.1,18.5-7.3,27.4c-2.6,7.2-6,14-10.1,20.5c-4,6.3-8.6,12.2-13.8,17.6c-4.6,4.7-9.5,8.9-14.9,12.7
			c-2.8,2-5.8,3.7-8.7,5.6c-3,2-5.8,1.5-8.6-0.4c-4.6-3.2-9.3-6.3-13.8-9.7c-2.5-1.9-4.6-4.2-6.9-6.3c-6.2-5.8-11.4-12.4-15.6-19.6
			c-3.1-5.2-5.6-10.8-8.1-16.3c-3.1-6.7-5.1-13.7-6.8-20.9c-1.1-4.7-1.9-9.5-2.7-14.2C6.8,54.1,6.3,50,5.8,46
			C5.5,43,5.5,40.1,5.3,37.2z M61.8,79.4c-4.7-4.8-9.2-9.3-13.7-13.9c-1.2-1.2-3-1.5-4.3-0.4c-2,1.7-4,3.5-5.7,5.4
			c-1.5,1.7-1.4,3.6,0,5c7,7.1,14,14.2,21,21.2c3,3,6.5,2.5,8.9-1c3.6-5.2,7.2-10.4,10.8-15.6c6.3-9.2,12.5-18.3,18.7-27.5
			c1.4-2,1-4-0.9-5.4c-1.7-1.2-3.5-2.4-5.3-3.6c-2.1-1.4-4.3-1-5.7,1.1c-1.4,2.1-2.9,4.1-4.3,6.2c-5,7.4-10,14.8-15,22.1
			C64.8,75.1,63.3,77.2,61.8,79.4z"/>
		<path class="st1" d="M66,147.6c-1.7,0-3.4-0.6-5.1-1.8c-1.1-0.8-2.2-1.5-3.3-2.3c-3.5-2.4-7.1-4.9-10.5-7.5
			c-1.8-1.4-3.5-3-5.1-4.5c-0.6-0.6-1.2-1.2-1.8-1.8c-6.1-5.7-11.4-12.4-15.8-19.8c-2.6-4.5-4.9-9.3-7-13.9l-1.2-2.5
			c-3.3-7.2-5.3-14.6-6.8-21C8.4,68,7.6,63.4,6.7,58.3C6.1,54.5,5.6,50.5,5.1,46c-0.2-2.1-0.3-4.1-0.4-6.1c0-0.9-0.1-1.8-0.1-2.7
			c0,0,0,0,0,0c0-0.4,0-0.8,0-1.2c0-0.9,0-1.8,0-2.6c0.3-3.8,2.8-6.2,6.9-6.4c3.2-0.2,6.4-1,10.2-2.6c6.4-2.7,12.5-6.5,18.3-10.2
			l1-0.7c6.5-4.1,13.6-7.8,21-10.9c3.3-1.4,6.6-1.2,10.7,0.7c7.2,3.3,14.4,7.2,21.1,11.6c4.1,2.6,8.5,5.3,13.7,8.2
			c4.1,2.2,7.9,3.7,11.9,4.4c0.6,0.1,1.2,0.2,1.8,0.2c0.5,0,1,0.1,1.5,0.2c3.9,0.6,6.3,4.1,5.7,8.4c-0.2,1.2-0.2,2.4-0.3,3.6l0,0.8
			c-0.4,7.6-1.5,15.1-2.6,21.5c-1.6,9.2-4,18.5-7.4,27.5c-2.7,7.4-6.1,14.3-10.1,20.6c-4.1,6.5-8.8,12.5-13.9,17.7
			c-4.6,4.7-9.7,9-15,12.8c-1.6,1.1-3.4,2.2-5,3.3c-1.2,0.8-2.5,1.5-3.7,2.3C68.9,147.1,67.5,147.6,66,147.6z M6,37.2
			c0.1,0.9,0.1,1.8,0.1,2.7c0.1,2,0.2,4,0.4,6.1c0.5,4.4,1,8.4,1.6,12.1c0.8,5.1,1.6,9.7,2.7,14.2c1.5,6.3,3.4,13.7,6.7,20.7
			l1.2,2.5c2.1,4.6,4.3,9.4,6.9,13.8c4.3,7.3,9.5,13.9,15.5,19.5c0.6,0.6,1.2,1.2,1.9,1.8c1.6,1.5,3.2,3.1,4.9,4.4
			c3.4,2.6,7,5,10.5,7.4c1.1,0.8,2.2,1.5,3.3,2.3c2.8,1.9,5.2,2,7.7,0.4c1.2-0.8,2.5-1.6,3.7-2.3c1.6-1,3.4-2.1,5-3.2
			c5.3-3.7,10.3-7.9,14.8-12.6c5-5.2,9.6-11.1,13.7-17.5c3.9-6.2,7.3-13.1,10-20.4c3.3-8.9,5.8-18.1,7.3-27.2
			c1.1-6.3,2.2-13.8,2.6-21.3l0-0.8c0.1-1.2,0.1-2.5,0.3-3.8c0.4-2.8-0.8-6.1-4.4-6.7c-0.5-0.1-1-0.1-1.4-0.2
			c-0.6-0.1-1.3-0.1-1.9-0.2c-4.1-0.7-8.1-2.2-12.3-4.5c-5.2-2.9-9.7-5.6-13.8-8.2c-6.7-4.4-13.7-8.2-20.9-11.4
			C68.4,3,65.5,2.8,62.6,4C55.3,7,48.3,10.7,41.8,14.7l-1,0.7c-5.9,3.7-11.9,7.6-18.5,10.3c-4,1.7-7.4,2.5-10.7,2.7
			c-1.6,0.1-5.2,0.7-5.5,5c-0.1,0.8,0,1.6,0,2.5C6,36.3,6,36.7,6,37.2z M63.1,99.5c-1.6,0-3.2-0.7-4.6-2.2
			c-6.7-6.6-13.4-13.4-19.8-20l-1.2-1.2c-1.8-1.8-1.8-4.2,0-6.1c1.6-1.7,3.4-3.5,5.8-5.5c1.6-1.3,3.8-1.1,5.3,0.4
			c3.6,3.7,7.3,7.4,11.1,11.2l2.1,2.1l0.9-1.3c1-1.4,2-2.8,3-4.3c2.7-4,5.4-7.9,8.1-11.9c2.3-3.4,4.6-6.8,7-10.2
			c0.9-1.4,1.9-2.8,2.9-4.2l1.4-2c1.7-2.4,4.3-2.9,6.8-1.3l0.3,0.2c1.6,1.1,3.4,2.3,5,3.4c2.3,1.6,2.7,4,1.1,6.4
			c-6.2,9.2-12.5,18.4-18.7,27.5c-1.9,2.8-3.8,5.5-5.7,8.2c-1.7,2.5-3.4,4.9-5.1,7.4c-1.3,2-3,3.1-4.9,3.3
			C63.5,99.5,63.3,99.5,63.1,99.5z M45.6,65.2c-0.5,0-0.9,0.2-1.4,0.5c-2.4,2-4.2,3.7-5.7,5.4c-1.2,1.3-1.2,2.8,0,4l1.2,1.2
			c6.5,6.6,13.2,13.4,19.8,20c1.3,1.2,2.6,1.8,3.9,1.7c1.4-0.1,2.7-1,3.8-2.6c1.7-2.5,3.4-4.9,5.1-7.4c1.9-2.7,3.8-5.5,5.7-8.2
			c6.3-9.2,12.5-18.3,18.7-27.5c1.1-1.7,0.9-3.2-0.7-4.3c-1.6-1.2-3.3-2.3-5-3.4l-0.3-0.2c-1.8-1.2-3.5-0.9-4.7,0.9l-1.4,2
			c-1,1.4-1.9,2.8-2.9,4.2c-2.3,3.4-4.6,6.8-7,10.2c-2.7,4-5.4,7.9-8.1,11.9c-1,1.4-2,2.8-3,4.3l-1.4,2c-0.1,0.2-0.3,0.3-0.6,0.3
			c-0.2,0-0.4-0.1-0.6-0.2l-2.7-2.7c-3.8-3.8-7.4-7.5-11.1-11.2C47,65.5,46.3,65.2,45.6,65.2z"/>
	</g>
	<g>
		<path class="st1" d="M66,141.6c-1.5,0-3.1-0.5-4.7-1.6c-0.3-0.2-0.4-0.7-0.2-1c0.2-0.3,0.7-0.4,1-0.2c2.5,1.7,4.7,1.8,7,0.3
			c1.1-0.7,2.2-1.4,3.4-2.1c1.5-0.9,3.1-1.9,4.6-3c4.9-3.4,9.4-7.3,13.6-11.5c4.6-4.8,8.8-10.2,12.6-16c3.6-5.7,6.7-12,9.2-18.7
			c3-8.2,5.3-16.6,6.7-25c1-5.8,2-12.7,2.4-19.5l0-0.7c0.1-1.1,0.1-2.3,0.3-3.4c0.4-2.6-0.7-5.6-4-6c-0.4-0.1-0.9-0.1-1.3-0.1
			c-0.6,0-1.2-0.1-1.8-0.2c-3.8-0.7-7.5-2-11.3-4.2c-0.4-0.2-0.5-0.7-0.3-1c0.2-0.4,0.7-0.5,1-0.3c3.7,2,7.3,3.4,10.9,4
			c0.5,0.1,1.1,0.1,1.6,0.2c0.5,0,0.9,0.1,1.4,0.1c3.6,0.5,5.8,3.8,5.2,7.7c-0.2,1.1-0.2,2.2-0.3,3.3l0,0.7
			c-0.4,6.9-1.4,13.8-2.4,19.7c-1.4,8.5-3.7,17-6.8,25.2c-2.5,6.8-5.6,13.1-9.3,18.9c-3.8,6-8.1,11.4-12.7,16.3
			c-4.2,4.4-8.9,8.3-13.8,11.7c-1.5,1.1-3.1,2-4.6,3c-1.1,0.7-2.2,1.4-3.3,2.1C68.7,141.2,67.4,141.6,66,141.6z M42.8,125.4
			c-0.2,0-0.4-0.1-0.5-0.2c-5.6-5.2-10.4-11.3-14.5-18.2c-2.4-4.1-4.4-8.5-6.4-12.7L20.3,92c-0.2-0.4,0-0.8,0.4-1
			c0.4-0.2,0.8,0,1,0.4l1.1,2.3c1.9,4.2,4,8.6,6.3,12.6c4,6.7,8.7,12.7,14.2,17.8c0.3,0.3,0.3,0.8,0,1.1
			C43.2,125.4,43,125.4,42.8,125.4z M14.8,73.3c-0.3,0-0.6-0.2-0.7-0.6c-1-4.2-1.7-8.4-2.5-13.1c-0.6-3.5-1.1-7.1-1.5-11.2
			c-0.2-1.9-0.3-3.8-0.4-5.6c0-0.8-0.1-1.7-0.1-2.5c0-0.4,0-0.8,0-1.2c0-0.8,0-1.6,0-2.4c0.2-3.5,2.6-5.7,6.4-5.9
			c2.9-0.1,5.9-0.9,9.4-2.4c5.9-2.5,11.4-6,16.8-9.4l0.9-0.6c6-3.8,12.4-7.1,19.3-10c3-1.3,6.1-1.1,9.8,0.6
			c6.7,3,13.2,6.6,19.4,10.6c0.3,0.2,0.4,0.7,0.2,1c-0.2,0.3-0.7,0.4-1,0.2c-6.1-4-12.6-7.5-19.2-10.5c-3.4-1.5-6-1.7-8.6-0.6
			c-6.8,2.8-13.2,6.1-19.1,9.9L43,20.3c-5.4,3.4-11,6.9-17,9.5c-3.6,1.6-6.8,2.3-9.9,2.5c-1.4,0.1-4.7,0.6-5,4.5c0,0.7,0,1.5,0,2.3
			c0,0.4,0,0.8,0,1.2c0,0.8,0.1,1.6,0.1,2.4c0.1,1.8,0.2,3.7,0.4,5.5c0.4,4.1,0.9,7.7,1.5,11.1c0.8,4.7,1.5,8.9,2.5,13
			c0.1,0.4-0.2,0.8-0.6,0.9C14.9,73.3,14.9,73.3,14.8,73.3z"/>
	</g>
	<g>
		<line class="st0" x1="82.9" y1="68.8" x2="86.8" y2="63.1"/>
		<path class="st1" d="M82.9,69.5c-0.1,0-0.3,0-0.4-0.1c-0.3-0.2-0.4-0.7-0.2-1l3.9-5.7c0.2-0.3,0.7-0.4,1-0.2
			c0.3,0.2,0.4,0.7,0.2,1l-3.9,5.7C83.4,69.4,83.1,69.5,82.9,69.5z"/>
	</g>
	<g>
		<line class="st0" x1="68.2" y1="90" x2="81.2" y2="71.2"/>
		<path class="st1" d="M68.2,90.8c-0.1,0-0.3,0-0.4-0.1c-0.3-0.2-0.4-0.7-0.2-1l13-18.8c0.2-0.3,0.7-0.4,1-0.2
			c0.3,0.2,0.4,0.7,0.2,1l-13,18.8C68.6,90.7,68.4,90.8,68.2,90.8z"/>
	</g>
	<g>
		<path class="st0" d="M40.6,74.9c0,0-1.8-1.8-0.1-3.2l4.6-4.1"/>
		<path class="st1" d="M40.6,75.6c-0.2,0-0.4-0.1-0.5-0.2c-0.1-0.1-1.1-1.1-1.1-2.4c0-0.5,0.2-1.2,1-1.9l4.6-4.1
			c0.3-0.3,0.8-0.3,1.1,0.1c0.3,0.3,0.3,0.8-0.1,1.1L41,72.2c-0.3,0.3-0.5,0.5-0.5,0.8c0,0.5,0.4,1.1,0.6,1.3c0.3,0.3,0.3,0.8,0,1.1
			C41,75.6,40.8,75.6,40.6,75.6z"/>
	</g>
</g>
</svg>
