<?xml version="1.0" encoding="utf-8"?>
<!-- Generator: Adobe Illustrator 19.2.0, SVG Export Plug-In . SVG Version: 6.00 Build 0)  -->
<svg version="1.1" id="Layer_1" xmlns="http://www.w3.org/2000/svg" xmlns:xlink="http://www.w3.org/1999/xlink" x="0px" y="0px"
	 viewBox="0 0 704.7 225.2" style="enable-background:new 0 0 704.7 225.2;" xml:space="preserve">
<style type="text/css">
	.st0{fill:#269FD9;}
	.st1{fill:#FFFFFF;}
</style>
<g>
	<rect class="st0" width="704.7" height="225.2"/>
	<g>
		<g id="bag_1_">
			<g id="handles_1_">
				<path class="st1" d="M111.3,41.7c-6.9,2.4-12,4.5-12,17.7v6.4l4.1-0.8v-5.5c-0.1-9,2.2-10.8,8.3-13.4
					C111.7,44.3,111.6,42.9,111.3,41.7z"/>
				<path class="st1" d="M123.3,38.9c0.3,1.3,0.5,2.7,0.6,4.2c10.8-1.6,10.6,2.9,10.6,12.2v3.4l4.1-0.8v-2.6
					C138.7,40.8,136.4,37,123.3,38.9z"/>
				<path class="st1" d="M80.7,69.5v-19c-0.1-11.8,6-15.4,17.2-18c16.9-4,18,6.9,18,13.9v16.1l4.1-0.8V46.7c0-13.1-4.1-23-23-18.7
					c-10.1,2.3-20.5,4.9-20.5,22.1v20.2L80.7,69.5z"/>
			</g>
			<path class="st1" d="M159.4,58.8L45.5,81.5v82.8l113.9,22.8l22.8-8.3V67.1L159.4,58.8z M95.3,147.3L70,143.7v-21h25.3V147.3z
				 M95.3,119.5H70v-19.3l25.3-3.6V119.5z M130.3,152.1l-31.9-4.7v-24.7h31.9V152.1z M130.3,119.5H98.4V96.5l31.9-4.7V119.5z"/>
		</g>
	</g>
	<g>
		<path class="st1" d="M272.9,104h-3.5L256,58.5c-0.7-2.3-1.1-4.2-1.1-5.7h-0.2c-0.1,1.3-0.5,3.2-1.3,5.6L239.1,104h-3.5l-17.9-60.4
			h4.7L236.2,92c0.5,1.9,1,3.7,1.3,5.3h0.2c0-0.3,0.1-0.6,0.2-1c0.1-0.4,5.5-18,16.2-52.7h2.1L269.8,92c0.7,2.5,1.1,4.2,1.3,5.3h0.2
			l0.3-1.3l14.5-52.5h4.5L272.9,104z"/>
		<path class="st1" d="M300.7,50c-0.8,0-1.6-0.3-2.2-0.9c-0.6-0.6-1-1.4-1-2.4c0-0.9,0.3-1.7,1-2.3c0.7-0.6,1.4-0.9,2.2-0.9
			c0.9,0,1.6,0.3,2.3,0.8c0.7,0.6,1,1.3,1,2.3c0,0.9-0.3,1.7-1,2.3C302.3,49.7,301.6,50,300.7,50z M298.8,104V60.9h3.9V104H298.8z"
			/>
		<path class="st1" d="M344.9,104V78.9c0-10.4-3.7-15.5-11.2-15.5c-4.1,0-7.5,1.5-10.2,4.5c-2.7,3-4,6.8-4,11.3V104h-3.9V60.9h3.9
			v7.8h0.2c3.1-5.9,8.1-8.9,14.7-8.9c4.7,0,8.3,1.5,10.7,4.6c2.5,3.1,3.7,7.5,3.7,13.3V104H344.9z"/>
		<path class="st1" d="M391.5,104v-7.8h-0.2c-1.4,2.7-3.5,4.9-6.3,6.5c-2.8,1.6-5.8,2.4-9.2,2.4c-5.4,0-9.7-2-13.1-5.9
			c-3.3-3.9-5-9.2-5-16c0-4.5,0.8-8.5,2.5-12c1.6-3.6,4-6.3,7-8.3c3-2,6.4-3,10.3-3c6.5,0,11.1,2.7,13.8,8h0.2V40.2h3.9V104H391.5z
			 M391.5,77.7c0-4.2-1.3-7.6-3.9-10.3c-2.6-2.7-6-4.1-10.1-4.1c-4.6,0-8.3,1.8-11.2,5.3c-2.9,3.5-4.4,8.3-4.4,14.2
			c0,5.7,1.3,10.2,3.8,13.6c2.6,3.4,6,5.1,10.4,5.1c4.6,0,8.4-1.5,11.2-4.4c2.8-2.9,4.3-6.7,4.3-11.3V77.7z"/>
		<path class="st1" d="M425.6,105c-6.2,0-11.2-2.1-14.9-6.1c-3.7-4.1-5.5-9.5-5.5-16.2c0-7,1.9-12.6,5.7-16.7
			c3.8-4.1,8.8-6.1,15.2-6.1c6.1,0,11,2,14.6,6.1c3.6,4,5.3,9.6,5.3,16.6c0,6.7-1.9,12.2-5.6,16.3C436.7,103,431.8,105,425.6,105z
			 M425.9,63.3c-5.1,0-9.1,1.7-12.1,5.2c-3,3.4-4.5,8.2-4.5,14.2c0,5.7,1.5,10.2,4.5,13.6c3,3.4,7,5.1,12,5.1c5.1,0,9.1-1.7,12-5.1
			c2.8-3.4,4.3-8,4.3-14c0-6.2-1.4-10.9-4.2-14.2C435,65,431,63.3,425.9,63.3z"/>
		<path class="st1" d="M492.3,104h-3.6l-9.4-32.5c-0.2-0.6-0.4-1.8-0.7-3.6h-0.2c0,0.6-0.3,1.7-0.8,3.5L467.1,104h-3.6l-13-43.1h4.3
			l10,34.4c0.3,1,0.5,2.2,0.6,3.6h0.3c0.1-0.6,0.3-1.9,0.8-3.6l10.9-34.4h2.7l9.8,34.4c0.2,0.9,0.4,2.1,0.6,3.6h0.3
			c0-0.8,0.2-2,0.7-3.6l10.2-34.4h4L492.3,104z"/>
		<path class="st1" d="M511.1,102.1v-4.7c1.3,1.1,3,2.1,5.1,2.9c2.1,0.8,4,1.2,5.6,1.2c6.8,0,10.1-2.8,10.1-8.3c0-1.8-0.7-3.4-2-4.7
			c-1.4-1.3-3.8-2.8-7.4-4.4c-3.9-1.7-6.7-3.4-8.5-5.3c-1.8-1.9-2.7-4.3-2.7-7.3c0-3.4,1.3-6.2,4-8.4c2.7-2.2,6-3.3,10-3.3
			c3.7,0,6.8,0.8,9.5,2.3v4.4c-3.2-2.1-6.5-3.1-9.9-3.1c-2.8,0-5.1,0.7-6.8,2.2c-1.8,1.5-2.6,3.4-2.6,5.7c0,1.7,0.3,2.9,0.8,3.9
			c0.5,0.9,1.4,1.8,2.7,2.7c1.2,0.9,3.1,1.8,5.5,2.8c4.6,2,7.7,3.9,9.3,5.7c1.6,1.7,2.4,4,2.4,6.8c0,3.5-1.3,6.4-4,8.6
			c-2.6,2.2-6.1,3.3-10.5,3.3C517.3,105,513.8,104,511.1,102.1z"/>
		<path class="st1" d="M227.5,158.5v24.2h-4.2v-60.4h14.6c6.3,0,11,1.4,14.3,4.3c3.3,2.9,4.9,7.1,4.9,12.6c0,5.8-1.9,10.5-5.7,14
			c-3.8,3.5-8.8,5.3-15.2,5.3H227.5z M227.5,126.2v28.5h8.6c5.5,0,9.6-1.3,12.4-3.9c2.8-2.6,4.2-6.3,4.2-11
			c0-9.1-5.2-13.6-15.6-13.6H227.5z"/>
		<path class="st1" d="M297.8,182.7v-25.8c0-5.1-0.9-8.8-2.8-11.2c-1.9-2.4-4.7-3.6-8.7-3.6c-2.6,0-5,0.7-7.1,2.1s-3.8,3.4-5,5.9
			c-1.2,2.5-1.8,5.5-1.8,8.7v23.9h-3.9v-63.8h3.9v28.5h0.2c3.4-5.9,8.4-8.8,14.8-8.8c4.7,0,8.2,1.5,10.7,4.5c2.4,3,3.6,7.3,3.6,12.9
			v26.7H297.8z"/>
		<path class="st1" d="M331.1,183.7c-6.2,0-11.2-2-14.9-6.1c-3.7-4.1-5.5-9.5-5.5-16.2c0-7,1.9-12.6,5.7-16.7
			c3.8-4.1,8.8-6.1,15.2-6.1c6.1,0,11,2,14.6,6.1c3.6,4,5.3,9.6,5.3,16.6c0,6.7-1.9,12.2-5.6,16.3
			C342.2,181.7,337.3,183.7,331.1,183.7z M331.4,142.1c-5.1,0-9.1,1.7-12.1,5.2c-3,3.4-4.5,8.2-4.5,14.3c0,5.7,1.5,10.2,4.5,13.6
			c3,3.4,7,5.1,12,5.1c5.1,0,9.1-1.7,12-5.1c2.8-3.4,4.3-8,4.3-14c0-6.2-1.4-10.9-4.2-14.2C340.5,143.7,336.5,142.1,331.4,142.1z"/>
		<path class="st1" d="M390.6,182.7v-25.1c0-10.4-3.7-15.5-11.2-15.5c-4.1,0-7.5,1.5-10.2,4.5c-2.7,3-4,6.8-4,11.3v24.8h-3.9v-43.1
			h3.9v7.8h0.2c3.1-5.9,8.1-8.9,14.7-8.9c4.7,0,8.3,1.5,10.7,4.6c2.5,3.1,3.7,7.5,3.7,13.3v26.2H390.6z"/>
		<path class="st1" d="M407.5,161.3c0,6,1.4,10.6,4.1,13.9c2.7,3.3,6.5,5,11.2,5c4.9,0,9.6-1.8,14.1-5.3v4.1
			c-4.5,3.2-9.5,4.8-14.9,4.8c-5.7,0-10.2-2-13.6-6.1c-3.4-4.1-5.1-9.7-5.1-16.7c0-4.2,0.8-7.9,2.5-11.4c1.7-3.4,4-6.1,6.9-8.1
			c3-1.9,6.2-2.9,9.9-2.9c5.2,0,9.3,1.9,12.3,5.6c2.9,3.7,4.4,8.9,4.4,15.5v1.7H407.5z M435.4,157.8c-0.2-5-1.4-8.9-3.6-11.6
			c-2.2-2.7-5.3-4.1-9.2-4.1c-4.1,0-7.4,1.4-10.1,4.1c-2.6,2.7-4.3,6.6-4.9,11.6H435.4z"/>
	</g>
</g>
</svg>
