<?xml version="1.0" encoding="utf-8"?>
<!-- Generator: Adobe Illustrator 19.2.0, SVG Export Plug-In . SVG Version: 6.00 Build 0)  -->
<svg version="1.1" id="Layer_1" xmlns="http://www.w3.org/2000/svg" xmlns:xlink="http://www.w3.org/1999/xlink" x="0px" y="0px"
	 viewBox="0 0 65 65" style="enable-background:new 0 0 65 65;" xml:space="preserve">
<style type="text/css">
	.st0{display:none;}
	.st1{display:inline;}
	.st2{fill:#FFFFFF;}
</style>
<rect x="-0.2" y="-4.9" class="st0" width="65.5" height="74.8"/>
<g class="st0">
	<g class="st1">
		<path class="st2" d="M54.5,20c-1.3,0-2.5-0.2-3.5-0.4c-3.5-0.7-7.1-1.4-10.6-2.1l-0.3-0.1c-4.9-1-9.4-1.1-13.7-0.3
			c-2,0.4-4,0.8-5.9,1.2c-1.4,0.3-2.9,0.6-4.3,0.9c-2.5,0.5-4.6,0.8-6.8,0.7c-0.9-0.1-2.1-0.2-3.1-1c-0.9-0.7-1.3-1.5-1.4-2.2
			c0-0.7,0.3-1.5,1.1-2.2c0.3-0.3,0.7-0.6,1.1-0.8c2.1-1.2,4.5-1.6,6.5-1.9c1.3-0.2,2.6-0.3,3.8-0.4c0.5,0,1-0.1,1.5-0.1
			c0.1-0.4,0.2-0.7,0.3-1.1c0.2-0.9,0.5-1.9,0.8-2.8c1-3.1,3.1-5,6.2-5.6l0.1,0C28.3,1.2,30.7,1,33,1c3.9,0,7.1,0.9,8.3,1.5
			c2,1,3.3,2.8,4.1,5.5c0.2,0.8,0.4,1.6,0.6,2.4c0.1,0.3,0.1,0.6,0.2,0.9c0.4,0,0.8,0.1,1.2,0.1c1,0.1,2.1,0.2,3.1,0.3
			c2.1,0.2,4.5,0.6,6.8,1.7l0,0c0.9,0.4,1.8,0.9,2.4,2c0.5,0.8,0.5,1.7,0,2.5c-0.6,0.9-1.4,1.6-2.5,1.8C56.3,19.9,55.4,20,54.5,20z
			 M32.3,16c2.5,0,5.1,0.3,7.9,0.9l0.3,0.1c3.5,0.7,7,1.5,10.6,2.1c1.8,0.3,3.9,0.6,6,0.1c1-0.3,1.7-0.8,2.2-1.6
			c0.4-0.6,0.4-1.2,0-1.9c-0.5-0.9-1.4-1.4-2.2-1.7l0,0c-2.2-1-4.6-1.4-6.7-1.7c-1-0.1-2.1-0.2-3.1-0.3c-0.5,0-0.9-0.1-1.4-0.1
			c-0.1,0-0.2-0.1-0.2-0.2c-0.1-0.4-0.2-0.7-0.2-1.1c-0.2-0.8-0.4-1.6-0.6-2.4C44,5.6,42.8,3.9,41,3c-1.1-0.6-4.2-1.4-8-1.4
			c-2.2,0-4.6,0.2-6.6,0.6l-0.1,0c-3,0.6-4.9,2.4-5.8,5.3c-0.3,0.9-0.5,1.9-0.7,2.8c-0.1,0.4-0.2,0.9-0.3,1.3c0,0.1-0.1,0.2-0.2,0.2
			c-0.5,0.1-1.1,0.1-1.7,0.2c-1.2,0.1-2.5,0.2-3.8,0.4c-2.1,0.3-4.3,0.7-6.3,1.8c-0.4,0.2-0.8,0.5-1,0.7c-0.6,0.6-0.9,1.2-0.9,1.8
			c0,0.6,0.4,1.2,1.2,1.8c0.8,0.7,1.9,0.8,2.8,0.9c2.1,0.1,4.2-0.2,6.6-0.7c1.4-0.3,2.9-0.6,4.3-0.9c2-0.4,3.9-0.8,5.9-1.2
			C28.2,16.2,30.2,16,32.3,16z"/>
	</g>
	<g class="st1">
		<path class="st2" d="M27.5,64l-0.9-0.1c-1.7-0.1-3.6-0.3-5.4-0.5c-4.4-0.5-8.2-1.5-11.7-3c0,0,0,0,0,0c-0.5-0.2-0.7-0.5-0.7-1
			c0-1.8,0-3.7,0-5.8c0-3.1,0.9-6,2.6-8.6c1.6-2.4,3.9-4.5,6.9-6.5c0.3-0.2,0.4-0.4,0.4-0.8c-0.2-1.9-1.1-3.4-1.9-4.5l-0.4-0.6
			c-0.1-0.1-0.1-0.2,0-0.3c0.1-0.1,0.1-0.1,0.3-0.1c2.5,0.1,4.6,0.9,6.4,2.4c0.3,0.2,0.4,0.5,0.6,0.8c0.2,0.3,0.3,0.7,0.5,1
			c0.3,0.6,0.6,1.3,0.9,1.9c1.9,2.9,4.5,5.1,7.1,7.2l0.1,0.1c0,0,0.2,0,0.3,0l0.6-0.5c1.1-0.9,2.3-1.9,3.4-2.9
			c1.8-1.7,3.5-3.5,4.4-6c0.4-1.1,1.1-1.9,2.2-2.5c0.6-0.3,1.4-0.7,2.2-1c0.6-0.2,1.3-0.3,1.9-0.4c0.3,0,0.5-0.1,0.8-0.1
			c0.1,0,0.3,0.1,0.3,0.2l0.1,0.2c0,0.1,0,0.2,0,0.2l-0.1,0.1c-0.1,0.1-0.1,0.2-0.2,0.3c-1.2,1.6-1.8,3-1.9,4.5c0,0.5,0,0.7,0.4,1
			c2,1.2,3.7,2.7,5.3,4.4c2.6,2.8,3.9,5.8,4.1,8.9c0.1,2,0.1,4,0.1,5.9c0,0.6,0,1.2,0,1.8c0,0.3-0.4,0.7-0.6,0.8
			c-3.2,1.4-6.8,2.3-10.9,2.9c-2.1,0.3-4.2,0.5-6,0.6l-1,0.1L27.5,64z M9.7,59.9c3.4,1.4,7.1,2.4,11.5,2.9c1.9,0.2,3.8,0.4,5.4,0.5
			l0.9,0.1l10.1,0l1-0.1c1.8-0.2,3.9-0.4,6-0.6c4-0.5,7.6-1.5,10.7-2.8c0.1-0.1,0.3-0.2,0.3-0.3c0-0.6,0-1.2,0-1.8
			c0-1.9,0-3.9-0.1-5.9c-0.2-3-1.5-5.8-4-8.6c-1.5-1.7-3.2-3.1-5.2-4.3c-0.7-0.4-0.7-0.9-0.7-1.5c0.2-1.6,0.8-3.1,2-4.8
			c0,0,0,0,0-0.1c-0.1,0-0.3,0-0.4,0.1c-0.6,0.1-1.2,0.2-1.8,0.4c-0.8,0.2-1.5,0.6-2.1,0.9c-1,0.5-1.6,1.2-1.9,2.2
			c-0.9,2.5-2.7,4.5-4.5,6.2c-1.1,1-2.3,2-3.4,3L33,45.8c-0.2,0.2-0.7,0.2-1,0l-0.1-0.1c-2.6-2.1-5.3-4.3-7.3-7.3
			c-0.4-0.6-0.7-1.3-1-1.9c-0.2-0.3-0.3-0.7-0.5-1c-0.1-0.2-0.3-0.5-0.4-0.6c-1.6-1.3-3.4-2-5.5-2.2l0.1,0.1c0.8,1.2,1.8,2.8,2,4.8
			c0.1,0.6-0.1,1-0.6,1.4c-3,1.9-5.2,4-6.8,6.3c-1.7,2.5-2.6,5.3-2.6,8.3c0,2.1,0,4,0,5.8C9.4,59.7,9.4,59.8,9.7,59.9L9.7,59.9z"/>
	</g>
	<g class="st1">
		<path class="st2" d="M24.9,44.1c-0.1,0-0.1,0-0.2,0c-3.4-2.3-5.9-5.6-5.9-5.6c-0.1-0.1-0.1-0.3,0.1-0.4c0.1-0.1,0.3-0.1,0.4,0.1
			c0,0,2.4,3.2,5.7,5.5c0.1,0.1,0.2,0.3,0.1,0.4C25,44,25,44.1,24.9,44.1z"/>
	</g>
	<g class="st1">
		<path class="st2" d="M39.3,43.2c-0.1,0-0.1,0-0.2-0.1c-0.1-0.1-0.1-0.3,0-0.4c3-2.8,6.7-4.5,6.7-4.5c0.1-0.1,0.3,0,0.4,0.1
			c0.1,0.1,0,0.3-0.1,0.4c0,0-3.6,1.7-6.6,4.4C39.4,43.2,39.3,43.2,39.3,43.2z"/>
	</g>
	<g class="st1">
		<g>
			<path class="st2" d="M24.3,29.2c-4.2,0-6.7-2.4-7.5-7.1c0-0.2-0.1-0.5-0.1-0.7c0-0.1,0-0.3-0.1-0.4c0-0.1,0-0.2,0.1-0.2
				c0.1-0.1,0.1-0.1,0.2-0.1h14.2c0.1,0,0.3,0.1,0.3,0.2c0.4,2.3-0.1,4.3-1.3,5.9c-1.2,1.5-3,2.3-5.2,2.4
				C24.6,29.2,24.5,29.2,24.3,29.2z M17.2,21.3C17.2,21.3,17.2,21.3,17.2,21.3c0,0.3,0.1,0.5,0.1,0.8c0.8,4.6,3.3,6.8,7.5,6.7
				c2.1-0.1,3.7-0.9,4.8-2.2c1.1-1.3,1.5-3.2,1.2-5.2H17.2z"/>
		</g>
		<g>
			<path class="st2" d="M40.8,29.2c-0.2,0-0.3,0-0.5,0c-2.2-0.1-4-1-5.2-2.4c-1.2-1.5-1.7-3.6-1.3-5.9c0-0.1,0.1-0.2,0.3-0.2h14.2
				c0.1,0,0.2,0,0.2,0.1c0.1,0.1,0.1,0.1,0.1,0.2c0,0.1,0,0.3-0.1,0.4c0,0.2-0.1,0.5-0.1,0.7C47.5,26.8,45,29.2,40.8,29.2z
				 M34.3,21.3c-0.3,2,0.2,3.8,1.2,5.2c1.1,1.4,2.7,2.1,4.8,2.2c4.2,0.2,6.7-2,7.5-6.7c0-0.2,0.1-0.4,0.1-0.7c0,0,0-0.1,0-0.1H34.3z
				"/>
		</g>
		<g>
			<g>
				<path class="st2" d="M24.2,28.2c-1.5,0-2.4-0.5-2.7-0.7c-0.1-0.1-0.1-0.2-0.1-0.3c0.1-0.1,0.2-0.1,0.3-0.1
					c0.5,0.3,2.3,1.3,5.3,0.1c0.1,0,0.2,0,0.2,0.1c0,0.1,0,0.2-0.1,0.2C25.9,28,25,28.2,24.2,28.2z"/>
			</g>
			<g>
				<path class="st2" d="M20.4,26.7c0,0-0.1,0-0.1-0.1c-0.8-0.8-1-1.7-1-1.8c0-0.1,0-0.2,0.1-0.2c0.1,0,0.2,0,0.2,0.1
					c0,0,0.2,0.8,0.9,1.6c0.1,0.1,0.1,0.2,0,0.3C20.5,26.6,20.4,26.7,20.4,26.7z"/>
			</g>
		</g>
		<g>
			<g>
				<path class="st2" d="M40.6,28c-1.5,0-2.4-0.5-2.7-0.7c-0.1-0.1-0.1-0.2-0.1-0.3c0.1-0.1,0.2-0.1,0.3-0.1
					c0.5,0.3,2.3,1.3,5.3,0.1c0.1,0,0.2,0,0.2,0.1c0,0.1,0,0.2-0.1,0.2C42.3,27.8,41.4,28,40.6,28z"/>
			</g>
			<g>
				<path class="st2" d="M36.8,26.5c0,0-0.1,0-0.1-0.1c-0.8-0.8-1-1.7-1-1.8c0-0.1,0-0.2,0.1-0.2c0.1,0,0.2,0,0.2,0.1
					c0,0,0.2,0.8,0.9,1.6c0.1,0.1,0.1,0.2,0,0.3C36.9,26.4,36.8,26.5,36.8,26.5z"/>
			</g>
		</g>
	</g>
	<g class="st1">
		<path class="st2" d="M22.5,6c0,0-0.1,0-0.1,0c-0.1-0.1-0.1-0.2,0-0.3c1.2-1.7,3-2.6,5.9-3c0.1,0,0.2,0.1,0.2,0.2S28.4,3,28.3,3.1
			c-2.7,0.3-4.5,1.2-5.6,2.8C22.6,5.9,22.6,6,22.5,6z"/>
	</g>
	<g class="st1">
		<path class="st2" d="M20.8,11C20.8,11,20.8,11,20.8,11c-0.1,0-0.2-0.1-0.2-0.2c0-0.1,0-1.8,0.9-3.7C21.6,7,21.7,7,21.8,7
			c0.1,0,0.1,0.2,0.1,0.2c-0.8,1.8-0.9,3.5-0.9,3.6C21,10.9,20.9,11,20.8,11z"/>
	</g>
	<g class="st1">
		<path class="st2" d="M10.7,58.7c-0.1,0-0.2-0.1-0.2-0.2c-0.2-4.3,0.5-8.1,0.5-8.1c0-0.1,0.1-0.2,0.2-0.1c0.1,0,0.2,0.1,0.1,0.2
			c0,0-0.7,3.7-0.5,8C10.9,58.6,10.8,58.7,10.7,58.7C10.7,58.7,10.7,58.7,10.7,58.7z"/>
	</g>
	<g class="st1">
		<path class="st2" d="M11.9,48.3C11.9,48.3,11.8,48.3,11.9,48.3c-0.2-0.1-0.2-0.2-0.2-0.3c1.8-4.3,6.3-7,6.4-7
			c0.1-0.1,0.2,0,0.3,0.1c0.1,0.1,0,0.2-0.1,0.3c0,0-4.4,2.6-6.2,6.8C12,48.3,12,48.3,11.9,48.3z"/>
	</g>
	<g class="st1">
		<path class="st2" d="M22.7,16.3c-0.1,0-0.2-0.1-0.2-0.1c0-0.1,0-0.2,0.1-0.2c4.4-0.9,9-1.8,15.4-0.6c0.1,0,0.2,0.1,0.1,0.2
			c0,0.1-0.1,0.2-0.2,0.1C31.6,14.6,27.1,15.5,22.7,16.3C22.7,16.3,22.7,16.3,22.7,16.3z"/>
	</g>
	<g class="st1">
		<path class="st2" d="M10.8,18.8c-2,0-2.8-0.6-2.8-0.6c-0.1-0.1-0.1-0.2,0-0.3c0.1-0.1,0.2-0.1,0.3,0c0,0,1.7,1.2,6.9-0.1l0.9-0.2
			c1.2-0.3,2.5-0.7,3.9-1c0.1,0,0.2,0,0.2,0.1c0,0.1,0,0.2-0.1,0.2c-1.4,0.3-2.7,0.7-3.8,1l-0.9,0.2C13.4,18.6,11.9,18.8,10.8,18.8z
			"/>
	</g>
</g>
<g>
	<g>
		<g>
			<path class="st2" d="M32.5,50C19,50,8,39,8,25.5S19,1,32.5,1C46,1,57,12,57,25.5S46,50,32.5,50z M32.5,1.5c-13.2,0-24,10.8-24,24
				c0,13.2,10.8,24,24,24c13.2,0,24-10.8,24-24C56.5,12.3,45.7,1.5,32.5,1.5z"/>
		</g>
		<g>
			<path class="st2" d="M32.5,47.6c-12.2,0-22.1-9.9-22.1-22.1c0-12.2,9.9-22.1,22.1-22.1s22.1,9.9,22.1,22.1
				C54.6,37.7,44.7,47.6,32.5,47.6z M32.5,3.9c-11.9,0-21.6,9.7-21.6,21.6s9.7,21.6,21.6,21.6s21.6-9.7,21.6-21.6S44.4,3.9,32.5,3.9
				z"/>
		</g>
		<g>
			<path class="st2" d="M18.4,40.7c0,0-0.1,0-0.1,0c-4.2-3.9-6.6-9.4-6.6-15.1c0-5.2,2-10.2,5.5-14.1c0.1-0.1,0.2-0.1,0.2,0
				c0.1,0.1,0.1,0.2,0,0.2c-3.5,3.8-5.4,8.7-5.4,13.9c0,5.6,2.4,11.1,6.5,14.9c0.1,0.1,0.1,0.2,0,0.2C18.5,40.7,18.5,40.7,18.4,40.7
				z"/>
		</g>
		<g>
			<path class="st2" d="M40.8,44.5c-0.1,0-0.1,0-0.1-0.1c0-0.1,0-0.2,0.1-0.2c4.5-2,8.1-5.5,10.3-10c0-0.1,0.1-0.1,0.2-0.1
				c0.1,0,0.1,0.1,0.1,0.2C49.1,38.9,45.4,42.5,40.8,44.5C40.8,44.5,40.8,44.5,40.8,44.5z"/>
		</g>
		<g>
			<path class="st2" d="M19.6,9.6c0,0-0.1,0-0.1-0.1c-0.1-0.1,0-0.2,0-0.2c1.5-1.2,3.1-2.2,4.8-2.9c0.1,0,0.2,0,0.2,0.1
				c0,0.1,0,0.2-0.1,0.2c-1.7,0.7-3.3,1.7-4.7,2.9C19.6,9.6,19.6,9.6,19.6,9.6z"/>
		</g>
		<g>
			<g>
				<path class="st2" d="M32.3,13.7H31c-0.1,0-0.1,0-0.2-0.1c0-0.1-0.1-0.1-0.1-0.2c0.1-0.4,0.1-0.8,0.1-1.3V8.8h-0.7
					c-0.1,0-0.2-0.1-0.2-0.2V7.9c0-0.1,0.1-0.2,0.2-0.2c0.6,0,0.9-0.3,1.2-0.8c0-0.1,0.1-0.1,0.2-0.1h0.7c0.1,0,0.1,0,0.2,0.1
					c0,0.1,0.1,0.1,0.1,0.2c0,0.2,0,0.3-0.1,0.6c0,0.2,0,0.4,0,0.6v4.5c0,0.1,0,0.2,0,0.3c0,0,0,0.1,0,0.1c0,0,0,0.1,0,0.1
					c0,0.1,0,0.2,0,0.3c0,0.1,0,0.1-0.1,0.2C32.4,13.7,32.4,13.7,32.3,13.7z M31.2,13.2H32c0,0,0-0.1,0-0.2c0,0,0-0.1,0-0.1
					c0-0.1,0-0.2,0-0.3V8.2c0-0.2,0-0.4,0-0.7c0-0.1,0-0.2,0-0.3h-0.3C31.4,7.7,31,8,30.4,8.1v0.2h0.7c0.1,0,0.2,0.1,0.2,0.2v3.6
					C31.3,12.5,31.3,12.9,31.2,13.2z"/>
			</g>
			<g>
				<path class="st2" d="M36.8,13.7h-3.8c-0.1,0-0.2-0.1-0.2-0.2v-1c0-0.1,0-0.1,0.1-0.2c0.2-0.2,0.4-0.5,0.6-0.8
					c0.2-0.3,0.5-0.7,0.8-1.1c0.3-0.5,0.6-0.9,0.7-1.2c0.2-0.4,0.2-0.6,0.2-0.6c0-0.1,0-0.2-0.1-0.3c-0.2-0.2-0.6-0.1-1,0
					c-0.2,0.1-0.4,0.2-0.6,0.3c-0.1,0.1-0.2,0.1-0.3,0c-0.1,0-0.1-0.1-0.1-0.2V7.3c0-0.1,0.1-0.2,0.1-0.2c0.2-0.1,0.5-0.2,0.8-0.3
					c0.3-0.1,0.5-0.1,0.8-0.1c0.6,0,1.1,0.2,1.5,0.5c0.4,0.3,0.6,0.8,0.6,1.4c0,0.2,0,0.4-0.1,0.7c-0.1,0.2-0.2,0.5-0.4,0.8
					c-0.1,0.2-0.3,0.4-0.4,0.7c-0.2,0.3-0.4,0.5-0.6,0.8c-0.1,0.1-0.1,0.2-0.2,0.3C35.1,11.9,35,12,35,12.1c0,0-0.1,0.1-0.1,0.1h0.6
					c0.2,0,0.4,0,0.7,0c0.2,0,0.4,0,0.6-0.1c0.1,0,0.1,0,0.2,0.1c0.1,0,0.1,0.1,0.1,0.2v1.1C37,13.6,36.9,13.7,36.8,13.7z
					 M33.2,13.2h3.3v-0.6c-0.1,0-0.2,0-0.4,0c-0.2,0-0.5,0-0.7,0h-1.1c-0.1,0-0.2-0.1-0.2-0.1c0-0.1,0-0.2,0-0.3
					c0.1-0.1,0.1-0.2,0.2-0.3c0.1-0.1,0.1-0.2,0.2-0.3c0.1-0.1,0.1-0.2,0.2-0.3c0.1-0.1,0.1-0.2,0.2-0.3c0.2-0.3,0.4-0.6,0.6-0.8
					c0.2-0.3,0.3-0.5,0.4-0.7c0.1-0.3,0.3-0.5,0.3-0.7c0.1-0.2,0.1-0.4,0.1-0.5c0-0.4-0.1-0.8-0.4-1c-0.3-0.3-0.7-0.4-1.2-0.4
					c-0.2,0-0.5,0-0.7,0.1c-0.2,0-0.4,0.1-0.5,0.2V8c0.1-0.1,0.2-0.1,0.3-0.1c0.5-0.2,1.1-0.2,1.5,0.1c0.2,0.2,0.3,0.4,0.3,0.7
					c0,0.2-0.1,0.4-0.3,0.8c-0.2,0.4-0.4,0.8-0.8,1.3c-0.3,0.4-0.5,0.8-0.8,1.1c-0.2,0.3-0.4,0.6-0.6,0.8V13.2z"/>
			</g>
		</g>
		<g>
			<path class="st2" d="M48.2,28.7c-0.1,0-0.2-0.1-0.2-0.2l-0.1-1.1c0-0.1,0-0.1,0.1-0.2c0,0,0.1-0.1,0.2-0.1h0.2
				c0.5,0,0.9-0.1,1.3-0.3c0.4-0.2,0.6-0.5,0.6-0.9c0-0.1,0-0.2-0.1-0.3c-0.1-0.1-0.4-0.1-0.6-0.1c-0.1,0-0.2,0.1-0.3,0.1
				c-0.1,0-0.1,0-0.2,0c-0.1,0-0.1-0.1-0.1-0.1l-0.4-1c0-0.1,0-0.1,0-0.2c0-0.1,0.1-0.1,0.1-0.1c0.2-0.1,0.3-0.1,0.4-0.2
				c0.1-0.1,0.2-0.1,0.3-0.2c0.2-0.2,0.3-0.3,0.3-0.5c0-0.1,0-0.1-0.1-0.2c-0.2-0.1-0.4-0.1-0.7,0c-0.1,0-0.3,0.1-0.6,0.3
				c-0.1,0-0.2,0-0.2,0c-0.1,0-0.1-0.1-0.1-0.2V22c0-0.1,0.1-0.2,0.1-0.2c0.5-0.2,1-0.3,1.5-0.3c0.2,0,0.5,0,0.7,0.1
				c0.2,0.1,0.4,0.2,0.6,0.3c0.2,0.1,0.3,0.3,0.4,0.5c0.1,0.2,0.1,0.4,0.1,0.7c0,0.2,0,0.4-0.1,0.7c0,0.1-0.1,0.2-0.2,0.3
				c0.1,0,0.1,0.1,0.2,0.1c0.2,0.1,0.3,0.2,0.4,0.4c0.2,0.3,0.3,0.7,0.3,1.1c0,1-0.4,1.8-1.3,2.3C50,28.5,49.1,28.7,48.2,28.7z
				 M48.4,27.6l0,0.6c0.8,0,1.5-0.2,2-0.6c0.7-0.5,1-1.1,1-1.9c0-0.3-0.1-0.6-0.2-0.8c-0.1-0.1-0.2-0.2-0.3-0.3
				c-0.1-0.1-0.2-0.1-0.4-0.2c-0.1,0-0.2-0.1-0.2-0.2c0-0.1,0-0.2,0.1-0.2c0.1-0.1,0.2-0.3,0.3-0.4c0.1-0.2,0.1-0.3,0.1-0.5
				c0-0.2,0-0.3-0.1-0.5c-0.1-0.1-0.2-0.3-0.3-0.3c-0.1-0.1-0.3-0.2-0.4-0.2c-0.5-0.2-1.1-0.1-1.7,0.1v0.5c0.1-0.1,0.2-0.1,0.3-0.1
				c0.5-0.1,0.8-0.1,1.1,0.1c0.2,0.1,0.3,0.3,0.3,0.6c0,0.3-0.2,0.6-0.5,0.9c-0.1,0.1-0.2,0.1-0.4,0.2c-0.1,0-0.1,0.1-0.2,0.1
				l0.2,0.5c0.1,0,0.1,0,0.1-0.1c0.1-0.1,0.3-0.1,0.4-0.1c0.3,0,0.5,0.1,0.7,0.3c0.2,0.2,0.2,0.4,0.2,0.7c0,0.6-0.3,1-0.9,1.4
				C49.4,27.4,48.9,27.6,48.4,27.6z"/>
		</g>
		<g>
			<path class="st2" d="M32,46.2c-0.8,0-1.4-0.3-1.8-0.8c-0.4-0.5-0.6-1.1-0.6-1.9c0-1,0.4-2,1.1-2.9c0.6-0.8,1.5-1.4,2.5-1.8
				c0.1,0,0.2,0,0.3,0.1l0.6,1c0,0.1,0,0.1,0,0.2c0,0.1-0.1,0.1-0.2,0.1c-0.5,0.1-0.9,0.4-1.2,0.6c-0.2,0.1-0.3,0.3-0.5,0.5
				c0.1,0,0.1,0,0.2,0c0.6,0,1.1,0.2,1.5,0.7c0.3,0.4,0.5,1,0.5,1.6c0,0.7-0.2,1.3-0.6,1.8C33.3,45.9,32.7,46.2,32,46.2z M33.2,39.3
				c-0.8,0.4-1.6,0.9-2.1,1.6c-0.6,0.8-1,1.7-1,2.6c0,0.6,0.2,1.2,0.5,1.6c0.3,0.4,0.8,0.7,1.4,0.7c0.6,0,1-0.2,1.4-0.6
				c0.3-0.4,0.5-0.9,0.5-1.5c0-0.5-0.1-0.9-0.4-1.3c-0.3-0.4-0.6-0.5-1.1-0.5c-0.2,0-0.5,0.1-0.7,0.2c-0.1,0.1-0.2,0-0.3,0
				c-0.1-0.1-0.1-0.2,0-0.3c0.3-0.5,0.7-0.9,1-1.2c0.3-0.3,0.7-0.5,1.1-0.6L33.2,39.3z M32.1,45.1c-0.4,0-0.7-0.2-0.9-0.6
				c-0.2-0.3-0.2-0.6-0.2-1c0-0.2,0-0.5,0.1-0.7c0-0.1,0-0.1,0.1-0.1c0.2-0.1,0.3-0.2,0.5-0.3c0.2-0.1,0.3-0.1,0.5-0.1
				c0.4,0,0.7,0.2,0.9,0.5c0.2,0.2,0.2,0.5,0.2,0.9c0,0.4-0.1,0.7-0.2,0.9C32.8,45,32.4,45.1,32.1,45.1z M31.4,43.1
				c0,0.2-0.1,0.3-0.1,0.5c0,0.3,0.1,0.5,0.2,0.8c0.1,0.2,0.3,0.3,0.5,0.3c0.2,0,0.4-0.1,0.5-0.3c0.1-0.2,0.2-0.4,0.2-0.7
				c0-0.3-0.1-0.5-0.2-0.6c-0.1-0.2-0.3-0.2-0.5-0.2c-0.1,0-0.2,0-0.3,0.1C31.6,42.9,31.5,43,31.4,43.1z"/>
		</g>
		<g>
			<path class="st2" d="M15.5,29.1c-0.1,0-0.2,0-0.2-0.1l-0.6-1c0-0.1,0-0.1,0-0.2c0-0.1,0.1-0.1,0.1-0.2c0.4-0.2,0.8-0.4,1.2-0.8
				c0.2-0.2,0.3-0.3,0.5-0.5c-0.1,0-0.2,0-0.3,0c-0.6,0-1.1-0.3-1.5-0.8c-0.3-0.4-0.5-1-0.5-1.6c0-0.7,0.2-1.2,0.6-1.7
				c0.4-0.4,1-0.7,1.7-0.7c0.8,0,1.4,0.3,1.8,0.9c0.4,0.5,0.6,1.2,0.6,1.9c0,1-0.3,1.9-1,2.7c-0.6,0.8-1.3,1.4-2.2,1.8
				C15.6,29.1,15.5,29.1,15.5,29.1z M15.2,28l0.3,0.5c0.8-0.4,1.4-0.9,1.9-1.6c0.6-0.8,0.9-1.6,0.9-2.4c0-0.7-0.2-1.2-0.5-1.6
				c-0.3-0.5-0.8-0.7-1.4-0.7c-0.6,0-1,0.2-1.3,0.5c-0.3,0.3-0.5,0.8-0.5,1.3c0,0.5,0.1,0.9,0.4,1.3c0.3,0.4,0.7,0.6,1.1,0.6
				c0.1,0,0.3,0,0.4-0.1c0.1,0,0.3-0.1,0.4-0.2c0.1-0.1,0.2-0.1,0.3,0c0.1,0.1,0.1,0.2,0,0.3c-0.3,0.5-0.6,0.9-1,1.3
				C16,27.5,15.6,27.8,15.2,28z M16.5,25.3c-0.4,0-0.7-0.2-0.9-0.5c-0.2-0.3-0.3-0.6-0.3-1c0-0.3,0.1-0.6,0.3-0.9
				c0.2-0.3,0.5-0.4,0.8-0.4c0.4,0,0.8,0.2,1,0.6c0.2,0.3,0.2,0.7,0.2,1.1c0,0,0,0,0,0l0,0.3c0,0.1,0,0.1-0.1,0.2
				c-0.1,0.1-0.3,0.3-0.5,0.3C16.9,25.3,16.7,25.3,16.5,25.3z M16.4,23.2c-0.2,0-0.3,0.1-0.4,0.2c-0.1,0.2-0.2,0.3-0.2,0.6
				c0,0.3,0.1,0.5,0.2,0.7c0.1,0.2,0.3,0.3,0.5,0.3c0.1,0,0.3,0,0.4-0.1c0.1,0,0.2-0.1,0.3-0.2l0-0.2c0-0.3-0.1-0.6-0.2-0.8
				C16.8,23.3,16.6,23.2,16.4,23.2z M17.4,24.4L17.4,24.4L17.4,24.4z"/>
		</g>
		<g>
			<path class="st2" d="M33,26.7c-0.7,0-1.2-0.4-1.3-1l-4.8-4.6L26,22c-0.1,0.1-0.1,0.1-0.2,0.1c-0.1,0-0.2-0.1-0.2-0.2L24,17.2
				c0-0.1,0-0.2,0.1-0.3c0.1-0.1,0.2-0.1,0.2-0.1l4.8,1.5c0.1,0,0.1,0.1,0.2,0.2c0,0.1,0,0.2-0.1,0.2l-0.9,0.9l4.5,4.5
				c0,0,0.1,0,0.1,0l7.1-8.3L39,15.1c-0.1-0.1-0.1-0.1-0.1-0.2c0-0.1,0.1-0.2,0.1-0.2l4.6-1.9c0.1,0,0.2,0,0.3,0
				c0.1,0.1,0.1,0.2,0.1,0.2L42.8,18c0,0.1-0.1,0.1-0.2,0.2c-0.1,0-0.2,0-0.2-0.1l-1-0.9l-7.1,8c0,0.1,0,0.2,0,0.3
				C34.4,26.2,33.8,26.7,33,26.7z M26.9,20.5c0.1,0,0.1,0,0.2,0.1l5.1,4.8c0,0,0.1,0.1,0.1,0.2c0,0.4,0.4,0.7,0.8,0.7
				c0.5,0,0.9-0.3,0.9-0.8c0-0.1,0-0.2-0.1-0.3c0-0.1,0-0.2,0-0.3l7.4-8.2c0.1-0.1,0.2-0.1,0.3,0l0.9,0.8l1-4L39.6,15l0.8,0.7
				c0.1,0.1,0.1,0.2,0,0.3l-7.3,8.5c0,0.1-0.1,0.1-0.2,0.1c-0.1,0-0.2,0-0.3,0c-0.1,0-0.2,0-0.3-0.1l-4.7-4.8
				c-0.1-0.1-0.1-0.2,0-0.3l0.8-0.8l-4-1.2l1.3,3.9l0.8-0.8C26.7,20.5,26.8,20.5,26.9,20.5z"/>
		</g>
	</g>
	<g>
		<g>
			<path class="st2" d="M27.2,63.3h-5.2c-0.1,0-0.2-0.1-0.2-0.2v-1.3c0-0.1,0-0.1,0.1-0.2c0.3-0.3,0.5-0.7,0.9-1.1
				c0.3-0.4,0.7-1,1.1-1.5c0.4-0.6,0.8-1.2,1-1.7c0.3-0.6,0.3-0.8,0.3-0.9c0-0.2-0.1-0.4-0.2-0.5c-0.4-0.3-0.9-0.2-1.4,0
				c-0.3,0.1-0.5,0.2-0.8,0.4c-0.1,0.1-0.2,0.1-0.3,0c-0.1,0-0.1-0.1-0.1-0.2v-1.5c0-0.1,0.1-0.2,0.1-0.2c0.3-0.2,0.7-0.3,1-0.4
				c0.3-0.1,0.7-0.1,1.1-0.1c0.7,0,1.4,0.2,1.9,0.6c0.5,0.4,0.8,1,0.8,1.8c0,0.3-0.1,0.6-0.2,0.9c-0.1,0.3-0.3,0.7-0.5,1.1
				c-0.2,0.3-0.3,0.6-0.6,1c-0.2,0.3-0.5,0.7-0.8,1.1c-0.1,0.1-0.2,0.2-0.3,0.4c-0.1,0.1-0.2,0.2-0.3,0.4c-0.1,0.1-0.1,0.2-0.2,0.3
				h0.9c0.3,0,0.6,0,0.9,0c0.3,0,0.6,0,0.8-0.1c0.1,0,0.1,0,0.2,0.1s0.1,0.1,0.1,0.2v1.5C27.5,63.2,27.4,63.3,27.2,63.3z M22.3,62.8
				H27v-1c-0.2,0-0.4,0-0.6,0c-0.3,0-0.6,0-0.9,0h-1.4c-0.1,0-0.2-0.1-0.2-0.1c0-0.1,0-0.2,0-0.3c0.1-0.1,0.2-0.2,0.3-0.3
				c0.1-0.1,0.2-0.2,0.3-0.3c0.1-0.1,0.2-0.2,0.2-0.3c0.1-0.1,0.2-0.2,0.3-0.4c0.3-0.4,0.5-0.8,0.7-1.1c0.2-0.3,0.4-0.6,0.6-0.9
				c0.2-0.4,0.4-0.7,0.5-1c0.1-0.3,0.2-0.5,0.2-0.7c0-0.6-0.2-1.1-0.6-1.4c-0.4-0.4-1-0.5-1.6-0.5c-0.3,0-0.6,0-0.9,0.1
				c-0.3,0.1-0.5,0.2-0.8,0.3v0.9c0.2-0.1,0.3-0.2,0.5-0.2c0.7-0.3,1.4-0.3,1.9,0.1c0.3,0.2,0.4,0.5,0.4,0.8c0,0.1,0,0.4-0.4,1.1
				c-0.2,0.5-0.6,1-1,1.7c-0.4,0.6-0.7,1.1-1.1,1.5c-0.3,0.4-0.6,0.8-0.8,1.1V62.8z"/>
		</g>
		<g>
			<path class="st2" d="M32.7,63.3H31c-0.1,0-0.1,0-0.2-0.1c0-0.1-0.1-0.1-0.1-0.2c0-0.3,0.1-0.7,0.1-1c0-0.3,0-0.6,0-0.9
				c-0.3,0-0.8,0-1.3,0c-0.7,0-1.1,0-1.2,0c-0.1,0-0.2,0-0.2-0.1l-0.7-1.3c0-0.1,0-0.2,0-0.3c0.7-0.9,1.3-1.8,1.9-2.8
				c0.7-1.1,1.2-2.1,1.5-2.9c0-0.1,0.1-0.1,0.1-0.1c0.1,0,0.1,0,0.2,0l1.4,0.8c0.1,0,0.1,0.1,0.1,0.2c0,0.1,0,0.1-0.1,0.2
				c-0.5,0.6-1,1.3-1.6,2.3c0,0-0.1,0.1-0.1,0.1h1.7c0.1,0,0.1,0,0.2,0.1c0,0.1,0.1,0.1,0.1,0.2c0,0.2-0.1,0.5-0.1,0.8
				c0,0.3,0,0.5,0,0.8l0.6,0c0.1,0,0.1,0,0.2,0.1c0.1,0,0.1,0.1,0.1,0.2V61c0,0.1,0,0.1-0.1,0.2c-0.1,0-0.1,0.1-0.2,0.1l-0.6,0
				c0,0.4,0,0.6,0,0.9c0,0.3,0,0.6,0.1,1c0,0.1,0,0.1-0.1,0.2C32.9,63.3,32.8,63.3,32.7,63.3z M31.3,62.8h1.2c0-0.3-0.1-0.5-0.1-0.7
				c0-0.3,0-0.7,0-1.2c0-0.1,0-0.1,0.1-0.2c0.1,0,0.1-0.1,0.2-0.1l0.6,0v-1l-0.6,0c-0.1,0-0.1,0-0.2-0.1s-0.1-0.1-0.1-0.2v-0.1
				c0-0.3,0-0.6,0-0.9c0-0.2,0-0.4,0-0.6h-1.2c0.1,0.5,0.1,1,0.1,1.5v0.2c0,0.1-0.1,0.2-0.2,0.2h-1.6c-0.1,0-0.2,0-0.2-0.1
				c0-0.1,0-0.2,0-0.2c0.5-0.8,0.9-1.6,1.4-2.4c0.5-0.9,1-1.6,1.4-2.1l-0.9-0.5c-0.3,0.8-0.8,1.7-1.4,2.7c-0.6,0.9-1.2,1.8-1.8,2.7
				l0.6,1c0.2,0,0.5,0,1,0c0.7,0,1.2,0,1.6,0c0.1,0,0.2,0.1,0.2,0.2c0,0.4,0,0.7,0,1.1C31.3,62.3,31.3,62.6,31.3,62.8z M29.9,59.3h1
				c0-0.5,0-1-0.1-1.5C30.5,58.3,30.2,58.8,29.9,59.3z"/>
		</g>
		<g>
			<path class="st2" d="M35.7,64c0,0-0.1,0-0.1,0l-1.3-0.6c-0.1,0-0.1-0.1-0.1-0.2c0-0.1,0-0.1,0-0.2c0.1-0.2,0.2-0.3,0.2-0.5
				c0.1-0.2,0.1-0.4,0.2-0.6c0.1-0.2,0.2-0.6,0.4-1l0-0.1c0.2-0.5,0.4-1,0.6-1.7c0.2-0.5,0.4-1,0.5-1.5c0.2-0.5,0.3-0.9,0.4-1.3
				c0.2-0.5,0.3-1,0.4-1.5c0.1-0.5,0.2-0.9,0.3-1.3c0-0.1,0.1-0.1,0.1-0.2c0.1,0,0.1,0,0.2,0l1.3,0.7c0.1,0,0.1,0.1,0.1,0.1
				c0,0.1,0,0.1,0,0.2c-0.1,0.2-0.3,0.6-0.5,1.1c-0.2,0.5-0.4,1.2-0.7,2c-0.2,0.6-0.5,1.3-0.7,2c-0.2,0.7-0.4,1.4-0.7,2.1
				c-0.6,1.8-0.6,2.2-0.6,2.2c0,0.1,0,0.2-0.1,0.2C35.8,64,35.7,64,35.7,64z M34.7,63l0.8,0.4c0.1-0.3,0.2-0.9,0.6-2
				c0.2-0.7,0.4-1.4,0.7-2.1c0.2-0.7,0.4-1.3,0.7-2c0.3-0.8,0.5-1.5,0.7-2c0.2-0.4,0.3-0.7,0.4-0.9l-0.8-0.4
				c-0.1,0.3-0.2,0.7-0.3,1.1c-0.1,0.5-0.3,1-0.4,1.5c-0.1,0.4-0.3,0.8-0.4,1.3c-0.2,0.5-0.3,1-0.5,1.5c-0.2,0.6-0.4,1.2-0.6,1.7
				l0,0.1c-0.2,0.4-0.3,0.8-0.4,1c-0.1,0.2-0.2,0.5-0.2,0.6C34.8,62.8,34.7,62.9,34.7,63z"/>
		</g>
		<g>
			<path class="st2" d="M40.7,63.6c0,0-0.1,0-0.1,0l-1.5-0.8c-0.1,0-0.1-0.1-0.1-0.2c0-0.1,0-0.1,0-0.2c0.4-0.6,0.9-1.3,1.4-2.2
				c0.3-0.6,0.7-1.3,1.2-2.3c0.5-0.9,0.8-1.6,1-2h-0.3c-0.2,0-0.5,0-0.7,0c-0.5,0-0.8,0-1,0c-0.2,0-0.5,0-0.8,0.1
				c-0.1,0-0.1,0-0.2-0.1c-0.1,0-0.1-0.1-0.1-0.2v-1.5c0-0.1,0.1-0.2,0.2-0.2h5c0.1,0,0.2,0.1,0.2,0.2v1.3c0,0.1,0,0.1-0.9,1.8
				c-0.9,1.6-1.5,2.7-1.8,3.3c-0.7,1.3-1.2,2.2-1.4,2.8C41,63.5,40.9,63.5,40.7,63.6C40.8,63.6,40.8,63.6,40.7,63.6z M39.6,62.4
				l1,0.6c0.2-0.6,0.7-1.4,1.3-2.6c0.3-0.6,0.9-1.7,1.8-3.3c0.7-1.2,0.8-1.5,0.9-1.6v-1h-4.5v1c0.2,0,0.4,0,0.6-0.1
				c0.2,0,0.6,0,1.1,0c0.2,0,0.4,0,0.7,0h0.7c0.1,0,0.2,0,0.2,0.1c0,0.1,0,0.2,0,0.2c-0.2,0.3-0.5,1-1.2,2.3c-0.5,1-0.9,1.8-1.2,2.3
				C40.4,61.2,40,61.9,39.6,62.4z"/>
		</g>
	</g>
</g>
</svg>
