<?xml version="1.0" encoding="UTF-8" standalone="no"?>
<!-- Created with Inkscape (http://www.inkscape.org/) -->

<svg
   xmlns:dc="http://purl.org/dc/elements/1.1/"
   xmlns:cc="http://creativecommons.org/ns#"
   xmlns:rdf="http://www.w3.org/1999/02/22-rdf-syntax-ns#"
   xmlns:svg="http://www.w3.org/2000/svg"
   xmlns="http://www.w3.org/2000/svg"
   xmlns:sodipodi="http://sodipodi.sourceforge.net/DTD/sodipodi-0.dtd"
   xmlns:inkscape="http://www.inkscape.org/namespaces/inkscape"
   width="153.33221mm"
   height="81.521339mm"
   viewBox="0 0 543.30312 288.85514"
   id="svg2"
   version="1.1"
   inkscape:version="0.91 r13725"
   sodipodi:docname="actions-step2.svg">
  <defs
     id="defs4" />
  <sodipodi:namedview
     id="base"
     pagecolor="#ffffff"
     bordercolor="#666666"
     borderopacity="1.0"
     inkscape:pageopacity="0.0"
     inkscape:pageshadow="2"
     inkscape:zoom="0.98994949"
     inkscape:cx="119.378"
     inkscape:cy="181.60438"
     inkscape:document-units="px"
     inkscape:current-layer="layer1"
     showgrid="false"
     fit-margin-left="10"
     fit-margin-right="10"
     fit-margin-top="10"
     fit-margin-bottom="10"
     inkscape:window-width="1366"
     inkscape:window-height="705"
     inkscape:window-x="-8"
     inkscape:window-y="-8"
     inkscape:window-maximized="1" />
  <metadata
     id="metadata7">
    <rdf:RDF>
      <cc:Work
         rdf:about="">
        <dc:format>image/svg+xml</dc:format>
        <dc:type
           rdf:resource="http://purl.org/dc/dcmitype/StillImage" />
        <dc:title></dc:title>
      </cc:Work>
    </rdf:RDF>
  </metadata>
  <g
     inkscape:label="Layer 1"
     inkscape:groupmode="layer"
     id="layer1"
     transform="translate(-332.17576,-399.09042)">
    <g
       id="g5007"
       transform="translate(301.66383,142.85149)">
      <g
         display="none"
         id="step1"
         style="display:none">
        <g
           display="inline"
           id="checklist"
           style="display:inline">
          <path
             id="path4806"
             d="m 401.421,60.201 c 1.913,-1.662 9.984,-1.76 9.984,-1.76 l 136.214,0 c 0,0 7.283,0.114 9.305,2.136 2.013,2.013 2.136,9.25 2.136,9.25 l 0,114.285 c 0,0 -0.69,5.783 -2.028,7.032 -1.76,1.643 -9.415,2.028 -9.415,2.028 l -136.212,0 c 0,0 -7.489,-0.103 -9.566,-2.179 -1.639,-1.639 -2.179,-7.092 -2.179,-7.092 l 0,-114.074 0,-4.217 c 0,0 0.687,-4.476 1.761,-5.409 z"
             stroke-miterlimit="10"
             inkscape:connector-curvature="0"
             style="fill:#ffffff;stroke:#000000;stroke-width:5;stroke-miterlimit:10" />
          <text
             id="text4808"
             font-size="22.7727"
             transform="translate(422.7452,173.0388)"
             style="font-size:22.77269936px;font-family:Montserrat-Bold">Checklist</text>
          <polyline
             id="polyline4810"
             points="422.745,85.505 427.146,96.172     446.479,77.505   "
             stroke-miterlimit="10"
             style="fill:none;stroke:#000000;stroke-width:5;stroke-miterlimit:10" />
          <line
             id="line4812"
             y2="86.838997"
             x2="537.81299"
             y1="86.838997"
             x1="446.479"
             stroke-miterlimit="10"
             style="fill:none;stroke:#000000;stroke-width:5;stroke-miterlimit:10" />
          <polyline
             id="polyline4814"
             points="421.827,108.516 426.228,119.182     445.561,100.516   "
             stroke-miterlimit="10"
             style="fill:none;stroke:#000000;stroke-width:5;stroke-miterlimit:10" />
          <line
             id="line4816"
             y2="109.849"
             x2="536.89502"
             y1="109.849"
             x1="445.561"
             stroke-miterlimit="10"
             style="fill:none;stroke:#000000;stroke-width:5;stroke-miterlimit:10" />
          <polyline
             id="polyline4818"
             points="421.827,130.839 426.228,141.505     445.561,122.839   "
             stroke-miterlimit="10"
             style="fill:none;stroke:#000000;stroke-width:5;stroke-miterlimit:10" />
          <line
             id="line4820"
             y2="132.172"
             x2="536.89502"
             y1="132.172"
             x1="445.561"
             stroke-miterlimit="10"
             style="fill:none;stroke:#000000;stroke-width:5;stroke-miterlimit:10" />
        </g>
        <g
           display="inline"
           id="message"
           style="display:inline">
          <path
             id="path4823"
             d="m 204.874,60.201 c 1.913,-1.662 9.984,-1.76 9.984,-1.76 l 136.214,0 c 0,0 7.283,0.114 9.305,2.136 2.013,2.013 2.136,9.25 2.136,9.25 l 0,114.285 c 0,0 -0.69,5.783 -2.028,7.032 -1.76,1.643 -9.415,2.028 -9.415,2.028 l -136.212,0 c 0,0 -7.489,-0.103 -9.566,-2.179 -1.639,-1.639 -2.179,-7.092 -2.179,-7.092 l 0,-114.074 0,-4.217 c 0.001,0 0.688,-4.476 1.761,-5.409 z"
             stroke-miterlimit="10"
             inkscape:connector-curvature="0"
             style="fill:#ffffff;stroke:#000000;stroke-width:5;stroke-miterlimit:10" />
          <text
             id="text4825"
             font-size="22.7727"
             transform="translate(231.3574,173.0388)"
             style="font-size:22.77269936px;font-family:Montserrat-Bold">Message</text>
          <path
             id="path4827"
             d="m 339.43,107.914 c 0,9.873 -5.352,18.887 -14.171,25.746 -2.128,1.655 4.34,17.028 4.34,17.028 0,0 -16.744,-9.71 -19.723,-8.594 -8.04,3.012 -17.26,4.724 -27.061,4.724 -31.268,0 -56.615,-17.418 -56.615,-38.903 0,-21.485 25.348,-38.903 56.615,-38.903 31.267,0 56.615,17.416 56.615,38.902 z"
             stroke-miterlimit="10"
             inkscape:connector-curvature="0"
             style="fill:none;stroke:#000000;stroke-width:5;stroke-miterlimit:10" />
        </g>
        <g
           display="inline"
           id="send-email"
           style="display:inline">
          <path
             id="path4830"
             d="m 60.614,25.46 c 3.025,-2.628 15.783,-2.783 15.783,-2.783 l 215.334,0 c 0,0 11.513,0.18 14.711,3.377 3.182,3.182 3.377,14.623 3.377,14.623 l 0,180.667 c 0,0 -1.091,9.143 -3.205,11.117 -2.782,2.597 -14.883,3.205 -14.883,3.205 l -215.334,0 c 0,0 -11.84,-0.162 -15.122,-3.444 -2.591,-2.591 -3.444,-11.212 -3.444,-11.212 l 0,-180.333 0,-6.666 c 0,0 1.086,-7.076 2.783,-8.551 z"
             stroke-miterlimit="10"
             inkscape:connector-curvature="0"
             style="fill:#ffffff;stroke:#000000;stroke-width:5;stroke-miterlimit:10" />
          <path
             id="path4832"
             d="m 158.65,98.339 101.5,-42.5 c 0,0 1,0 4,5 3,5 24.5,41 24.5,41 0,0 1.5,4.5 -2.5,6 -4,1.5 -99,47.5 -99,47.5 0,0 -4.5,-2.5 -6,-4.5 -1.5,-2 -25,-48 -25,-48 l 2.5,-4.5 z"
             stroke-miterlimit="10"
             inkscape:connector-curvature="0"
             style="fill:#ffffff;stroke:#000000;stroke-width:5;stroke-miterlimit:10" />
          <path
             id="path4834"
             d="m 258.033,56.725 c 0,0 -13.216,35.28 -14.716,36.78 -1.5,1.5 -4.333,2.333 -6.667,2.667 -2.333,0.333 -76.829,1.676 -76.829,1.676"
             stroke-miterlimit="10"
             inkscape:connector-curvature="0"
             style="fill:none;stroke:#000000;stroke-width:5;stroke-miterlimit:10" />
          <line
             id="line4836"
             y2="133.839"
             x2="97.813004"
             y1="115.172"
             x1="142.813"
             stroke-miterlimit="10"
             style="fill:none;stroke:#000000;stroke-width:5;stroke-miterlimit:10" />
          <line
             id="line4838"
             y2="133.839"
             x2="126.479"
             y1="124.505"
             x1="148.146"
             stroke-miterlimit="10"
             style="fill:none;stroke:#000000;stroke-width:5;stroke-miterlimit:10" />
          <line
             id="line4840"
             y2="141.839"
             x2="142.813"
             y1="136.172"
             x1="156.14999"
             stroke-miterlimit="10"
             style="fill:none;stroke:#000000;stroke-width:5;stroke-miterlimit:10" />
          <text
             id="text4842"
             font-size="36"
             transform="translate(88.4795,203.8387)"
             style="font-size:36px;font-family:Montserrat-Bold">Send Email</text>
        </g>
      </g>
      <g
         id="setp2">
        <g
           id="finance">
          <path
             id="path4846"
             d="m 70.206,340.895 c 1.913,-1.662 9.984,-1.76 9.984,-1.76 l 136.214,0 c 0,0 7.283,0.114 9.305,2.136 2.013,2.013 2.136,9.25 2.136,9.25 l 0,114.285 c 0,0 -0.69,5.783 -2.028,7.032 -1.76,1.643 -9.415,2.028 -9.415,2.028 l -136.212,0 c 0,0 -7.489,-0.103 -9.566,-2.179 -1.639,-1.639 -2.179,-7.092 -2.179,-7.092 l 0,-114.075 0,-4.217 c 0.001,0 0.688,-4.476 1.761,-5.408 z"
             stroke-miterlimit="10"
             inkscape:connector-curvature="0"
             style="fill:#ffffff;stroke:#000000;stroke-width:5;stroke-miterlimit:10" />
          <text
             id="text4848"
             font-size="22.7727"
             transform="translate(104.6894,453.7328)"
             style="font-size:22.77269936px;font-family:Montserrat-Bold">Finance</text>
          <g
             id="g4850">
            <g
               id="g4852">
              <polyline
                 id="polyline4854"
                 points="104.896,412.293 136.625,380.564       158.125,402.064 182.516,377.673     "
                 stroke-miterlimit="10"
                 style="fill:none;stroke:#000000;stroke-width:5;stroke-miterlimit:10" />
              <g
                 id="g4856">
                <polygon
                   id="polygon4858"
                   points="174.54,373.308 186.881,385.648 191.396,368.793 " />
              </g>
            </g>
          </g>
        </g>
        <g
           id="message_1_">
          <path
             id="path4861"
             d="m 249.641,340.895 c 1.913,-1.662 9.984,-1.76 9.984,-1.76 l 136.214,0 c 0,0 7.283,0.114 9.305,2.136 2.013,2.013 2.136,9.25 2.136,9.25 l 0,114.285 c 0,0 -0.69,5.783 -2.028,7.032 -1.76,1.643 -9.415,2.028 -9.415,2.028 l -136.212,0 c 0,0 -7.489,-0.103 -9.566,-2.179 -1.639,-1.639 -2.179,-7.092 -2.179,-7.092 l 0,-114.075 0,-4.217 c 0,0 0.687,-4.476 1.761,-5.408 z"
             stroke-miterlimit="10"
             inkscape:connector-curvature="0"
             style="fill:#ffffff;stroke:#000000;stroke-width:5;stroke-miterlimit:10" />
          <text
             id="text4863"
             font-size="22.7727"
             transform="translate(276.1238,453.7326)"
             style="font-size:22.77269936px;font-family:Montserrat-Bold">Message</text>
          <path
             id="path4865"
             d="m 384.196,388.607 c 0,9.873 -5.352,18.887 -14.171,25.746 -2.128,1.655 4.34,17.028 4.34,17.028 0,0 -16.744,-9.71 -19.723,-8.594 -8.04,3.012 -17.26,4.724 -27.061,4.724 -31.268,0 -56.615,-17.418 -56.615,-38.903 0,-21.486 25.348,-38.903 56.615,-38.903 31.267,0 56.615,17.417 56.615,38.902 z"
             stroke-miterlimit="10"
             inkscape:connector-curvature="0"
             style="fill:none;stroke:#000000;stroke-width:5;stroke-miterlimit:10" />
        </g>
        <g
           id="send-email_1_">
          <path
             id="path4868"
             d="m 286.678,296.955 c 3.025,-2.628 15.783,-2.783 15.783,-2.783 l 215.333,0 c 0,0 11.513,0.18 14.711,3.377 3.182,3.182 3.377,14.623 3.377,14.623 l 0,180.667 c 0,0 -1.091,9.143 -3.205,11.117 -2.782,2.597 -14.883,3.205 -14.883,3.205 l -215.333,0 c 0,0 -11.84,-0.162 -15.122,-3.444 -2.591,-2.591 -3.444,-11.212 -3.444,-11.212 l 0,-180.333 0,-6.666 c 0,-10e-4 1.086,-7.077 2.783,-8.551 z"
             stroke-miterlimit="10"
             inkscape:connector-curvature="0"
             style="fill:#ffffff;stroke:#000000;stroke-width:5;stroke-miterlimit:10" />
          <text
             id="text4870"
             font-size="36"
             transform="translate(335.5431,475.3333)"
             style="font-size:36px;font-family:Montserrat-Bold">Weather</text>
          <path
             id="path4872"
             d="m 420,365.5 c 0,0 -32.5,-45 -46,11.5 0,0 -28,-13.5 -38,21.5 0,0 -10,-5.5 -19,7 0,0 -15,33 21,26 0,0 10,6 20,-2.5 0,0 38.5,11.5 65.5,-2.5 0,0 25,6 42,-2.5 0,0 27.5,7.5 41.5,-13 0,0 3.5,-31.5 -42.5,-25.5 0,0 -7.5,-22.5 -44.5,-20 z"
             stroke-miterlimit="10"
             inkscape:connector-curvature="0"
             style="fill:none;stroke:#000000;stroke-width:3;stroke-miterlimit:10" />
          <circle
             id="circle4874"
             r="23.25"
             cy="379.75"
             cx="437.25"
             stroke-miterlimit="10"
             style="fill:#ffffff;stroke:#000000;stroke-width:3;stroke-miterlimit:10" />
          <line
             id="line4876"
             y2="324.5"
             x2="419"
             y1="352.5"
             x1="426"
             stroke-miterlimit="10"
             style="fill:#ffffff;stroke:#000000;stroke-width:3;stroke-miterlimit:10" />
          <line
             id="line4878"
             y2="324.5"
             x2="445.66699"
             y1="351"
             x1="441.66699"
             stroke-miterlimit="10"
             style="fill:#ffffff;stroke:#000000;stroke-width:3;stroke-miterlimit:10" />
          <line
             id="line4880"
             y2="333.66699"
             x2="469.16699"
             y1="355.5"
             x1="453"
             stroke-miterlimit="10"
             style="fill:#ffffff;stroke:#000000;stroke-width:3;stroke-miterlimit:10" />
          <line
             id="line4882"
             y2="346.66699"
             x2="488.83301"
             y1="363.16699"
             x1="461.08301"
             stroke-miterlimit="10"
             style="fill:#ffffff;stroke:#000000;stroke-width:3;stroke-miterlimit:10" />
          <line
             id="line4884"
             y2="375.33301"
             x2="494.5"
             y1="376.16699"
             x1="466.66699"
             stroke-miterlimit="10"
             style="fill:#ffffff;stroke:#000000;stroke-width:3;stroke-miterlimit:10" />
        </g>
      </g>
      <g
         display="none"
         id="step3"
         style="display:none">
        <g
           display="inline"
           id="weather_icon"
           style="display:inline">
          <path
             id="path4888"
             d="m 574,510.347 c 0,6.627 -5.373,12 -12,12 l -470.5,0 C 76,523.847 73,511.641 73,505.014 l 0,-34.032 c 0,-15 7,-22 22,-22 l 467,0 c 6.627,0 12,5.373 12,12 l 0,49.365 z"
             stroke-miterlimit="10"
             inkscape:connector-curvature="0"
             style="fill:#ffffff;stroke:#000000;stroke-width:3;stroke-miterlimit:10" />
          <path
             id="path4890"
             d="m 139.057,477.423 c 0,0 -15.672,-21.699 -22.182,5.545 0,0 -13.502,-6.51 -18.324,10.368 0,0 -4.822,-2.652 -9.162,3.375 0,0 -7.233,15.913 10.126,12.538 0,0 4.822,2.893 9.644,-1.206 0,0 18.565,5.545 31.585,-1.206 0,0 12.055,2.893 20.253,-1.206 0,0 13.261,3.617 20.012,-6.269 0,0 1.688,-15.19 -20.494,-12.296 0,0.001 -3.617,-10.849 -21.458,-9.643 z"
             stroke-miterlimit="10"
             inkscape:connector-curvature="0"
             style="fill:none;stroke:#000000;stroke-width:3;stroke-miterlimit:10" />
          <circle
             id="circle4892"
             r="11.211"
             cy="484.29501"
             cx="147.375"
             stroke-miterlimit="10"
             style="fill:#ffffff;stroke:#000000;stroke-width:3;stroke-miterlimit:10" />
          <line
             id="line4894"
             y2="457.65201"
             x2="138.57401"
             y1="471.15399"
             x1="141.95"
             stroke-miterlimit="10"
             style="fill:#ffffff;stroke:#000000;stroke-width:3;stroke-miterlimit:10" />
          <line
             id="line4896"
             y2="457.65201"
             x2="151.433"
             y1="470.431"
             x1="149.504"
             stroke-miterlimit="10"
             style="fill:#ffffff;stroke:#000000;stroke-width:3;stroke-miterlimit:10" />
          <line
             id="line4898"
             y2="462.073"
             x2="162.765"
             y1="472.60101"
             x1="154.97"
             stroke-miterlimit="10"
             style="fill:#ffffff;stroke:#000000;stroke-width:3;stroke-miterlimit:10" />
          <line
             id="line4900"
             y2="468.341"
             x2="172.24899"
             y1="476.298"
             x1="158.867"
             stroke-miterlimit="10"
             style="fill:#ffffff;stroke:#000000;stroke-width:3;stroke-miterlimit:10" />
          <line
             id="line4902"
             y2="482.16501"
             x2="174.981"
             y1="482.56699"
             x1="161.56"
             stroke-miterlimit="10"
             style="fill:#ffffff;stroke:#000000;stroke-width:3;stroke-miterlimit:10" />
          <text
             id="text4904"
             font-size="32"
             transform="translate(201.2222,495.8311)"
             style="font-size:32px;font-family:Montserrat-Bold">Tomorrow about 30C</text>
          <path
             id="path4906"
             d="m 574,730.528 c 0,6.627 -5.373,12 -12,12 l -477,0 c -6.627,0 -12,-5.373 -12,-12 l 0,-174.879 c 0,-6.627 5.373,-12 12,-12 l 477,0 c 6.627,0 12,5.373 12,12 l 0,174.879 z"
             stroke-miterlimit="10"
             inkscape:connector-curvature="0"
             style="fill:#ffffff;stroke:#000000;stroke-width:3;stroke-miterlimit:10" />
          <text
             id="text4908"
             transform="translate(94.3332,584.3153)">
            <tspan
               id="tspan4910"
               font-size="28"
               y="0"
               x="0"
               style="font-size:28px;font-family:Montserrat-Bold">Monday about 29C</tspan>
            <tspan
               id="tspan4912"
               font-size="28"
               y="33.599998"
               x="0"
               style="font-size:28px;font-family:Montserrat-Bold">Tuesday about 30C</tspan>
            <tspan
               id="tspan4914"
               font-size="28"
               y="67.199997"
               x="0"
               style="font-size:28px;font-family:Montserrat-Bold">Wednesday about 30C</tspan>
            <tspan
               id="tspan4916"
               font-size="28"
               y="100.8"
               x="0"
               style="font-size:28px;font-family:Montserrat-Bold">Thursday about 30C</tspan>
            <tspan
               id="tspan4918"
               font-size="28"
               y="134.39999"
               x="0"
               style="font-size:28px;font-family:Montserrat-Bold">Friday about 30C</tspan>
          </text>
          <polyline
             id="polyline4920"
             points="174.981,545.649 189.741,529.482     204.5,545.649   "
             stroke-miterlimit="10"
             style="fill:#ffffff;stroke:#000000;stroke-width:3;stroke-miterlimit:10" />
        </g>
      </g>
      <g
         display="none"
         id="step4"
         style="display:none">
        <g
           id="g4923"
           display="inline"
           style="display:inline">
          <path
             id="path4925"
             d="m 544.333,740.333 c 0,6.627 -5.373,12 -12,12 l -470,0 c -6.627,0 -12,-5.373 -12,-12 l 0,-51.333 c 0,-6.627 5.373,-12 12,-12 l 470,0 c 6.627,0 12,5.373 12,12 l 0,51.333 z"
             stroke-miterlimit="10"
             inkscape:connector-curvature="0"
             style="fill:#ffffff;stroke:#000000;stroke-width:3;stroke-miterlimit:10" />
          <path
             id="path4927"
             d="m 544.333,637 c 0,6.627 -5.373,12 -12,12 l -470,0 c -6.627,0 -12,-5.373 -12,-12 l 0,-51.333 c 0,-6.627 5.373,-12 12,-12 l 470,0 c 6.627,0 12,5.373 12,12 l 0,51.333 z"
             stroke-miterlimit="10"
             inkscape:connector-curvature="0"
             style="fill:#ffffff;stroke:#000000;stroke-width:3;stroke-miterlimit:10" />
          <path
             id="path4929"
             d="m 453.667,637 c 0,6.627 -4.387,12 -9.798,12 l -383.738,0 c -5.411,0 -9.798,-5.373 -9.798,-12 l 0,-51.333 c 0,-6.627 4.387,-12 9.798,-12 l 383.738,0 c 5.411,0 9.798,5.373 9.798,12 l 0,51.333 z"
             stroke-miterlimit="10"
             inkscape:connector-curvature="0"
             style="fill:#ffffff;stroke:#000000;stroke-width:3;stroke-miterlimit:10" />
          <text
             id="text4931"
             font-size="28"
             transform="translate(54.3335,562.3337)"
             style="font-size:28px;font-family:Montserrat-Bold">WHO TO EMAIL?</text>
          <text
             id="text4933"
             font-size="28"
             transform="translate(465.667,619.333)"
             style="font-size:28px;font-family:Montserrat-Bold">ADD</text>
          <text
             id="text4935"
             font-size="28"
             transform="translate(70.6668,723.0003)"
             style="font-size:28px;font-family:Montserrat-Bold">ROLE: Manager</text>
          <text
             id="text4937"
             font-size="45"
             transform="matrix(0.7071,-0.7071,0.7071,0.7071,517.6152,733.7534)"
             style="font-size:45px;font-family:Montserrat-Regular">+</text>
        </g>
      </g>
      <g
         display="none"
         id="clock"
         style="display:none">
        <circle
           id="circle4940"
           r="56"
           cy="640.59998"
           cx="423.66199"
           stroke-miterlimit="10"
           display="inline"
           style="display:inline;fill:none;stroke:#000000;stroke-width:2;stroke-miterlimit:10" />
        <g
           display="inline"
           id="clock_1_"
           style="display:inline">
          <polygon
             id="polygon4943"
             points="408.18,628.672 410.25,626.723 405.725,622.5 404.296,623.261 "
             stroke-miterlimit="10"
             style="fill:#ffffff;stroke:#000000;stroke-miterlimit:10" />
          <polygon
             id="polygon4945"
             points="439.739,628.672 437.669,626.723 442.194,622.5 443.623,623.261 "
             stroke-miterlimit="10"
             style="fill:#ffffff;stroke:#000000;stroke-miterlimit:10" />
          <path
             id="path4947"
             d="m 403.585,659.2 c 0,0 -2.897,4.751 -2.324,6.501 0,0 4.814,-0.2 7.36,-1.473 l -5.036,-5.028 z"
             stroke-miterlimit="10"
             inkscape:connector-curvature="0"
             style="fill:#ffffff;stroke:#000000;stroke-miterlimit:10" />
          <path
             id="path4949"
             d="m 442.965,659.2 c 0,0 2.897,4.751 2.324,6.501 0,0 -4.814,-0.2 -7.36,-1.473 l 5.036,-5.028 z"
             stroke-miterlimit="10"
             inkscape:connector-curvature="0"
             style="fill:#ffffff;stroke:#000000;stroke-miterlimit:10" />
          <circle
             id="circle4951"
             r="24.395"
             cy="644.63501"
             cx="423.15601"
             stroke-miterlimit="10"
             style="fill:#ffffff;stroke:#000000;stroke-miterlimit:10" />
          <circle
             id="circle4953"
             r="21.895"
             cy="644.63501"
             cx="423.15601"
             stroke-miterlimit="10"
             style="fill:none;stroke:#000000;stroke-miterlimit:10" />
          <g
             id="g4955">
            <line
               id="line4957"
               y2="628.073"
               x2="423.15601"
               y1="644.63501"
               x1="423.15601"
               style="fill:#ffffff" />
            <g
               id="g4959">
              <line
                 id="line4961"
                 y2="633.02502"
                 x2="423.15601"
                 y1="644.63501"
                 x1="423.15601"
                 stroke-miterlimit="10"
                 style="fill:none;stroke:#000000;stroke-width:3;stroke-miterlimit:10" />
              <g
                 id="g4963">
                <polygon
                   id="polygon4965"
                   points="419.716,634.032 426.597,634.032 423.156,628.073 " />
              </g>
            </g>
          </g>
          <circle
             id="circle4967"
             r="2.9860001"
             cy="644.63501"
             cx="423.15601"
             stroke-miterlimit="10"
             style="fill:#ffffff;stroke:#000000;stroke-miterlimit:10" />
          <path
             id="path4969"
             d="m 396.469,627.911 c 0,0 -4.95,-5.303 1.061,-12.021 0,0 5.48,-5.48 11.844,-0.884 0,0 2.901,1.841 -3.411,9.494 0,0 -4.898,4.471 -9.494,3.411 z"
             stroke-miterlimit="10"
             inkscape:connector-curvature="0"
             style="fill:#ffffff;stroke:#000000;stroke-miterlimit:10" />
          <path
             id="path4971"
             d="m 395.231,626.911 c 0,0 -4.95,-5.303 1.061,-12.021 0,0 5.48,-5.48 11.844,-0.884 0,0 2.901,1.841 -3.411,9.494 0,0 -4.897,4.471 -9.494,3.411 z"
             stroke-miterlimit="10"
             inkscape:connector-curvature="0"
             style="fill:#ffffff;stroke:#000000;stroke-miterlimit:10" />
          <path
             id="path4973"
             d="m 450.854,627.911 c 0,0 4.95,-5.303 -1.061,-12.021 0,0 -5.48,-5.48 -11.844,-0.884 0,0 -2.901,1.841 3.411,9.494 0,0 4.898,4.471 9.494,3.411 z"
             stroke-miterlimit="10"
             inkscape:connector-curvature="0"
             style="fill:#ffffff;stroke:#000000;stroke-miterlimit:10" />
          <path
             id="path4975"
             d="m 452.092,626.911 c 0,0 4.95,-5.303 -1.061,-12.021 0,0 -5.48,-5.48 -11.844,-0.884 0,0 -2.901,1.841 3.411,9.494 0,0 4.898,4.471 9.494,3.411 z"
             stroke-miterlimit="10"
             inkscape:connector-curvature="0"
             style="fill:#ffffff;stroke:#000000;stroke-miterlimit:10" />
          <line
             id="line4977"
             y2="633.70099"
             x2="438.522"
             y1="636.354"
             x1="435.08401"
             stroke-miterlimit="10"
             style="fill:#ffffff;stroke:#000000;stroke-miterlimit:10" />
          <line
             id="line4979"
             y2="644.63501"
             x2="441.646"
             y1="644.63501"
             x1="436.80301"
             stroke-miterlimit="10"
             style="fill:#ffffff;stroke:#000000;stroke-miterlimit:10" />
          <line
             id="line4981"
             y2="655.70099"
             x2="439.224"
             y1="652.70099"
             x1="435.08401"
             stroke-miterlimit="10"
             style="fill:#ffffff;stroke:#000000;stroke-miterlimit:10" />
          <line
             id="line4983"
             y2="633.63501"
             x2="407.883"
             y1="636.28802"
             x1="411.32001"
             stroke-miterlimit="10"
             style="fill:#ffffff;stroke:#000000;stroke-miterlimit:10" />
          <line
             id="line4985"
             y2="644.56897"
             x2="404.758"
             y1="644.56897"
             x1="409.60199"
             stroke-miterlimit="10"
             style="fill:#ffffff;stroke:#000000;stroke-miterlimit:10" />
          <line
             id="line4987"
             y2="655.63501"
             x2="407.17999"
             y1="652.63501"
             x1="411.32001"
             stroke-miterlimit="10"
             style="fill:#ffffff;stroke:#000000;stroke-miterlimit:10" />
        </g>
        <line
           id="line4989"
           y2="640.59998"
           x2="548.5"
           y1="640.59998"
           x1="489.5"
           stroke-miterlimit="10"
           display="inline"
           style="display:inline;fill:none;stroke:#000000;stroke-width:2;stroke-miterlimit:10" />
        <line
           id="line4991"
           y2="551.54999"
           x2="496.18701"
           y1="584.59998"
           x1="463.13699"
           stroke-miterlimit="10"
           display="inline"
           style="display:inline;fill:none;stroke:#000000;stroke-width:2;stroke-miterlimit:10" />
        <line
           id="line4993"
           y2="696.59998"
           x2="472.97501"
           y1="729.65002"
           x1="506.02499"
           stroke-miterlimit="10"
           display="inline"
           style="display:inline;fill:none;stroke:#000000;stroke-width:2;stroke-miterlimit:10" />
        <line
           id="line4995"
           y2="638"
           x2="297.89499"
           y1="638"
           x1="356.89499"
           stroke-miterlimit="10"
           display="inline"
           style="display:inline;fill:none;stroke:#000000;stroke-width:2;stroke-miterlimit:10" />
        <line
           id="line4997"
           y2="548.95001"
           x2="350.20801"
           y1="582"
           x1="383.258"
           stroke-miterlimit="10"
           display="inline"
           style="display:inline;fill:none;stroke:#000000;stroke-width:2;stroke-miterlimit:10" />
        <line
           id="line4999"
           y2="694"
           x2="373.42001"
           y1="727.04999"
           x1="340.37"
           stroke-miterlimit="10"
           display="inline"
           style="display:inline;fill:none;stroke:#000000;stroke-width:2;stroke-miterlimit:10" />
      </g>
    </g>
  </g>
</svg>
