<?xml version="1.0" encoding="utf-8"?>
<!-- Generator: Adobe Illustrator 19.2.0, SVG Export Plug-In . SVG Version: 6.00 Build 0)  -->
<svg version="1.1" id="Layer_1" xmlns="http://www.w3.org/2000/svg" xmlns:xlink="http://www.w3.org/1999/xlink" x="0px" y="0px"
	 viewBox="0 0 364.6 297.1" style="enable-background:new 0 0 364.6 297.1;" xml:space="preserve">
<style type="text/css">
	.st0{fill-rule:evenodd;clip-rule:evenodd;fill:#FFFFFF;}
	.st1{fill:#0C0C0C;}
	.st2{fill:#FFFFFF;}
	.st3{fill:#FFFFFF;stroke:#0C0C0C;stroke-linecap:round;stroke-linejoin:round;stroke-miterlimit:10;}
</style>
<g>
	<g>
		<path class="st0" d="M59.4,97.1c-5.7-11.5-11-22.1-16.4-32.6c-0.4-0.8-1.7-1.7-2.5-1.7C30,63.4,19.4,63.5,9,65.1
			C0.5,66.3-2,75.2,4.1,80.8c2.7,2.5,6,4.5,9.4,5.9C27.8,92.5,43.1,94.6,59.4,97.1z"/>
		<path class="st1" d="M59.4,97.9c0,0-0.1,0-0.1,0L56,97.4c-15.1-2.3-29.3-4.5-42.7-9.9c-3.7-1.5-7-3.6-9.7-6
			C0.5,78.5-0.7,74.6,0.4,71c1.1-3.6,4.3-6.1,8.4-6.7c7.9-1.2,16-1.5,23.8-1.8c2.6-0.1,5.2-0.2,7.8-0.4c1.2,0,2.7,1.1,3.3,2.1
			C48,72.6,52.2,81,56.6,89.9l3.4,6.9c0.1,0.3,0.1,0.6-0.1,0.8C59.8,97.8,59.6,97.9,59.4,97.9z M40.5,63.6
			C40.5,63.6,40.5,63.6,40.5,63.6c-2.6,0.1-5.3,0.2-7.9,0.4c-7.8,0.3-15.8,0.7-23.6,1.8c-3.6,0.5-6.3,2.7-7.2,5.7
			c-0.9,3,0.1,6.3,2.8,8.8c2.5,2.3,5.8,4.3,9.2,5.7c13.2,5.4,27.4,7.5,42.4,9.9l1.8,0.3l-2.8-5.6c-4.4-8.9-8.6-17.3-12.9-25.7
			C42.1,64.3,41.1,63.6,40.5,63.6z"/>
	</g>
	<g>
		<g>
			<path class="st2" d="M363.9,271.8c0,0-105.2-120.3-106-121.5c-15-25.4-10.8-20.6-25.9-45.9c-0.8-1.4-56.7-61.4-70.2-67.6
				c-22.6-10.4-29.2-5.4-29.2-5.4s93.2,152.6,86.7,158.2c-2.1,1.8-4.5,3.3-7,4.5c-26.9,13.5-53.8,26.9-81.5,40.7
				c1.8,0.4,3.2,0.6,4.4,1c23.1,7.1,46.2,7,69.3,1.8c2-0.4,4.8-0.7,6.3,0.6c13.7,11.9,37.4,43.7,49.9,58.2"/>
			<path class="st1" d="M260.9,297.1c-0.2,0-0.4-0.1-0.6-0.3c-3.9-4.5-8.9-10.7-14.2-17.3c-11.7-14.5-26.2-32.6-35.7-40.8
				c-1-0.9-3-1-5.7-0.4c-24.9,5.6-47.7,5-69.7-1.8c-0.8-0.2-1.7-0.4-2.6-0.6c-0.5-0.1-1.1-0.2-1.7-0.4c-0.3-0.1-0.5-0.3-0.6-0.6
				c0-0.3,0.1-0.6,0.4-0.8l17.6-8.8c22-11,42.8-21.3,63.9-32c2.8-1.4,5-2.8,6.8-4.4c0.9-1.3-1.4-11.7-41.6-81
				c-22.1-38.1-45.1-75.9-45.3-76.2c-0.2-0.3-0.1-0.8,0.2-1c0.3-0.2,7.2-5.1,29.9,5.3c14.3,6.5,70.2,67.4,70.5,67.9
				c7.5,12.6,10.2,17.9,12.9,22.9c2.7,5.1,5.4,10.3,13,23c1.2,1.7,69.8,80.2,105.9,121.4c0.3,0.3,0.2,0.8-0.1,1.1
				c-0.3,0.3-0.8,0.2-1.1-0.1C352.5,259.9,258,151.9,257.2,150.6c-7.6-12.7-10.3-18-13-23.1c-2.7-5-5.4-10.3-12.9-22.9
				c-2.1-3.1-57-61.4-69.9-67.3c-18.1-8.3-25.7-6.6-27.8-5.8c3.3,5.4,24.8,40.8,45.4,76.3c45.3,78.2,42.2,81,40.8,82.1
				c-1.9,1.7-4.3,3.2-7.1,4.6c-21.2,10.6-42,21-63.9,32l-15.7,7.8c0.9,0.2,1.7,0.4,2.4,0.6c21.7,6.7,44.3,7.3,68.9,1.7
				c2.2-0.5,5.2-0.8,7,0.8c9.5,8.3,23.5,25.7,35.8,41c5.3,6.6,10.3,12.8,14.1,17.3c0.3,0.3,0.2,0.8-0.1,1.1
				C261.2,297.1,261.1,297.1,260.9,297.1z"/>
		</g>
		<g>
			
				<rect x="73.2" y="26.4" transform="matrix(0.8947 -0.4467 0.4467 0.8947 -36.7215 69.5582)" class="st2" width="111.9" height="172.4"/>
			<path class="st1" d="M117.6,215.5c-0.1,0-0.2,0-0.2,0c-0.2-0.1-0.3-0.2-0.4-0.4l-77-154.3c-0.2-0.4,0-0.8,0.3-1l100.1-50
				c0.2-0.1,0.4-0.1,0.6,0c0.2,0.1,0.3,0.2,0.4,0.4l77,154.3c0.1,0.2,0.1,0.4,0,0.6c-0.1,0.2-0.2,0.3-0.4,0.4l-100.1,50
				C117.8,215.5,117.7,215.5,117.6,215.5z M41.6,60.8l76.4,152.9l98.8-49.3L140.3,11.5L41.6,60.8z"/>
		</g>
		<g>
			<path class="st2" d="M139,232.3c23.3-11.6,46.6-23.3,69.9-34.9c4-2,8-4,11.7-6.4c5.2-3.4,7-8.7,5.3-14.7c-0.6-2-1.4-3.9-2.3-5.7
				c-12.9-26-75.4-151.2-80.1-160.3c-4.8-9.5-11.8-11.9-21.3-7.2c-26.7,13.3-53.4,26.6-80.1,40c-9.6,4.8-11.8,11.8-7,21.5
				c5.5,11.2,74,148.3,81,162.2c4,7.9,10.3,10.3,18.6,7.3C136.3,233.6,137.7,232.9,139,232.3z M44.1,59.3l3.5-1.8
				c27.7-13.8,55.5-27.6,83.1-41.6c3-1.5,4.2-0.9,5.6,2c23.7,47.7,47.5,95.3,71.4,143c1.5,2.9,1.1,4.2-1.9,5.6
				c-23.5,11.6-46.9,23.4-70.3,35.1c-5.4,2.7-10.8,5.4-16.5,8.3L44.1,59.3z"/>
			<path class="st1" d="M128.5,236.1c-5.5,0-9.9-3-12.9-8.9c-7-13.8-75.1-150.2-81-162.2c-5.1-10.2-2.7-17.5,7.3-22.6
				c27-13.6,53.9-27,80.1-40c9.8-4.9,17.3-2.3,22.3,7.5c4.7,9.2,67.8,135.7,80.1,160.3c1.1,2.2,1.9,4.1,2.4,5.8
				c1.8,6.4-0.2,12-5.6,15.5c-3.5,2.3-7.4,4.2-11.1,6.1l-0.7,0.3c-21.6,10.8-43.6,21.8-64.8,32.4l-5.1,2.5l0,0
				c-1.6,0.8-2.9,1.4-4.2,1.8C132.8,235.6,130.6,236.1,128.5,236.1z M131,1.5c-2.5,0-5.3,0.8-8.3,2.3c-26.1,13-53.1,26.4-80.1,40
				c-9.2,4.6-11.3,11.1-6.6,20.5c5.9,12,74,148.4,81,162.2c3.8,7.5,9.7,9.8,17.6,6.9c1.2-0.4,2.5-1,4-1.8l5.1-2.5
				c21.3-10.6,43.2-21.6,64.8-32.4l0.7-0.3c3.7-1.8,7.5-3.7,11-6c4.9-3.1,6.6-8.1,5-13.8c-0.5-1.6-1.2-3.4-2.3-5.6
				c-12.3-24.6-75.4-151.1-80.1-160.3C139.8,4.5,135.9,1.5,131,1.5z M139,232.3L139,232.3L139,232.3z M119.1,210.6
				c-0.1,0-0.2,0-0.2,0c-0.2-0.1-0.3-0.2-0.4-0.4l-75-150.6c-0.2-0.4,0-0.8,0.3-1l22-11c21.2-10.6,43.1-21.5,64.6-32.4
				c1.7-0.9,2.8-1.1,3.9-0.7c1.3,0.4,2.1,1.7,2.7,3.1c23.9,48.2,48,96.3,71.4,143c0.9,1.8,1.1,2.9,0.8,4c-0.3,1-1.2,1.8-3,2.7
				c-17.7,8.8-35.7,17.8-53.1,26.5c-5.7,2.9-11.4,5.7-17.2,8.6c-3.4,1.7-6.8,3.4-10.2,5.1l-6.3,3.1
				C119.3,210.6,119.2,210.6,119.1,210.6z M45.1,59.7l74.3,149.2l5.6-2.8c3.5-1.7,6.8-3.4,10.2-5.1c5.7-2.9,11.4-5.7,17.2-8.6
				c17.4-8.7,35.4-17.7,53.1-26.5c1.3-0.7,2-1.2,2.2-1.8c0.2-0.6,0-1.5-0.7-2.8c-23.4-46.7-47.4-94.8-71.4-143
				c-0.7-1.4-1.3-2.1-1.9-2.3c-0.6-0.2-1.5,0-2.7,0.6C109.6,27.5,87.6,38.4,66.4,49L45.1,59.7z"/>
		</g>
	</g>
	<g>
		<path class="st0" d="M68.7,140.9c4,2,7.8,4.3,11.8,6.3c3.7,1.9,5.6,5.4,5.4,9.7c-0.2,4.3-5.2,12-15.3,9.7
			c-6.6-2.1-18.9-5-25.1-11.8c-7.5-8.3-1.1-17.1,8.1-18.8c0,0,11.2-2.1,15.8-2.4"/>
		<path class="st1" d="M74.1,167.8c-1.1,0-2.4-0.1-3.7-0.4c-0.9-0.3-1.8-0.5-2.8-0.8c-6.8-2-17.1-5.1-22.7-11.2
			c-3.2-3.5-4.2-7.5-3-11.2c1.5-4.4,6-7.8,11.5-8.8c0.5-0.1,11.3-2.1,15.9-2.4c0.4,0,0.8,0.3,0.8,0.7c0,0.4-0.3,0.8-0.7,0.8
			c-4.5,0.3-15.6,2.3-15.7,2.4c-5,0.9-9,4-10.3,7.8c-1.1,3.2-0.2,6.6,2.7,9.7c5.3,5.8,15.4,8.8,22,10.8c1,0.3,1.9,0.6,2.8,0.8
			c4.9,1.1,8.2-0.4,10.2-1.8c2.7-2.1,4.1-5.2,4.2-7.2c0.2-4-1.6-7.2-5-9c-1.9-1-3.7-2-5.6-3c-2-1.1-4.1-2.3-6.2-3.3
			c-0.4-0.2-0.5-0.6-0.3-1c0.2-0.4,0.6-0.5,1-0.3c2.1,1.1,4.2,2.2,6.3,3.4c1.8,1,3.7,2,5.5,3c3.9,2,6,5.8,5.8,10.4
			c-0.1,2.4-1.7,6-4.8,8.3C80.2,166.5,77.7,167.8,74.1,167.8z"/>
	</g>
	<g>
		<path class="st0" d="M85,165.4c-6.1,1.4-19.3,9-15.1,18.2c3.6,7.9,17.1,13.9,23.3,15.9c9.5,2.2,14-5,14.2-9c0.2-4-1.6-7.3-5-9.1
			c-4.3-2.2-8.4-4.8-12.8-6.9"/>
		<path class="st1" d="M96.5,200.6c-1.1,0-2.3-0.1-3.5-0.4c-6.7-2.1-20.1-8.2-23.8-16.3c-1.2-2.7-1.2-5.5,0.2-8.2
			c2.9-5.8,10.9-10,15.4-11.1c0.4-0.1,0.8,0.2,0.9,0.6c0.1,0.4-0.2,0.8-0.6,0.9c-4.4,1-11.9,5.1-14.4,10.3c-1.1,2.3-1.2,4.6-0.2,6.9
			c3.4,7.6,16.4,13.4,22.8,15.5c4.5,1.1,7.6-0.3,9.3-1.6c2.5-1.9,3.8-4.8,3.9-6.7c0.2-3.8-1.5-6.7-4.6-8.4c-1.7-0.9-3.5-1.9-5.2-2.8
			c-2.5-1.4-5-2.8-7.6-4c-0.4-0.2-0.5-0.6-0.4-1c0.2-0.4,0.6-0.5,1-0.4c2.7,1.3,5.2,2.7,7.7,4.1c1.7,0.9,3.4,1.9,5.1,2.8
			c3.7,1.9,5.6,5.5,5.4,9.8c-0.1,2.3-1.5,5.6-4.5,7.8C102.1,199.4,99.8,200.6,96.5,200.6z"/>
	</g>
	<g>
		<ellipse transform="matrix(0.8947 -0.4468 0.4468 0.8947 -71.684 96.8805)" class="st2" cx="169.6" cy="200.4" rx="10" ry="10"/>
		<path class="st1" d="M169.6,211.2c-3.9,0-7.7-2.2-9.6-5.9c-1.3-2.6-1.5-5.5-0.6-8.2c0.9-2.7,2.8-4.9,5.4-6.2
			c2.6-1.3,5.5-1.5,8.2-0.6c2.7,0.9,4.9,2.8,6.2,5.4s1.5,5.5,0.6,8.2c-0.9,2.7-2.8,4.9-5.4,6.2C172.8,210.8,171.2,211.2,169.6,211.2
			z M169.6,191.2c-1.4,0-2.8,0.3-4.1,1c-2.2,1.1-3.8,3-4.6,5.3s-0.6,4.8,0.5,7c2.3,4.5,7.8,6.4,12.4,4.1c2.2-1.1,3.8-3,4.6-5.3
			s0.6-4.8-0.5-7C176.2,193.1,173,191.2,169.6,191.2z"/>
	</g>
	<g>
		<path class="st2" d="M166.4,194.2c3.5-1.7,7.7-0.3,9.4,3.1c1,2,1,4.2,0.1,6.1"/>
		<path class="st1" d="M176,203.9c-0.1,0-0.1,0-0.2,0c-0.3-0.1-0.4-0.4-0.2-0.7c0.8-1.8,0.8-3.9-0.1-5.7c-0.8-1.6-2.1-2.7-3.8-3.3
			c-1.7-0.6-3.4-0.4-5,0.4c-0.2,0.1-0.5,0-0.7-0.2c-0.1-0.2,0-0.5,0.2-0.7c1.8-0.9,3.8-1,5.8-0.4c1.9,0.6,3.5,2,4.4,3.8
			c1,2.1,1.1,4.4,0.1,6.5C176.3,203.8,176.2,203.9,176,203.9z"/>
	</g>
	<g>
		<path class="st2" d="M166.8,206.9c-1.5-0.6-2.7-1.8-3.5-3.3"/>
		<path class="st1" d="M166.8,207.4c-0.1,0-0.1,0-0.2,0c-1.6-0.7-2.9-2-3.7-3.5c-0.1-0.2,0-0.5,0.2-0.7c0.2-0.1,0.5,0,0.7,0.2
			c0.7,1.4,1.8,2.5,3.2,3.1c0.3,0.1,0.4,0.4,0.3,0.7C167.2,207.3,167,207.4,166.8,207.4z"/>
	</g>
	<g>
		<path class="st3" d="M172.7,206.7"/>
	</g>
	<g>
		<path class="st0" d="M51.7,101.7c7,2.6,13.1,6.5,19.6,9.7c4.1,2.1,6.2,6,5.9,10.6c-0.2,5.6-5.2,12.7-16.5,10.3
			c-9.4-2.2-21.6-4.8-28.5-12.3c-8.3-9.1-1.3-18.3,8.2-21.4c0,0,6-2.8,8.7-3.1"/>
		<path class="st1" d="M65.1,133.6c-1.4,0-2.9-0.2-4.5-0.5l-1.4-0.3c-9.3-2.2-20.8-4.9-27.5-12.2c-4.2-4.6-4.3-8.8-3.5-11.6
			c1.3-4.8,5.9-9,12.1-11.1c0.2-0.1,6-2.8,8.8-3.1c0.4,0,0.8,0.2,0.8,0.7s-0.2,0.8-0.7,0.8c-2.6,0.3-8.4,3-8.5,3
			c-5.8,1.9-10,5.7-11.2,10.1c-0.9,3.4,0.2,6.9,3.2,10.2c6.4,7,17.7,9.6,26.7,11.8l1.4,0.3c4.7,1,8.8,0.4,11.7-1.9
			c2.4-1.9,3.8-4.7,3.9-7.7c0.3-4.4-1.8-8.1-5.5-10c-2.1-1-4.2-2.2-6.2-3.3c-4.2-2.3-8.6-4.7-13.4-6.4c-0.4-0.1-0.6-0.6-0.4-1
			c0.1-0.4,0.6-0.6,1-0.4c4.8,1.8,9.3,4.2,13.6,6.5c2,1.1,4.1,2.2,6.1,3.3c4.3,2.2,6.6,6.3,6.3,11.4c-0.1,3.4-1.8,6.7-4.5,8.8
			C71.8,132.2,69.1,133.6,65.1,133.6z"/>
	</g>
	<g>
		<path class="st0" d="M70.6,162c3.4,0.7,6.2,0.7,7.4-0.5"/>
		<path class="st1" d="M74.7,163c-1.2,0-2.5-0.2-4.2-0.5c-0.3-0.1-0.4-0.3-0.4-0.6s0.3-0.4,0.6-0.4c4.6,0.9,6.3,0.3,7-0.4
			c0.2-0.2,0.5-0.2,0.7,0s0.2,0.5,0,0.7C77.6,162.7,76.4,163,74.7,163z"/>
	</g>
	<g>
		<path class="st0" d="M52.8,155.8c0,0,6.9,3.2,13.5,5.1"/>
		<path class="st1" d="M66.3,161.4c0,0-0.1,0-0.1,0c-6.6-2-13.5-5.1-13.6-5.2c-0.3-0.1-0.4-0.4-0.2-0.7c0.1-0.3,0.4-0.4,0.7-0.2
			c0.1,0,6.9,3.2,13.5,5.1c0.3,0.1,0.4,0.4,0.3,0.6C66.7,161.3,66.5,161.4,66.3,161.4z"/>
	</g>
	<g>
		<path class="st0" d="M80.4,189.2c1.4,0.9,3,1.7,5,2.6"/>
		<path class="st1" d="M85.4,192.4c-0.1,0-0.1,0-0.2,0c-1.9-0.9-3.6-1.8-5-2.7c-0.2-0.1-0.3-0.5-0.2-0.7c0.1-0.2,0.5-0.3,0.7-0.2
			c1.4,0.9,3.1,1.7,4.9,2.6c0.2,0.1,0.4,0.4,0.2,0.7C85.7,192.3,85.6,192.4,85.4,192.4z"/>
	</g>
	<g>
		<path class="st0" d="M76.4,176c0,0-7.5,4.5,1.1,11.3"/>
		<path class="st1" d="M77.5,187.7c-0.1,0-0.2,0-0.3-0.1c-3-2.4-4.5-4.8-4.3-7.1c0.2-3.1,3.2-4.9,3.3-5c0.2-0.1,0.5-0.1,0.7,0.2
			c0.1,0.2,0.1,0.5-0.2,0.7c0,0-2.6,1.6-2.8,4.2c-0.1,2,1.2,4.1,3.9,6.3c0.2,0.2,0.3,0.5,0.1,0.7C77.8,187.7,77.6,187.7,77.5,187.7z
			"/>
	</g>
	<g>
		<path class="st0" d="M61.2,127.8c3.3,0.5,6.4,0.4,8.6-0.6"/>
		<path class="st1" d="M64.8,128.6c-1.1,0-2.4-0.1-3.7-0.3c-0.3,0-0.5-0.3-0.4-0.6c0-0.3,0.3-0.5,0.6-0.4c3.6,0.5,6.4,0.3,8.3-0.5
			c0.3-0.1,0.5,0,0.7,0.3c0.1,0.3,0,0.5-0.3,0.7C68.6,128.3,66.9,128.6,64.8,128.6z"/>
	</g>
	<g>
		<path class="st0" d="M36.4,119.3c0,0,10,5,19.7,7.4"/>
		<path class="st1" d="M56,127.3c0,0-0.1,0-0.1,0c-9.6-2.4-19.7-7.4-19.8-7.5c-0.2-0.1-0.3-0.4-0.2-0.7c0.1-0.2,0.4-0.3,0.7-0.2
			c0.1,0,10.1,5,19.6,7.4c0.3,0.1,0.4,0.3,0.4,0.6C56.4,127.1,56.2,127.3,56,127.3z"/>
	</g>
	<g>
		<path class="st2" d="M186.7,95.6c0,0,16.5,60.4,43.4,62.5"/>
		<path class="st1" d="M230.1,158.8C230.1,158.8,230.1,158.8,230.1,158.8c-11.5-0.9-22.4-11.8-32.4-32.4
			c-7.4-15.2-11.6-30.4-11.7-30.6c-0.1-0.4,0.1-0.8,0.5-0.9c0.4-0.1,0.8,0.1,0.9,0.5c0.2,0.6,16.7,59.9,42.7,61.9
			c0.4,0,0.7,0.4,0.7,0.8C230.8,158.5,230.5,158.8,230.1,158.8z"/>
	</g>
	<g>
		<line class="st2" x1="256" y1="275.9" x2="273.9" y2="295.7"/>
		<path class="st1" d="M273.9,296.4c-0.2,0-0.4-0.1-0.6-0.2l-17.9-19.8c-0.3-0.3-0.3-0.8,0.1-1.1s0.8-0.3,1.1,0.1l17.9,19.8
			c0.3,0.3,0.3,0.8-0.1,1.1C274.2,296.4,274.1,296.4,273.9,296.4z"/>
	</g>
	<g>
		<line class="st2" x1="221.6" y1="237.7" x2="250.2" y2="269.4"/>
		<path class="st1" d="M250.2,270.1c-0.2,0-0.4-0.1-0.6-0.2L221,238.2c-0.3-0.3-0.3-0.8,0.1-1.1s0.8-0.3,1.1,0.1l28.6,31.7
			c0.3,0.3,0.3,0.8-0.1,1.1C250.5,270.1,250.4,270.1,250.2,270.1z"/>
	</g>
	<g>
		<g>
			<path d="M89.4,88.1c3.5,6.8,3.2,11.3-1.1,13.5c-4.3,2.2-8.1,0-11.5-6.6c-1-1.9-1.7-3.6-2.1-5.1c-0.4-1.5-0.6-2.8-0.5-3.9
				c0.1-1.1,0.5-2.1,1-2.9c0.6-0.8,1.4-1.5,2.5-2.1C81.9,79,85.8,81.3,89.4,88.1z M87.6,89c-3.1-5.9-6.1-8.1-9.2-6.5
				c-0.8,0.4-1.4,0.9-1.8,1.6c-0.4,0.7-0.6,1.4-0.6,2.4c0,0.9,0.2,2,0.6,3.2c0.4,1.2,1,2.6,1.9,4.2c0.7,1.4,1.4,2.6,2.1,3.5
				c0.7,0.9,1.4,1.7,2.1,2.3c0.7,0.6,1.5,0.9,2.4,1c0.9,0.1,1.7-0.1,2.6-0.5C90.6,98.6,90.6,94.9,87.6,89z"/>
		</g>
		<g>
			<path d="M106,92.1l-1.7,0.9l-8.7-16.8c-0.8,2.2-1.9,4.2-3.4,5.9l-0.8-1.5c2.1-3.1,3.1-5.7,3.1-8l1.2-0.6L106,92.1z"/>
		</g>
		<g>
			<path d="M110.7,74.6l-2.4,1.2l-1.4-2.7l2.4-1.2L110.7,74.6z M116.8,86.5l-2.4,1.2l-1.4-2.7l2.4-1.2L116.8,86.5z"/>
		</g>
		<g>
			<path d="M133.5,77.9l-13,6.7c-0.3-0.7-0.4-1.4-0.5-2.2c-0.1-0.7,0-1.8,0.4-3.2c0.4-1.4,1-3.1,2-5.2c0.7-1.5,1.2-2.6,1.5-3.4
				c0.3-0.8,0.6-1.6,0.8-2.4c0.2-0.8,0.2-1.5,0.1-2.1c-0.1-0.6-0.3-1.2-0.6-1.8c-0.4-0.8-1-1.5-1.7-1.9c-0.7-0.4-1.5-0.7-2.3-0.7
				c-0.9,0-1.7,0.2-2.6,0.6c-2.5,1.3-3.3,3.6-2.3,6.7l-1.9,0.7c-0.7-1.8-0.7-3.5-0.1-5.1c0.6-1.6,1.9-2.8,3.7-3.8
				c1.8-0.9,3.5-1.2,5.2-0.7c1.7,0.4,3,1.5,3.8,3.1c0.5,1,0.8,2,0.8,3.1c0,1.1-0.2,2.2-0.6,3.4c-0.4,1.2-1.2,2.9-2.3,5.1
				c-1.3,2.7-2,5-2,6.9l10.8-5.6L133.5,77.9z"/>
		</g>
		<g>
			<path d="M133.9,71.2l1.5-1.1c2.1,2.5,4.4,3.2,6.8,1.9c0.9-0.5,1.6-1.1,2.1-1.9c0.5-0.8,0.7-1.6,0.8-2.5c0-0.9-0.2-1.9-0.7-2.8
				c-0.7-1.3-1.6-2.1-2.8-2.4c-1.2-0.3-2.5-0.2-3.8,0.5c-0.4,0.2-1,0.6-1.7,1.2l-0.6-1.6c1-0.5,1.8-1,2.3-1.5c0.5-0.5,0.9-1,1.1-1.6
				c0.2-0.5,0.3-1.1,0.3-1.7c0-0.6-0.2-1.1-0.5-1.7c-0.5-1.1-1.4-1.7-2.4-2c-1.1-0.3-2.1-0.2-3.3,0.4c-2.2,1.1-2.9,3.2-2.2,6.2
				l-1.9,0.6c-0.9-3.8,0.2-6.5,3.4-8.1c1.7-0.9,3.3-1.1,4.8-0.7c1.5,0.4,2.7,1.4,3.5,3c1,1.9,0.7,3.8-0.8,5.7c3-0.7,5.1,0.3,6.4,2.9
				c1,1.9,1.1,3.7,0.5,5.5c-0.6,1.8-1.9,3.2-3.8,4.2C139.6,75.2,136.5,74.5,133.9,71.2z"/>
		</g>
	</g>
	<g>
		<g>
			<line class="st0" x1="107.3" y1="116" x2="154.6" y2="93.5"/>
			<path class="st1" d="M107.3,116.5c-0.2,0-0.4-0.1-0.5-0.3c-0.1-0.2,0-0.5,0.2-0.7l47.2-22.5c0.3-0.1,0.5,0,0.7,0.2
				c0.1,0.2,0,0.5-0.2,0.7l-47.2,22.5C107.5,116.5,107.4,116.5,107.3,116.5z"/>
		</g>
		<g>
			<line class="st0" x1="117.8" y1="117.3" x2="160.4" y2="97.2"/>
			<path class="st1" d="M117.8,117.8c-0.2,0-0.4-0.1-0.5-0.3c-0.1-0.2,0-0.5,0.2-0.7l42.5-20.1c0.2-0.1,0.5,0,0.7,0.2
				c0.1,0.2,0,0.5-0.2,0.7l-42.5,20.1C118,117.8,117.9,117.8,117.8,117.8z"/>
		</g>
		<g>
			<line class="st0" x1="104.9" y1="143" x2="132.2" y2="129.4"/>
			<path class="st1" d="M104.9,143.5c-0.2,0-0.4-0.1-0.4-0.3c-0.1-0.2,0-0.5,0.2-0.7l27.2-13.6c0.2-0.1,0.5,0,0.7,0.2
				c0.1,0.2,0,0.5-0.2,0.7l-27.2,13.6C105.1,143.5,105,143.5,104.9,143.5z"/>
		</g>
		<g>
			<line class="st0" x1="99.3" y1="135.7" x2="146.6" y2="113.2"/>
			<path class="st1" d="M99.3,136.2c-0.2,0-0.4-0.1-0.5-0.3c-0.1-0.2,0-0.5,0.2-0.7l47.2-22.5c0.2-0.1,0.5,0,0.7,0.2
				c0.1,0.2,0,0.5-0.2,0.7l-47.2,22.5C99.5,136.1,99.4,136.2,99.3,136.2z"/>
		</g>
	</g>
</g>
</svg>
