<?xml version="1.0" encoding="utf-8"?>
<!-- Generator: Adobe Illustrator 19.2.0, SVG Export Plug-In . SVG Version: 6.00 Build 0)  -->
<svg version="1.1" id="Layer_1" xmlns="http://www.w3.org/2000/svg" xmlns:xlink="http://www.w3.org/1999/xlink" x="0px" y="0px"
	 viewBox="0 0 276.4 275.9" style="enable-background:new 0 0 276.4 275.9;" xml:space="preserve">
<style type="text/css">
	.st0{fill:#363636;}
</style>
<g>
	<path class="st0" d="M252.7,139.7c-1.7,0-3,2-3,4.2v85.7c0,2.3,1.4,3.9,3,3.6l20.9-3.6c1.5-0.3,2.8-2.2,2.8-4.4V143
		c0-2.1-1.2-3.9-2.8-3.9L252.7,139.7L252.7,139.7z"/>
	<path class="st0" d="M5.8,146.1C2.6,146.2,0,148.9,0,152v119.2c0,3.2,2.6,5.3,5.8,4.7l39.7-6.9c2.9-0.5,5.2-3.3,5.2-6.3V150.3
		c0-2.9-2.3-5.3-5.2-5.2L5.8,146.1L5.8,146.1z"/>
	<path class="st0" d="M209.9,88.8c-1.9-0.1-3.4,1.8-3.4,4.2v143.8c0,2.4,1.5,4.1,3.4,3.8l23.7-4.1c1.8-0.3,3.1-2.4,3.1-4.7V94.3
		c0-2.3-1.4-4.3-3.1-4.3L209.9,88.8L209.9,88.8z"/>
	<path class="st0" d="M86.8,82.5c-2.6-0.1-4.8,2.1-4.8,4.9v170c0,2.9,2.2,4.8,4.8,4.4l32.9-5.7c2.4-0.4,4.4-2.9,4.4-5.7V89.3
		c0-2.7-1.9-5-4.4-5.1L86.8,82.5L86.8,82.5z"/>
	<path class="st0" d="M154.7,120.3c-2.2,0-4,2.1-4,4.6v121.2c0,2.6,1.8,4.3,4,4l27.7-4.8c2-0.4,3.7-2.6,3.7-5.1V124.8
		c0-2.4-1.6-4.4-3.7-4.4L154.7,120.3L154.7,120.3z"/>
	<path class="st0" d="M263.3,87.3c6.1,0.3,10.9-6.1,10.9-14.5s-4.8-15.7-10.9-16.3c-2.3-0.2-4.5,0.5-6.4,2.1l-23.7-25.8
		c0.7-2,1.1-4.2,1.1-6.7c0-8.9-5.5-17.1-12.4-18.3c-7-1.2-12.9,5.3-12.9,14.5c0,0.2,0.1,0.5,0.1,0.7l-28.3,16.8
		c-2.5-2.9-5.7-4.9-9.2-5.4c-4.9-0.6-9.3,1.9-12,6l-42.8-19.8c-0.6-10.1-8-19.1-17.2-20.5c-9.9-1.5-18.1,6.1-18.1,17.1
		c0,1.7,0.2,3.4,0.6,5L38.4,48.7c-3.4-2.8-7.6-4.8-12.2-5.2C14.3,42.4,4.5,51.3,4.5,63.4s9.9,22.2,21.7,22.7
		c11.4,0.5,20.6-8.4,20.6-19.9c0-1.8-0.4-3.6-0.7-5.3L89.2,34c2.9,2.7,6.5,4.5,10.5,5c5.9,0.6,10.9-2.1,14-6.4l43.1,19.1
		c0.4,9.5,6.9,17.5,14.8,18.1c7.9,0.6,14.3-6.7,14.3-16.2c0-1.1-0.1-2.2-0.3-3.2l27-16.4c2.4,3.7,5.7,6.2,9.5,6.7
		c1.9,0.2,3.7-0.1,5.4-0.9l25.1,26.9c-0.3,1.4-0.5,2.8-0.5,4.3C252,79.7,257.1,87,263.3,87.3L263.3,87.3z"/>
</g>
</svg>
