<?xml version="1.0" encoding="utf-8"?>
<!-- Generator: Adobe Illustrator 19.2.0, SVG Export Plug-In . SVG Version: 6.00 Build 0)  -->
<svg version="1.1" id="Layer_1" xmlns="http://www.w3.org/2000/svg" xmlns:xlink="http://www.w3.org/1999/xlink" x="0px" y="0px"
	 viewBox="0 0 276.4 307.2" style="enable-background:new 0 0 276.4 307.2;" xml:space="preserve">
<style type="text/css">
	.st0{fill:#363636;}
</style>
<g>
	<path class="st0" d="M85.1,45.6v-4.5c0-7.4-5-12.1-10.9-10.5l-33,9.2c-5,1.4-8.9,7.9-8.9,14.4v4L0,65.8v29.3L32.2,90v4
		c0,6.6,4,11.5,8.9,10.9l33-3.9c6-0.7,10.9-7.4,10.9-14.8v-4.5l191.4-30.4V0L85.1,45.6z M44.2,88.1V55.3L70.6,49v34.9L44.2,88.1z
		 M196.9,125.5c0-9.3-7.7-16.2-16.9-15.5l-49.7,3.9c-7.4,0.6-13.2,7.6-13.2,15.5v4.8L0,139v29.3l117.1,4.6v4.8
		c0,8,5.9,14.9,13.2,15.5l49.7,3.9c9.2,0.7,16.9-6.2,16.9-15.5V176l79.5,3.2V128l-79.5,3.2V125.5z M134.8,173.6v-40l39.7-1.6v43.1
		L134.8,173.6z M85.1,221.1c0-7.4-5-14.1-10.9-14.8l-33-3.9c-5-0.6-8.9,4.3-8.9,10.9v4L0,212.1v29.3l32.2,7.7v4c0,6.6,4,13,8.9,14.4
		l33,9.2c6,1.7,10.9-3,10.9-10.5v-4.5l191.4,45.6V256L85.1,225.6V221.1z M44.2,251.9v-32.8l26.3,4.2v34.9L44.2,251.9z"/>
</g>
</svg>
